<?xml version="1.0" encoding="utf-8"?>
<!-- Generator: Adobe Illustrator 23.1.0, SVG Export Plug-In . SVG Version: 6.00 Build 0)  -->
<svg version="1.1" id="Layer_1" xmlns="http://www.w3.org/2000/svg" xmlns:xlink="http://www.w3.org/1999/xlink" x="0px" y="0px"
	 viewBox="0 0 141 141" style="enable-background:new 0 0 141 141;" xml:space="preserve">
<style type="text/css">
	.st0{fill:#F1B04E;}
	.st1{fill:#FF720C;fill-opacity:0.57;}
	.st2{fill:#FF5C00;stroke:#000000;}
	.st3{fill:#FF5C00;}
	.st4{fill:#FFFFFF;stroke:#000000;}
	.st5{fill:#FFFFFF;}
	.st6{fill:#919191;stroke:#000000;}
	.st7{fill:none;stroke:#000000;}
	.st8{fill:#FFD600;stroke:#000000;}
	.st9{fill:none;}
	.st10{font-family:'ArialMT';}
	.st11{font-size:12px;}
</style>
<circle class="st0" cx="70.5" cy="70.5" r="70.5"/>
<ellipse class="st1" cx="70.5" cy="70.5" rx="63.3" ry="63.3"/>
<g>
	<path class="st2" d="M76.1,101.9c0,0.7-0.5,1.4-1.6,2.2c-1.1,0.8-2.8,1.4-4.9,2c-4.2,1.2-9.9,1.9-16.4,1.9
		c-6.4,0-12.2-0.7-16.4-1.9c-2.1-0.6-3.7-1.3-4.9-2c-1.1-0.8-1.6-1.5-1.6-2.2s0.5-1.4,1.6-2.2c1.1-0.8,2.8-1.4,4.9-2
		c4.2-1.2,9.9-1.9,16.4-1.9c6.4,0,12.2,0.7,16.4,1.9c2.1,0.6,3.7,1.3,4.9,2C75.7,100.5,76.1,101.3,76.1,101.9z"/>
	<rect x="30" y="92.2" class="st3" width="46.6" height="10.1"/>
	<path class="st4" d="M76.1,91.8c0,0.7-0.5,1.4-1.6,2.2c-1.1,0.8-2.8,1.4-4.9,2c-4.2,1.2-9.9,1.9-16.4,1.9C46.9,98,41.1,97.2,37,96
		c-2.1-0.6-3.7-1.3-4.9-2c-1.1-0.8-1.6-1.5-1.6-2.2s0.5-1.4,1.6-2.2c1.1-0.8,2.8-1.4,4.9-2c4.2-1.2,9.9-1.9,16.4-1.9
		c6.4,0,12.2,0.7,16.4,1.9c2.1,0.6,3.7,1.3,4.9,2C75.7,90.4,76.1,91.2,76.1,91.8z"/>
	<rect x="30" y="32.3" class="st5" width="46.6" height="59.9"/>
	<path class="st2" d="M76.1,44c0,0.7-0.5,1.4-1.6,2.2s-2.8,1.4-4.9,2c-4.2,1.2-9.9,1.9-16.4,1.9c-6.4,0-12.2-0.7-16.4-1.9
		c-2.1-0.6-3.7-1.3-4.9-2c-1.1-0.8-1.6-1.5-1.6-2.2s0.5-1.4,1.6-2.2s2.8-1.4,4.9-2c4.2-1.2,9.9-1.9,16.4-1.9
		c6.4,0,12.2,0.7,16.4,1.9c2.1,0.6,3.7,1.3,4.9,2C75.7,42.6,76.1,43.3,76.1,44z"/>
	<rect x="30" y="32.9" class="st3" width="46.6" height="11.3"/>
	<path class="st6" d="M76.1,32.6c0,0.7-0.5,1.4-1.6,2.2s-2.8,1.4-4.9,2c-4.2,1.2-9.9,1.9-16.4,1.9c-6.4,0-12.2-0.7-16.4-1.9
		c-2.1-0.6-3.7-1.3-4.9-2c-1.1-0.8-1.6-1.5-1.6-2.2s0.5-1.4,1.6-2.2c1.1-0.8,2.8-1.4,4.9-2c4.2-1.2,9.9-1.9,16.4-1.9
		c6.4,0,12.2,0.7,16.4,1.9c2.1,0.6,3.7,1.3,4.9,2C75.7,31.2,76.1,32,76.1,32.6z"/>
	<path class="st6" d="M71.7,32.6c0,0.5-0.4,1.1-1.3,1.7c-0.9,0.6-2.3,1.2-4,1.6c-3.4,1-8.2,1.6-13.5,1.6s-10-0.6-13.5-1.6
		c-1.7-0.5-3.1-1-4-1.6s-1.3-1.2-1.3-1.7s0.4-1.1,1.3-1.7c0.9-0.6,2.3-1.2,4-1.6c3.4-1,8.2-1.6,13.5-1.6s10,0.6,13.5,1.6
		c1.7,0.5,3.1,1,4,1.6C71.4,31.6,71.7,32.1,71.7,32.6z"/>
	<path class="st6" d="M66.1,32.9c0,0.3-0.2,0.6-0.8,1.1c-0.6,0.4-1.5,0.8-2.7,1.1c-2.3,0.7-5.6,1.1-9.2,1.1c-3.6,0-6.9-0.4-9.2-1.1
		c-1.2-0.3-2.1-0.7-2.7-1.1c-0.6-0.4-0.8-0.8-0.8-1.1s0.2-0.6,0.8-1.1c0.6-0.4,1.5-0.8,2.7-1.1c2.3-0.7,5.6-1.1,9.2-1.1
		c3.6,0,6.9,0.4,9.2,1.1c1.2,0.3,2.1,0.7,2.7,1.1C65.9,32.3,66.1,32.7,66.1,32.9z"/>
	<line class="st7" x1="76.1" y1="102.2" x2="76.1" y2="32.3"/>
	<line class="st7" x1="30.1" y1="102.2" x2="30.1" y2="32.3"/>
	<path d="M42.1,69.9c0.7,0.2,1.1,0.6,1.1,1.2c0,0.4-0.2,0.7-0.5,1c-0.3,0.2-0.8,0.3-1.4,0.3h-2.8v-0.6h0.9v-3.6h-0.9v-0.6h2.7
		c0.5,0,0.9,0.1,1.2,0.3c0.3,0.2,0.4,0.5,0.4,0.9c0,0.3-0.1,0.5-0.2,0.7C42.5,69.7,42.3,69.8,42.1,69.9z M40.1,68.2v1.5H41
		c0.3,0,0.6-0.1,0.8-0.2S42,69.2,42,69c0-0.3-0.1-0.4-0.3-0.6c-0.2-0.1-0.4-0.2-0.7-0.2C41,68.2,40.1,68.2,40.1,68.2z M41.2,71.9
		c0.8,0,1.2-0.3,1.2-0.8c0-0.3-0.1-0.5-0.3-0.6s-0.5-0.2-0.9-0.2H40v1.6H41.2z M47.8,69.2v-1h-2.5v1.5h1.1V69H47v1.8h-0.6v-0.7h-1.1
		v1.6h2.5v-1h0.6v1.5h-4.7v-0.6h0.9V68h-0.9v-0.6h4.7v1.5h-0.6V69.2z M54.8,71.9v0.6h-2.3v-0.6h0.8l-0.4-1.1h-2.1l-0.4,1.1h0.8v0.6
		h-2.3v-0.6h0.7l1.6-3.6h-0.7v-0.6h2.7v0.6h-0.7l1.6,3.6H54.8z M52.7,70.2l-0.8-2h-0.1l-0.8,2H52.7z M61.3,68.2h-0.9v4.3H60
		l-3.4-3.8v3.2h0.9v0.6H55v-0.6h1v-3.6h-0.9v-0.6h1.6l3.1,3.5v-3h-0.9v-0.6h2.5L61.3,68.2L61.3,68.2z M64.1,69.7
		c0.6,0.2,1.1,0.4,1.4,0.6s0.5,0.5,0.5,0.9c0,0.3-0.1,0.5-0.2,0.7s-0.3,0.3-0.6,0.4c-0.2,0.1-0.5,0.2-0.8,0.2s-0.6-0.1-0.9-0.2
		c-0.3-0.1-0.6-0.3-0.8-0.6v0.7h-0.6v-1.6h0.4c0.2,0.4,0.5,0.6,0.9,0.8c0.4,0.2,0.7,0.3,1.1,0.3c0.3,0,0.5-0.1,0.6-0.2
		c0.2-0.1,0.3-0.3,0.3-0.5s-0.1-0.4-0.3-0.5c-0.2-0.2-0.6-0.3-1.2-0.4c-0.6-0.2-1-0.4-1.3-0.6c-0.3-0.3-0.4-0.6-0.4-0.9
		s0.1-0.5,0.2-0.7c0.1-0.2,0.3-0.3,0.6-0.4c0.2-0.1,0.5-0.2,0.8-0.2c0.6,0,1.2,0.2,1.6,0.7v-0.6H66v1.6h-0.4
		c-0.2-0.4-0.4-0.7-0.7-0.8c-0.3-0.2-0.6-0.3-0.9-0.3c-0.3,0-0.5,0.1-0.7,0.2S63,68.6,63,68.8s0.1,0.4,0.3,0.5
		C63.2,69.5,63.6,69.6,64.1,69.7z"/>
	<path class="st4" d="M109.5,93.5c-4.7,8-11.2,13.9-17.8,17c-6.7,3.1-13.5,3.4-18.9,0.2c-5.4-3.2-8.6-9.2-9.1-16.6
		c-0.6-7.3,1.4-15.9,6.1-23.9s11.2-13.9,17.8-17c6.7-3.1,13.5-3.4,18.9-0.2s8.6,9.2,9.1,16.6C116.1,76.9,114.1,85.5,109.5,93.5z"/>
	<path class="st8" d="M98.5,92.3c-2.4,4.2-5.9,7.2-9.5,8.7s-7.4,1.5-10.5-0.3s-4.9-5.1-5.4-9s0.4-8.4,2.9-12.6
		c2.4-4.2,5.9-7.2,9.5-8.7C89.2,69,92.9,69,96,70.8s4.9,5.1,5.4,9C101.9,83.7,101,88.2,98.5,92.3z"/>
</g>
<rect x="156.3" y="127.9" class="st9" width="120.7" height="11.9"/>
<path id="SVGID_x5F_1_x5F_" class="st9" d="M7.6,63C11.7,28.3,43.2,3.5,78,7.6s59.5,35.7,55.4,70.4c-4,34.7-35.6,59.6-70.4,55.4
	C28.3,129.3,3.5,97.7,7.6,63z"/>
<text><textPath  xlink:href="#SVGID_x5F_1_x5F_" startOffset="9.1957%">
<tspan  class="st11" style="font-family:'KozGoPr6N-Regular-90ms-RKSJ-H';">Alternative</tspan></textPath>
</text>
<text class="st10 st11"> </text>
<path id="SVGID_x5F_1_x5F__1_" class="st9" d="M66.3,138.8C31.5,135.7,5.7,105,8.8,70.1S42.7,9.6,77.5,12.6s60.6,33.8,57.5,68.7
	C131.9,116.1,101.1,141.9,66.3,138.8z"/>
</svg>
