<svg width="353" height="74" viewBox="0 0 353 74" fill="none" xmlns="http://www.w3.org/2000/svg">
<path d="M68.3378 26.7354C68.3378 32.2513 66.9205 37.2215 64.6554 40.797C62.3863 44.3787 59.3138 46.4999 56 46.4999C52.6863 46.4999 49.6137 44.3787 47.3447 40.797C45.0795 37.2215 43.6622 32.2513 43.6622 26.7354C43.6622 21.2195 45.0795 16.2494 47.3447 12.6739C49.6137 9.09217 52.6863 6.97095 56 6.97095C59.3138 6.97095 62.3863 9.09217 64.6554 12.6739C66.9205 16.2494 68.3378 21.2195 68.3378 26.7354Z" fill="white" stroke="black"/>
<path d="M80.5 13.4529C80.5 16.8956 77.8992 20.1261 73.4407 22.5252C69.0028 24.9134 62.8374 26.4058 56 26.4058C49.1626 26.4058 42.9972 24.9134 38.5593 22.5252C34.1009 20.1261 31.5 16.8956 31.5 13.4529C31.5 10.0102 34.1009 6.7797 38.5593 4.38056C42.9972 1.99242 49.1626 0.5 56 0.5C62.8374 0.5 69.0028 1.99242 73.4407 4.38056C77.8992 6.7797 80.5 10.0102 80.5 13.4529Z" fill="white" stroke="black"/>
<rect x="43.5" y="16.3478" width="25" height="10.8985" fill="white"/>
<path d="M65.8659 25.5434C65.8659 30.2653 64.7226 34.5159 62.9004 37.5693C61.072 40.6331 58.6165 42.413 56 42.413C53.3835 42.413 50.928 40.6331 49.0996 37.5693C47.2774 34.5159 46.1342 30.2653 46.1342 25.5434C46.1342 20.8215 47.2774 16.5709 49.0996 13.5175C50.928 10.4537 53.3835 8.67383 56 8.67383C58.6165 8.67383 61.072 10.4537 62.9004 13.5175C64.7226 16.5709 65.8659 20.8215 65.8659 25.5434Z" fill="#FF0000" stroke="black"/>
<path d="M76.0285 13.213C76.0285 15.659 73.9657 18.0174 70.2979 19.7941C66.6646 21.5539 61.6102 22.6564 56 22.6564C50.3899 22.6564 45.3354 21.5539 41.7022 19.7941C38.0343 18.0174 35.9716 15.659 35.9716 13.213C35.9716 10.767 38.0343 8.40852 41.7022 6.63189C45.3354 4.87203 50.3899 3.76953 56 3.76953C61.6102 3.76953 66.6646 4.87203 70.2979 6.63189C73.9657 8.40852 76.0285 10.767 76.0285 13.213Z" fill="#FF0000" stroke="black"/>
<rect x="45.2277" y="12.2609" width="21.5447" height="12.2609" rx="6.13043" fill="#FF0000"/>
<path d="M57.7759 19.6608C57.7759 21.6715 57.4439 23.4686 56.9255 24.7445C56.6659 25.3838 56.3692 25.8679 56.0654 26.1842C55.7629 26.4991 55.4864 26.6164 55.2471 26.6164C55.0078 26.6164 54.7313 26.4991 54.4288 26.1842C54.125 25.8679 53.8284 25.3838 53.5687 24.7445C53.0504 23.4686 52.7184 21.6715 52.7184 19.6608C52.7184 17.6501 53.0504 15.853 53.5687 14.5771C53.8284 13.9378 54.125 13.4537 54.4288 13.1374C54.7313 12.8225 55.0078 12.7052 55.2471 12.7052C55.4864 12.7052 55.7629 12.8225 56.0654 13.1374C56.3692 13.4537 56.6659 13.9378 56.9255 14.5771C57.4439 15.853 57.7759 17.6501 57.7759 19.6608Z" fill="white" stroke="black"/>
<path d="M64.0967 13.1371C64.0967 13.3888 63.9526 13.6991 63.5323 14.0479C63.115 14.3942 62.4813 14.7285 61.6541 15.0189C60.0043 15.598 57.6926 15.9655 55.1154 15.9655C52.5383 15.9655 50.2265 15.598 48.5768 15.0189C47.7496 14.7285 47.1158 14.3942 46.6986 14.0479C46.2783 13.6991 46.1342 13.3888 46.1342 13.1371C46.1342 12.8854 46.2783 12.5751 46.6986 12.2263C47.1158 11.88 47.7496 11.5457 48.5768 11.2554C50.2265 10.6762 52.5383 10.3087 55.1154 10.3087C57.6926 10.3087 60.0043 10.6762 61.6541 11.2554C62.4813 11.5457 63.115 11.88 63.5323 12.2263C63.9526 12.5751 64.0967 12.8854 64.0967 13.1371Z" fill="white" stroke="black"/>
<rect x="52.7451" y="15.933" width="5.00401" height="2.92899" fill="white"/>
<path d="M102.242 29.1602H110.328V31H99.9805V13.9375H102.242V29.1602ZM114.91 31H112.742V18.3203H114.91V31ZM112.566 14.957C112.566 14.6055 112.672 14.3086 112.883 14.0664C113.102 13.8242 113.422 13.7031 113.844 13.7031C114.266 13.7031 114.586 13.8242 114.805 14.0664C115.023 14.3086 115.133 14.6055 115.133 14.957C115.133 15.3086 115.023 15.6016 114.805 15.8359C114.586 16.0703 114.266 16.1875 113.844 16.1875C113.422 16.1875 113.102 16.0703 112.883 15.8359C112.672 15.6016 112.566 15.3086 112.566 14.957ZM122.574 28.0586L125.715 18.3203H127.93L123.383 31H121.73L117.137 18.3203H119.352L122.574 28.0586ZM135.113 31.2344C133.395 31.2344 131.996 30.6719 130.918 29.5469C129.84 28.4141 129.301 26.9023 129.301 25.0117V24.6133C129.301 23.3555 129.539 22.2344 130.016 21.25C130.5 20.2578 131.172 19.4844 132.031 18.9297C132.898 18.3672 133.836 18.0859 134.844 18.0859C136.492 18.0859 137.773 18.6289 138.688 19.7148C139.602 20.8008 140.059 22.3555 140.059 24.3789V25.2812H131.469C131.5 26.5312 131.863 27.543 132.559 28.3164C133.262 29.082 134.152 29.4648 135.23 29.4648C135.996 29.4648 136.645 29.3086 137.176 28.9961C137.707 28.6836 138.172 28.2695 138.57 27.7539L139.895 28.7852C138.832 30.418 137.238 31.2344 135.113 31.2344ZM134.844 19.8672C133.969 19.8672 133.234 20.1875 132.641 20.8281C132.047 21.4609 131.68 22.3516 131.539 23.5H137.891V23.3359C137.828 22.2344 137.531 21.3828 137 20.7812C136.469 20.1719 135.75 19.8672 134.844 19.8672ZM148.707 20.2656C148.379 20.2109 148.023 20.1836 147.641 20.1836C146.219 20.1836 145.254 20.7891 144.746 22V31H142.578V18.3203H144.688L144.723 19.7852C145.434 18.6523 146.441 18.0859 147.746 18.0859C148.168 18.0859 148.488 18.1406 148.707 18.25V20.2656Z" fill="black"/>
<path d="M228.543 24.3486H223.173V30H221.485V17.2031H229.413V18.5918H223.173V22.9688H228.543V24.3486ZM235.548 21.9492C235.302 21.9082 235.035 21.8877 234.748 21.8877C233.682 21.8877 232.958 22.3418 232.577 23.25V30H230.951V20.4902H232.533L232.56 21.5889C233.093 20.7393 233.849 20.3145 234.827 20.3145C235.144 20.3145 235.384 20.3555 235.548 20.4375V21.9492ZM240.821 30.1758C239.532 30.1758 238.483 29.7539 237.675 28.9102C236.866 28.0605 236.462 26.9268 236.462 25.5088V25.21C236.462 24.2666 236.641 23.4258 236.998 22.6875C237.361 21.9434 237.865 21.3633 238.51 20.9473C239.16 20.5254 239.863 20.3145 240.619 20.3145C241.855 20.3145 242.816 20.7217 243.502 21.5361C244.188 22.3506 244.53 23.5166 244.53 25.0342V25.7109H238.088C238.111 26.6484 238.384 27.4072 238.905 27.9873C239.433 28.5615 240.101 28.8486 240.909 28.8486C241.483 28.8486 241.97 28.7314 242.368 28.4971C242.767 28.2627 243.115 27.9521 243.414 27.5654L244.407 28.3389C243.61 29.5635 242.415 30.1758 240.821 30.1758ZM240.619 21.6504C239.963 21.6504 239.412 21.8906 238.967 22.3711C238.521 22.8457 238.246 23.5137 238.141 24.375H242.904V24.252C242.857 23.4258 242.635 22.7871 242.236 22.3359C241.838 21.8789 241.299 21.6504 240.619 21.6504ZM251.957 27.4775C251.957 27.0381 251.79 26.6982 251.456 26.458C251.128 26.2119 250.551 26.001 249.725 25.8252C248.904 25.6494 248.251 25.4385 247.765 25.1924C247.284 24.9463 246.927 24.6533 246.692 24.3135C246.464 23.9736 246.35 23.5693 246.35 23.1006C246.35 22.3213 246.678 21.6621 247.334 21.123C247.996 20.584 248.84 20.3145 249.865 20.3145C250.943 20.3145 251.816 20.5928 252.484 21.1494C253.158 21.7061 253.495 22.418 253.495 23.2852H251.86C251.86 22.8398 251.67 22.4561 251.289 22.1338C250.914 21.8115 250.439 21.6504 249.865 21.6504C249.273 21.6504 248.811 21.7793 248.477 22.0371C248.143 22.2949 247.976 22.6318 247.976 23.0479C247.976 23.4404 248.131 23.7363 248.441 23.9355C248.752 24.1348 249.312 24.3252 250.12 24.5068C250.935 24.6885 251.594 24.9053 252.098 25.1572C252.602 25.4092 252.974 25.7139 253.214 26.0713C253.46 26.4229 253.583 26.8535 253.583 27.3633C253.583 28.2129 253.243 28.8955 252.563 29.4111C251.884 29.9209 251.002 30.1758 249.918 30.1758C249.156 30.1758 248.482 30.041 247.896 29.7715C247.311 29.502 246.851 29.127 246.517 28.6465C246.188 28.1602 246.024 27.6357 246.024 27.0732H247.65C247.68 27.6182 247.896 28.0518 248.301 28.374C248.711 28.6904 249.25 28.8486 249.918 28.8486C250.533 28.8486 251.025 28.7256 251.395 28.4795C251.77 28.2275 251.957 27.8936 251.957 27.4775ZM257.327 21.6416C258.048 20.7568 258.985 20.3145 260.14 20.3145C262.149 20.3145 263.163 21.4482 263.181 23.7158V30H261.555V23.707C261.549 23.0215 261.391 22.5146 261.08 22.1865C260.775 21.8584 260.298 21.6943 259.647 21.6943C259.12 21.6943 258.657 21.835 258.259 22.1162C257.86 22.3975 257.55 22.7666 257.327 23.2236V30H255.701V16.5H257.327V21.6416Z" fill="#04B300"/>
<path d="M4 29H10V27H4V29ZM4 17V19H22V17H4ZM4 24H16V22H4V24Z" fill="black"/>
<rect y="66" width="351" height="8" rx="4" fill="#EAEAEA"/>
</svg>
