<svg width="136" height="133" viewBox="0 0 136 133" fill="none" xmlns="http://www.w3.org/2000/svg">
<circle cx="66.5" cy="66.5" r="66.5" fill="#DA4242"/>
<ellipse cx="67.0278" cy="65.9723" rx="59.6389" ry="59.6389" fill="#A82B2B" fill-opacity="0.78"/>
<g filter="url(#filter0_d)">
<path d="M71.3565 66.7569C71.3565 74.1606 69.4449 80.8399 66.3809 85.6527C63.313 90.4714 59.1363 93.3594 54.6016 93.3594C50.0669 93.3594 45.8902 90.4714 42.8223 85.6527C39.7583 80.8399 37.8467 74.1606 37.8467 66.7569C37.8467 59.3533 39.7583 52.674 42.8223 47.8612C45.8902 43.0425 50.0669 40.1545 54.6016 40.1545C59.1363 40.1545 63.313 43.0425 66.3809 47.8612C69.4449 52.674 71.3565 59.3533 71.3565 66.7569Z" fill="white" stroke="black"/>
<path d="M87.7032 48.9924C87.7032 53.6873 84.1413 58.0529 78.1255 61.2741C72.1307 64.484 63.8147 66.4847 54.6016 66.4847C45.3885 66.4847 37.0725 64.484 31.0777 61.2741C25.0619 58.0529 21.5 53.6873 21.5 48.9924C21.5 44.2974 25.0619 39.9318 31.0777 36.7106C37.0725 33.5007 45.3885 31.5 54.6016 31.5C63.8147 31.5 72.1307 33.5007 78.1255 36.7106C84.1413 39.9318 87.7032 44.2974 87.7032 48.9924Z" fill="white" stroke="black"/>
<rect x="37.8008" y="52.8641" width="33.6016" height="14.5761" fill="white"/>
<path d="M68.034 65.1626C68.034 71.5026 66.4917 77.2181 64.0245 81.332C61.5512 85.4559 58.2042 87.8933 54.6016 87.8933C50.999 87.8933 47.652 85.4559 45.1787 81.332C42.7115 77.2181 41.1692 71.5026 41.1692 65.1626C41.1692 58.8227 42.7115 53.1071 45.1787 48.9933C47.652 44.8694 50.999 42.432 54.6016 42.432C58.2042 42.432 61.5512 44.8694 64.0245 48.9933C66.4917 53.1071 68.034 58.8227 68.034 65.1626Z" fill="#FF0000" stroke="black"/>
<path d="M81.6932 48.6715C81.6932 52.0427 78.8417 55.2403 73.8947 57.6247C68.983 59.992 62.1625 61.4702 54.6016 61.4702C47.0407 61.4702 40.2202 59.992 35.3085 57.6247C30.3615 55.2403 27.51 52.0427 27.51 48.6715C27.51 45.3003 30.3615 42.1027 35.3085 39.7183C40.2202 37.351 47.0407 35.8728 54.6016 35.8728C62.1625 35.8728 68.983 37.351 73.8947 39.7183C78.8417 42.1027 81.6932 45.3003 81.6932 48.6715Z" fill="#FF0000" stroke="black"/>
<rect x="40.1229" y="47.3981" width="28.9575" height="16.3981" rx="8.19905" fill="#FF0000"/>
<path d="M57.1605 57.295C57.1605 60.0001 56.7119 62.4259 56.0053 64.1568C55.6514 65.0235 55.2427 65.6918 54.8145 66.1355C54.3876 66.5778 53.9738 66.7663 53.5897 66.7663C53.2055 66.7663 52.7917 66.5778 52.3649 66.1355C51.9366 65.6918 51.5279 65.0235 51.1741 64.1568C50.4674 62.4259 50.0188 60.0001 50.0188 57.295C50.0188 54.5899 50.4674 52.1641 51.1741 50.4331C51.5279 49.5664 51.9366 48.8981 52.3649 48.4544C52.7917 48.0122 53.2055 47.8236 53.5897 47.8236C53.9738 47.8236 54.3876 48.0122 54.8145 48.4544C55.2427 48.8981 55.6514 49.5664 56.0053 50.4331C56.7119 52.1641 57.1605 54.5899 57.1605 57.295Z" fill="white" stroke="black"/>
<path d="M65.6561 48.57C65.6561 48.9758 65.4219 49.4336 64.8363 49.9172C64.254 50.3982 63.3812 50.8536 62.2588 51.2457C60.0184 52.0283 56.8909 52.5215 53.4127 52.5215C49.9345 52.5215 46.8069 52.0283 44.5666 51.2457C43.4441 50.8536 42.5714 50.3982 41.9891 49.9172C41.4035 49.4336 41.1692 48.9758 41.1692 48.57C41.1692 48.1643 41.4035 47.7064 41.9891 47.2228C42.5714 46.7419 43.4441 46.2865 44.5666 45.8944C46.8069 45.1118 49.9345 44.6185 53.4127 44.6185C56.8909 44.6185 60.0184 45.1118 62.2588 45.8944C63.3812 46.2865 64.254 46.7419 64.8363 47.2228C65.4219 47.7064 65.6561 48.1643 65.6561 48.57Z" fill="white" stroke="black"/>
<rect x="50.2268" y="52.3093" width="6.72571" height="3.91732" fill="white"/>
<path d="M120.186 64.5213L93.028 64.5902L101.461 38.778L120.186 64.5213Z" fill="#7192A5" stroke="black"/>
<path d="M81.0574 85.4469C74.3591 90.3178 67.6348 93.7842 62.19 95.46C59.4652 96.2986 57.0883 96.6802 55.2086 96.5821C53.3234 96.4836 52.0203 95.91 51.3067 94.929C50.5931 93.9479 50.4489 92.5316 50.936 90.7081C51.4218 88.8897 52.5172 86.7464 54.1547 84.4128C57.4267 79.75 62.7967 74.4216 69.495 69.5507C76.1934 64.6798 82.9177 61.2134 88.3624 59.5377C91.0873 58.699 93.4641 58.3174 95.3439 58.4156C97.229 58.514 98.5322 59.0876 99.2458 60.0686C99.9594 61.0497 100.104 62.466 99.6165 64.2896C99.1307 66.1079 98.0353 68.2513 96.3978 70.5848C93.1258 75.2477 87.7558 80.576 81.0574 85.4469Z" fill="#61B0DC" stroke="black"/>
<path d="M72.393 84.0703L80.7231 80.6326L74.8857 87.4972L72.393 84.0703Z" fill="#7092A5" stroke="black"/>
<path d="M74.4255 87.9993C74.4252 87.9996 74.4244 88.0002 74.4222 88.0011C74.4198 88.0021 74.4148 88.0039 74.4059 88.0055C74.3876 88.0089 74.3535 88.0112 74.2999 88.0029C74.1887 87.9857 74.0298 87.9284 73.8318 87.8098C73.4376 87.5737 72.9736 87.1457 72.5561 86.5716C72.1385 85.9975 71.8742 85.4244 71.771 84.9765C71.7192 84.7516 71.7136 84.5829 71.7315 84.4719C71.7401 84.4183 71.7529 84.3866 71.7617 84.3702C71.7659 84.3622 71.7692 84.358 71.7709 84.3561C71.7724 84.3543 71.7733 84.3536 71.7736 84.3534C71.7739 84.3531 71.7748 84.3525 71.777 84.3516C71.7793 84.3507 71.7844 84.3488 71.7932 84.3472C71.8115 84.3439 71.8456 84.3416 71.8993 84.3499C72.0104 84.3671 72.1693 84.4243 72.3673 84.5429C72.7616 84.7791 73.2255 85.2071 73.6431 85.7812C74.0606 86.3552 74.3249 86.9284 74.4281 87.3762C74.48 87.6011 74.4855 87.7699 74.4676 87.8809C74.459 87.9345 74.4463 87.9662 74.4375 87.9826C74.4332 87.9905 74.4299 87.9948 74.4283 87.9967C74.4267 87.9985 74.4259 87.9991 74.4255 87.9993Z" fill="#7092A5" stroke="black"/>
<path d="M75.1331 82.9949L76.7532 85.2222L74.585 87.934L71.8849 84.2218L75.1331 82.9949Z" fill="#7092A5"/>
</g>
<defs>
<filter id="filter0_d" x="18" y="28" width="118" height="90" filterUnits="userSpaceOnUse" color-interpolation-filters="sRGB">
<feFlood flood-opacity="0" result="BackgroundImageFix"/>
<feColorMatrix in="SourceAlpha" type="matrix" values="0 0 0 0 0 0 0 0 0 0 0 0 0 0 0 0 0 0 127 0"/>
<feOffset dx="2" dy="2"/>
<feGaussianBlur stdDeviation="2.5"/>
<feColorMatrix type="matrix" values="0 0 0 0 0 0 0 0 0 0 0 0 0 0 0 0 0 0 0.25 0"/>
<feBlend mode="normal" in2="BackgroundImageFix" result="effect1_dropShadow"/>
<feBlend mode="normal" in="SourceGraphic" in2="effect1_dropShadow" result="shape"/>
</filter>
</defs>
</svg>
