<svg width="353" height="74" viewBox="0 0 353 74" fill="none" xmlns="http://www.w3.org/2000/svg">
<path d="M68.3378 26.7354C68.3378 32.2513 66.9205 37.2215 64.6554 40.797C62.3863 44.3787 59.3138 46.4999 56 46.4999C52.6863 46.4999 49.6137 44.3787 47.3447 40.797C45.0795 37.2215 43.6622 32.2513 43.6622 26.7354C43.6622 21.2195 45.0795 16.2494 47.3447 12.6739C49.6137 9.09217 52.6863 6.97095 56 6.97095C59.3138 6.97095 62.3863 9.09217 64.6554 12.6739C66.9205 16.2494 68.3378 21.2195 68.3378 26.7354Z" fill="white" stroke="black"/>
<path d="M80.5 13.4529C80.5 16.8956 77.8992 20.1261 73.4407 22.5252C69.0028 24.9134 62.8374 26.4058 56 26.4058C49.1626 26.4058 42.9972 24.9134 38.5593 22.5252C34.1009 20.1261 31.5 16.8956 31.5 13.4529C31.5 10.0102 34.1009 6.7797 38.5593 4.38056C42.9972 1.99242 49.1626 0.5 56 0.5C62.8374 0.5 69.0028 1.99242 73.4407 4.38056C77.8992 6.7797 80.5 10.0102 80.5 13.4529Z" fill="white" stroke="black"/>
<rect x="43.5" y="16.3478" width="25" height="10.8985" fill="white"/>
<path d="M65.8659 25.5434C65.8659 30.2653 64.7226 34.5159 62.9004 37.5693C61.072 40.6331 58.6165 42.413 56 42.413C53.3835 42.413 50.928 40.6331 49.0996 37.5693C47.2774 34.5159 46.1342 30.2653 46.1342 25.5434C46.1342 20.8215 47.2774 16.5709 49.0996 13.5175C50.928 10.4537 53.3835 8.67383 56 8.67383C58.6165 8.67383 61.072 10.4537 62.9004 13.5175C64.7226 16.5709 65.8659 20.8215 65.8659 25.5434Z" fill="#FF0000" stroke="black"/>
<path d="M76.0285 13.213C76.0285 15.659 73.9657 18.0174 70.2979 19.7941C66.6646 21.5539 61.6102 22.6564 56 22.6564C50.3899 22.6564 45.3354 21.5539 41.7022 19.7941C38.0343 18.0174 35.9716 15.659 35.9716 13.213C35.9716 10.767 38.0343 8.40852 41.7022 6.63189C45.3354 4.87203 50.3899 3.76953 56 3.76953C61.6102 3.76953 66.6646 4.87203 70.2979 6.63189C73.9657 8.40852 76.0285 10.767 76.0285 13.213Z" fill="#FF0000" stroke="black"/>
<rect x="45.2277" y="12.2609" width="21.5447" height="12.2609" rx="6.13043" fill="#FF0000"/>
<path d="M57.7759 19.6608C57.7759 21.6715 57.4439 23.4686 56.9255 24.7445C56.6659 25.3838 56.3692 25.8679 56.0654 26.1842C55.7629 26.4991 55.4864 26.6164 55.2471 26.6164C55.0078 26.6164 54.7313 26.4991 54.4288 26.1842C54.125 25.8679 53.8284 25.3838 53.5687 24.7445C53.0504 23.4686 52.7184 21.6715 52.7184 19.6608C52.7184 17.6501 53.0504 15.853 53.5687 14.5771C53.8284 13.9378 54.125 13.4537 54.4288 13.1374C54.7313 12.8225 55.0078 12.7052 55.2471 12.7052C55.4864 12.7052 55.7629 12.8225 56.0654 13.1374C56.3692 13.4537 56.6659 13.9378 56.9255 14.5771C57.4439 15.853 57.7759 17.6501 57.7759 19.6608Z" fill="white" stroke="black"/>
<path d="M64.0967 13.1371C64.0967 13.3888 63.9526 13.6991 63.5323 14.0479C63.115 14.3942 62.4813 14.7285 61.6541 15.0189C60.0043 15.598 57.6926 15.9655 55.1154 15.9655C52.5383 15.9655 50.2265 15.598 48.5768 15.0189C47.7496 14.7285 47.1158 14.3942 46.6986 14.0479C46.2783 13.6991 46.1342 13.3888 46.1342 13.1371C46.1342 12.8854 46.2783 12.5751 46.6986 12.2263C47.1158 11.88 47.7496 11.5457 48.5768 11.2554C50.2265 10.6762 52.5383 10.3087 55.1154 10.3087C57.6926 10.3087 60.0043 10.6762 61.6541 11.2554C62.4813 11.5457 63.115 11.88 63.5323 12.2263C63.9526 12.5751 64.0967 12.8854 64.0967 13.1371Z" fill="white" stroke="black"/>
<rect x="52.7451" y="15.933" width="5.00401" height="2.92899" fill="white"/>
<path d="M113.094 31H110.832V23.1133H102.23V31H99.9805V13.9375H102.23V21.2734H110.832V13.9375H113.094V31ZM116.176 24.543C116.176 23.3008 116.418 22.1836 116.902 21.1914C117.395 20.1992 118.074 19.4336 118.941 18.8945C119.816 18.3555 120.812 18.0859 121.93 18.0859C123.656 18.0859 125.051 18.6836 126.113 19.8789C127.184 21.0742 127.719 22.6641 127.719 24.6484V24.8008C127.719 26.0352 127.48 27.1445 127.004 28.1289C126.535 29.1055 125.859 29.8672 124.977 30.4141C124.102 30.9609 123.094 31.2344 121.953 31.2344C120.234 31.2344 118.84 30.6367 117.77 29.4414C116.707 28.2461 116.176 26.6641 116.176 24.6953V24.543ZM118.355 24.8008C118.355 26.207 118.68 27.3359 119.328 28.1875C119.984 29.0391 120.859 29.4648 121.953 29.4648C123.055 29.4648 123.93 29.0352 124.578 28.1758C125.227 27.3086 125.551 26.0977 125.551 24.543C125.551 23.1523 125.219 22.0273 124.555 21.168C123.898 20.3008 123.023 19.8672 121.93 19.8672C120.859 19.8672 119.996 20.293 119.34 21.1445C118.684 21.9961 118.355 23.2148 118.355 24.8008ZM133.379 15.25V18.3203H135.746V19.9961H133.379V27.8594C133.379 28.3672 133.484 28.75 133.695 29.0078C133.906 29.2578 134.266 29.3828 134.773 29.3828C135.023 29.3828 135.367 29.3359 135.805 29.2422V31C135.234 31.1562 134.68 31.2344 134.141 31.2344C133.172 31.2344 132.441 30.9414 131.949 30.3555C131.457 29.7695 131.211 28.9375 131.211 27.8594V19.9961H128.902V18.3203H131.211V15.25H133.379ZM144.582 31V13.9375H149.398C150.883 13.9375 152.195 14.2656 153.336 14.9219C154.477 15.5781 155.355 16.5117 155.973 17.7227C156.598 18.9336 156.914 20.3242 156.922 21.8945V22.9844C156.922 24.5938 156.609 26.0039 155.984 27.2148C155.367 28.4258 154.48 29.3555 153.324 30.0039C152.176 30.6523 150.836 30.9844 149.305 31H144.582ZM146.832 15.7891V29.1602H149.199C150.934 29.1602 152.281 28.6211 153.242 27.543C154.211 26.4648 154.695 24.9297 154.695 22.9375V21.9414C154.695 20.0039 154.238 18.5 153.324 17.4297C152.418 16.3516 151.129 15.8047 149.457 15.7891H146.832ZM159.418 24.543C159.418 23.3008 159.66 22.1836 160.145 21.1914C160.637 20.1992 161.316 19.4336 162.184 18.8945C163.059 18.3555 164.055 18.0859 165.172 18.0859C166.898 18.0859 168.293 18.6836 169.355 19.8789C170.426 21.0742 170.961 22.6641 170.961 24.6484V24.8008C170.961 26.0352 170.723 27.1445 170.246 28.1289C169.777 29.1055 169.102 29.8672 168.219 30.4141C167.344 30.9609 166.336 31.2344 165.195 31.2344C163.477 31.2344 162.082 30.6367 161.012 29.4414C159.949 28.2461 159.418 26.6641 159.418 24.6953V24.543ZM161.598 24.8008C161.598 26.207 161.922 27.3359 162.57 28.1875C163.227 29.0391 164.102 29.4648 165.195 29.4648C166.297 29.4648 167.172 29.0352 167.82 28.1758C168.469 27.3086 168.793 26.0977 168.793 24.543C168.793 23.1523 168.461 22.0273 167.797 21.168C167.141 20.3008 166.266 19.8672 165.172 19.8672C164.102 19.8672 163.238 20.293 162.582 21.1445C161.926 21.9961 161.598 23.2148 161.598 24.8008ZM173.164 24.5547C173.164 22.5781 173.621 21.0078 174.535 19.8438C175.449 18.6719 176.66 18.0859 178.168 18.0859C179.715 18.0859 180.922 18.6328 181.789 19.7266L181.895 18.3203H183.875V30.6953C183.875 32.3359 183.387 33.6289 182.41 34.5742C181.441 35.5195 180.137 35.9922 178.496 35.9922C177.582 35.9922 176.688 35.7969 175.812 35.4062C174.938 35.0156 174.27 34.4805 173.809 33.8008L174.934 32.5C175.863 33.6484 177 34.2227 178.344 34.2227C179.398 34.2227 180.219 33.9258 180.805 33.332C181.398 32.7383 181.695 31.9023 181.695 30.8242V29.7344C180.828 30.7344 179.645 31.2344 178.145 31.2344C176.66 31.2344 175.457 30.6367 174.535 29.4414C173.621 28.2461 173.164 26.6172 173.164 24.5547ZM175.344 24.8008C175.344 26.2305 175.637 27.3555 176.223 28.1758C176.809 28.9883 177.629 29.3945 178.684 29.3945C180.051 29.3945 181.055 28.7734 181.695 27.5312V21.7422C181.031 20.5312 180.035 19.9258 178.707 19.9258C177.652 19.9258 176.828 20.3359 176.234 21.1562C175.641 21.9766 175.344 23.1914 175.344 24.8008ZM194.539 27.6367C194.539 27.0508 194.316 26.5977 193.871 26.2773C193.434 25.9492 192.664 25.668 191.562 25.4336C190.469 25.1992 189.598 24.918 188.949 24.5898C188.309 24.2617 187.832 23.8711 187.52 23.418C187.215 22.9648 187.062 22.4258 187.062 21.8008C187.062 20.7617 187.5 19.8828 188.375 19.1641C189.258 18.4453 190.383 18.0859 191.75 18.0859C193.188 18.0859 194.352 18.457 195.242 19.1992C196.141 19.9414 196.59 20.8906 196.59 22.0469H194.41C194.41 21.4531 194.156 20.9414 193.648 20.5117C193.148 20.082 192.516 19.8672 191.75 19.8672C190.961 19.8672 190.344 20.0391 189.898 20.3828C189.453 20.7266 189.23 21.1758 189.23 21.7305C189.23 22.2539 189.438 22.6484 189.852 22.9141C190.266 23.1797 191.012 23.4336 192.09 23.6758C193.176 23.918 194.055 24.207 194.727 24.543C195.398 24.8789 195.895 25.2852 196.215 25.7617C196.543 26.2305 196.707 26.8047 196.707 27.4844C196.707 28.6172 196.254 29.5273 195.348 30.2148C194.441 30.8945 193.266 31.2344 191.82 31.2344C190.805 31.2344 189.906 31.0547 189.125 30.6953C188.344 30.3359 187.73 29.8359 187.285 29.1953C186.848 28.5469 186.629 27.8477 186.629 27.0977H188.797C188.836 27.8242 189.125 28.4023 189.664 28.832C190.211 29.2539 190.93 29.4648 191.82 29.4648C192.641 29.4648 193.297 29.3008 193.789 28.9727C194.289 28.6367 194.539 28.1914 194.539 27.6367Z" fill="black"/>
<path d="M228.543 24.3486H223.173V30H221.485V17.2031H229.413V18.5918H223.173V22.9688H228.543V24.3486ZM235.548 21.9492C235.302 21.9082 235.035 21.8877 234.748 21.8877C233.682 21.8877 232.958 22.3418 232.577 23.25V30H230.951V20.4902H232.533L232.56 21.5889C233.093 20.7393 233.849 20.3145 234.827 20.3145C235.144 20.3145 235.384 20.3555 235.548 20.4375V21.9492ZM240.821 30.1758C239.532 30.1758 238.483 29.7539 237.675 28.9102C236.866 28.0605 236.462 26.9268 236.462 25.5088V25.21C236.462 24.2666 236.641 23.4258 236.998 22.6875C237.361 21.9434 237.865 21.3633 238.51 20.9473C239.16 20.5254 239.863 20.3145 240.619 20.3145C241.855 20.3145 242.816 20.7217 243.502 21.5361C244.188 22.3506 244.53 23.5166 244.53 25.0342V25.7109H238.088C238.111 26.6484 238.384 27.4072 238.905 27.9873C239.433 28.5615 240.101 28.8486 240.909 28.8486C241.483 28.8486 241.97 28.7314 242.368 28.4971C242.767 28.2627 243.115 27.9521 243.414 27.5654L244.407 28.3389C243.61 29.5635 242.415 30.1758 240.821 30.1758ZM240.619 21.6504C239.963 21.6504 239.412 21.8906 238.967 22.3711C238.521 22.8457 238.246 23.5137 238.141 24.375H242.904V24.252C242.857 23.4258 242.635 22.7871 242.236 22.3359C241.838 21.8789 241.299 21.6504 240.619 21.6504ZM251.957 27.4775C251.957 27.0381 251.79 26.6982 251.456 26.458C251.128 26.2119 250.551 26.001 249.725 25.8252C248.904 25.6494 248.251 25.4385 247.765 25.1924C247.284 24.9463 246.927 24.6533 246.692 24.3135C246.464 23.9736 246.35 23.5693 246.35 23.1006C246.35 22.3213 246.678 21.6621 247.334 21.123C247.996 20.584 248.84 20.3145 249.865 20.3145C250.943 20.3145 251.816 20.5928 252.484 21.1494C253.158 21.7061 253.495 22.418 253.495 23.2852H251.86C251.86 22.8398 251.67 22.4561 251.289 22.1338C250.914 21.8115 250.439 21.6504 249.865 21.6504C249.273 21.6504 248.811 21.7793 248.477 22.0371C248.143 22.2949 247.976 22.6318 247.976 23.0479C247.976 23.4404 248.131 23.7363 248.441 23.9355C248.752 24.1348 249.312 24.3252 250.12 24.5068C250.935 24.6885 251.594 24.9053 252.098 25.1572C252.602 25.4092 252.974 25.7139 253.214 26.0713C253.46 26.4229 253.583 26.8535 253.583 27.3633C253.583 28.2129 253.243 28.8955 252.563 29.4111C251.884 29.9209 251.002 30.1758 249.918 30.1758C249.156 30.1758 248.482 30.041 247.896 29.7715C247.311 29.502 246.851 29.127 246.517 28.6465C246.188 28.1602 246.024 27.6357 246.024 27.0732H247.65C247.68 27.6182 247.896 28.0518 248.301 28.374C248.711 28.6904 249.25 28.8486 249.918 28.8486C250.533 28.8486 251.025 28.7256 251.395 28.4795C251.77 28.2275 251.957 27.8936 251.957 27.4775ZM257.327 21.6416C258.048 20.7568 258.985 20.3145 260.14 20.3145C262.149 20.3145 263.163 21.4482 263.181 23.7158V30H261.555V23.707C261.549 23.0215 261.391 22.5146 261.08 22.1865C260.775 21.8584 260.298 21.6943 259.647 21.6943C259.12 21.6943 258.657 21.835 258.259 22.1162C257.86 22.3975 257.55 22.7666 257.327 23.2236V30H255.701V16.5H257.327V21.6416Z" fill="#04B300"/>
<path d="M4 29H10V27H4V29ZM4 17V19H22V17H4ZM4 24H16V22H4V24Z" fill="black"/>
<rect y="66" width="351" height="8" rx="4" fill="#EAEAEA"/>
</svg>
