<svg width="133" height="133" viewBox="0 0 133 133" fill="none" xmlns="http://www.w3.org/2000/svg">
<circle cx="66.5" cy="66.5" r="66.5" fill="#824EF1"/>
<circle cx="66.5" cy="66.5" r="59.7229" fill="#6237BD" fill-opacity="0.57"/>
<g filter="url(#filter0_d)">
<path d="M101.266 47.0067C101.266 49.6687 99.1623 52.6831 94.4015 55.18C89.7583 57.6152 83.1707 59.1966 75.7572 59.1966C68.3437 59.1966 61.7561 57.6152 57.1129 55.18C52.3521 52.6831 50.2481 49.6687 50.2481 47.0067C50.2481 44.3447 52.3521 41.3302 57.1129 38.8333C61.7561 36.3981 68.3437 34.8168 75.7572 34.8168C83.1707 34.8168 89.7583 36.3981 94.4015 38.8333C99.1623 41.3302 101.266 44.3447 101.266 47.0067Z" fill="#FFBA50" stroke="black" stroke-width="5"/>
<rect x="56.1639" y="48.8483" width="39.1866" height="39.3616" fill="#FFBA50" stroke="black" stroke-width="3"/>
<rect x="57.0838" y="48.6328" width="37.3133" height="38.8938" fill="#FFBA50" stroke="#AD6900" stroke-width="3"/>
<path d="M100.031 47.1328C100.031 49.6486 98.0531 52.5225 93.5177 54.9151C89.0962 57.2476 82.8152 58.7657 75.7404 58.7657C68.6656 58.7657 62.3846 57.2476 57.9632 54.9151C53.4277 52.5225 51.4499 49.6486 51.4499 47.1328C51.4499 44.6171 53.4277 41.7432 57.9632 39.3506C62.3846 37.0181 68.6656 35.5 75.7404 35.5C82.8152 35.5 89.0962 37.0181 93.5177 39.3506C98.0531 41.7432 100.031 44.6171 100.031 47.1328Z" fill="#FFBA50" stroke="#AD6900" stroke-width="5"/>
<path d="M57.4302 51.4478H94.0842L93.7384 81.5108H57.776L57.4302 51.4478Z" fill="#FFBA50"/>
<rect x="0.4079" y="0.506713" width="0.920757" height="30.2855" transform="matrix(0.996394 0.109144 -0.110383 0.9915 56.7403 42.7664)" fill="#845033"/>
<rect x="0.4079" y="0.506713" width="0.920757" height="30.2855" transform="matrix(0.996394 0.109144 -0.110383 0.9915 56.7403 42.7664)" fill="#845033"/>
<rect x="0.4079" y="0.506713" width="0.920757" height="30.2855" transform="matrix(0.996394 0.109144 -0.110383 0.9915 56.7403 42.7664)" fill="#845033"/>
<rect x="0.4079" y="0.506713" width="0.920757" height="30.2855" transform="matrix(0.996394 0.109144 -0.110383 0.9915 56.7403 42.7664)" stroke="black" stroke-width="0.920757"/>
<rect x="0.505323" y="0.412237" width="0.921538" height="30.258" transform="matrix(0.99664 -0.0987632 0.100055 0.993436 47.8132 43.7799)" fill="#845033"/>
<rect x="0.505323" y="0.412237" width="0.921538" height="30.258" transform="matrix(0.99664 -0.0987632 0.100055 0.993436 47.8132 43.7799)" fill="#845033"/>
<rect x="0.505323" y="0.412237" width="0.921538" height="30.258" transform="matrix(0.99664 -0.0987632 0.100055 0.993436 47.8132 43.7799)" fill="#845033"/>
<rect x="0.505323" y="0.412237" width="0.921538" height="30.258" transform="matrix(0.99664 -0.0987632 0.100055 0.993436 47.8132 43.7799)" stroke="black" stroke-width="0.921538"/>
<path d="M39.2045 68.0429L39.7274 68.3106L39.9086 67.7552C40.6539 65.4713 41.8159 64.0037 43.1464 63.1676C44.4766 62.3316 46.0216 62.0974 47.5902 62.3634C50.7465 62.8985 53.9543 65.4581 55.4294 69.0625C58.3916 76.3007 54.8787 84.5553 47.575 87.4962C40.2713 90.4372 31.9518 86.9472 28.9896 79.709C27.5031 76.0768 27.7272 71.8922 29.4657 69.2771C30.326 67.9831 31.5519 67.0761 33.1378 66.7788C34.7321 66.48 36.7511 66.7866 39.2045 68.0429Z" fill="white" stroke="black"/>
<path d="M54.864 68.9834L55.3869 69.2512L55.5682 68.6958C56.3135 66.4119 57.4754 64.9442 58.8059 64.1081C60.1361 63.2722 61.6811 63.038 63.2497 63.3039C66.4061 63.839 69.6138 66.3987 71.0889 70.0031C74.0512 77.2413 70.5382 85.4958 63.2345 88.4368C55.9308 91.3777 47.6114 87.8877 44.6491 80.6495C43.1626 77.0173 43.3867 72.8328 45.1253 70.2176C45.9856 68.9236 47.2114 68.0166 48.7973 67.7194C50.3916 67.4206 52.4106 67.7271 54.864 68.9834Z" fill="white" stroke="black"/>
<path d="M33.8714 79.3527L34.3943 79.6204L34.5755 79.0651C35.3208 76.7811 36.4828 75.3135 37.8133 74.4774C39.1435 73.6414 40.6885 73.4073 42.2571 73.6732C45.4134 74.2083 48.6212 76.7679 50.0963 80.3723C53.0585 87.6105 49.5456 95.8651 42.2419 98.806C34.9382 101.747 26.6187 98.257 23.6565 91.0188C22.17 87.3866 22.3941 83.202 24.1326 80.5869C24.9929 79.2929 26.2188 78.3859 27.8047 78.0887C29.399 77.7898 31.418 78.0964 33.8714 79.3527Z" fill="white" stroke="black"/>
<mask id="path-13-inside-1" fill="white">
<path d="M72.2261 71.4616C73.2899 74.0611 73.7091 76.8904 73.4599 79.7881C73.2107 82.6857 72.2978 85.595 70.7735 88.3498C69.2491 91.1045 67.1431 93.6509 64.5757 95.8434C62.0083 98.0358 59.0298 99.8316 55.8102 101.128C52.5907 102.424 49.1931 103.196 45.8115 103.399C42.4299 103.602 39.1305 103.232 36.1017 102.311C33.0728 101.39 30.3739 99.9347 28.159 98.0292C25.9441 96.1238 24.2566 93.8052 23.1928 91.2058L47.7094 81.3337L72.2261 71.4616Z"/>
</mask>
<path d="M72.2261 71.4616C73.2899 74.0611 73.7091 76.8904 73.4599 79.7881C73.2107 82.6857 72.2978 85.595 70.7735 88.3498C69.2491 91.1045 67.1431 93.6509 64.5757 95.8434C62.0083 98.0358 59.0298 99.8316 55.8102 101.128C52.5907 102.424 49.1931 103.196 45.8115 103.399C42.4299 103.602 39.1305 103.232 36.1017 102.311C33.0728 101.39 30.3739 99.9347 28.159 98.0292C25.9441 96.1238 24.2566 93.8052 23.1928 91.2058L47.7094 81.3337L72.2261 71.4616Z" fill="#CE7DFF" stroke="black" stroke-width="2" mask="url(#path-13-inside-1)"/>
</g>
<defs>
<filter id="filter0_d" x="7" y="29.3168" width="103.766" height="88.6832" filterUnits="userSpaceOnUse" color-interpolation-filters="sRGB">
<feFlood flood-opacity="0" result="BackgroundImageFix"/>
<feColorMatrix in="SourceAlpha" type="matrix" values="0 0 0 0 0 0 0 0 0 0 0 0 0 0 0 0 0 0 127 0"/>
<feOffset dx="2" dy="2"/>
<feGaussianBlur stdDeviation="2.5"/>
<feColorMatrix type="matrix" values="0 0 0 0 0 0 0 0 0 0 0 0 0 0 0 0 0 0 0.25 0"/>
<feBlend mode="normal" in2="BackgroundImageFix" result="effect1_dropShadow"/>
<feBlend mode="normal" in="SourceGraphic" in2="effect1_dropShadow" result="shape"/>
</filter>
</defs>
</svg>
