<svg width="132" height="132" viewBox="0 0 132 132" fill="none" xmlns="http://www.w3.org/2000/svg">
<path d="M132 66C132 102.451 102.451 132 66 132C29.5492 132 0 102.451 0 66C0 29.5492 29.5492 0 66 0C102.451 0 132 29.5492 132 66Z" fill="#A2E989"/>
<path d="M125.597 66C125.597 98.6425 99.135 125.104 66.4925 125.104C33.85 125.104 7.38806 98.6425 7.38806 66C7.38806 33.3575 33.85 6.89551 66.4925 6.89551C99.135 6.89551 125.597 33.3575 125.597 66Z" fill="#7DCB61" fill-opacity="0.67"/>
<g filter="url(#filter0_d)">
<path d="M85.6835 67.3214C85.6835 81.5069 73.1474 93.0777 57.5918 93.0777C42.0361 93.0777 29.5 81.5069 29.5 67.3214C29.5 53.1358 42.0361 41.5651 57.5918 41.5651C73.1474 41.5651 85.6835 53.1358 85.6835 67.3214Z" fill="#FF5C00" stroke="black"/>
<rect x="0.658028" y="0.25805" width="1.12932" height="6.81343" rx="0.564661" transform="matrix(0.916289 -0.400517 0.399767 0.916617 43.2489 42.0572)" fill="#7FFF00" stroke="black"/>
<path d="M68.5683 30.3639C69.6457 30.3984 70.9198 30.4392 72.5032 30.453C72.3298 30.6478 72.1622 30.8363 72 31.0189C69.9309 33.3464 68.7256 34.7022 67.2386 35.8202C65.4867 37.1373 63.3337 38.1282 58.8688 39.9164C54.4372 41.6914 50.2643 42.8513 47.107 43.2981C45.5244 43.522 44.2254 43.5624 43.2867 43.4259C42.3065 43.2834 41.905 42.9789 41.7945 42.7025C41.6841 42.4261 41.765 41.9285 42.3766 41.1484C42.9621 40.4014 43.9306 39.5337 45.2307 38.603C47.8245 36.7463 51.6451 34.7047 56.0767 32.9297C60.534 31.1445 62.51 30.5445 64.5482 30.3709C65.5754 30.2834 66.6287 30.3034 68.0446 30.3473C68.2141 30.3525 68.3884 30.3581 68.5683 30.3639Z" fill="#80FF00" stroke="black"/>
<path d="M105.078 60.6017C101.622 66.1478 94.5915 67.9535 89.3915 64.7135C84.1915 61.4735 82.7144 54.3665 86.1703 48.8205C89.6262 43.2744 96.6572 41.4686 101.857 44.7087C107.057 47.9487 108.534 55.0556 105.078 60.6017Z" fill="#56AC00" stroke="black"/>
<path d="M79.0894 102.309C75.6334 107.855 68.6025 109.661 63.4025 106.421C58.2025 103.181 56.7254 96.0736 60.1813 90.5275C63.6372 84.9814 70.6682 83.1757 75.8682 86.4157C81.0682 89.6557 82.5453 96.7626 79.0894 102.309Z" fill="#56AC00" stroke="black"/>
<rect width="23.2781" height="49.1417" transform="matrix(0.84873 0.528826 -0.528858 0.84871 85.7459 48.556)" fill="#56AC00"/>
<line y1="-0.5" x2="49.1417" y2="-0.5" transform="matrix(0.528858 -0.84871 0.84873 0.528826 79.5137 102.573)" stroke="black"/>
<line y1="-0.5" x2="49.1417" y2="-0.5" transform="matrix(0.528858 -0.84871 0.84873 0.528826 60.3057 90.6051)" stroke="black"/>
<line y1="-1" x2="72.4194" y2="-1" transform="matrix(0.528858 -0.84871 0.84873 0.528826 64.0288 106.638)" stroke="black" stroke-width="2"/>
<line y1="-1" x2="49.1417" y2="-1" transform="matrix(0.528858 -0.84871 0.84873 0.528826 65.2449 93.6826)" stroke="black" stroke-width="2"/>
<path d="M101.78 44.8331C99.5063 44.8134 94.1047 46.1458 90.6851 51.6336" stroke="black" stroke-width="2"/>
<path d="M101.78 44.8331C102.799 46.8651 103.983 52.3009 100.564 57.7886" stroke="black" stroke-width="2"/>
<path d="M63.4801 106.296C62.4606 104.264 61.2765 98.8284 64.6961 93.3406" stroke="black" stroke-width="2"/>
<path d="M63.48 106.296C65.7534 106.316 71.1549 104.983 74.5745 99.4957" stroke="black" stroke-width="2"/>
<line y1="-1" x2="49.1417" y2="-1" transform="matrix(0.528858 -0.84871 0.84873 0.528826 75.1233 99.8376)" stroke="black" stroke-width="2"/>
</g>
<defs>
<filter id="filter0_d" x="26" y="23" width="93" height="97" filterUnits="userSpaceOnUse" color-interpolation-filters="sRGB">
<feFlood flood-opacity="0" result="BackgroundImageFix"/>
<feColorMatrix in="SourceAlpha" type="matrix" values="0 0 0 0 0 0 0 0 0 0 0 0 0 0 0 0 0 0 127 0"/>
<feOffset dx="2" dy="2"/>
<feGaussianBlur stdDeviation="2.5"/>
<feColorMatrix type="matrix" values="0 0 0 0 0 0 0 0 0 0 0 0 0 0 0 0 0 0 0.25 0"/>
<feBlend mode="normal" in2="BackgroundImageFix" result="effect1_dropShadow"/>
<feBlend mode="normal" in="SourceGraphic" in2="effect1_dropShadow" result="shape"/>
</filter>
</defs>
</svg>
