<svg width="353" height="74" viewBox="0 0 353 74" fill="none" xmlns="http://www.w3.org/2000/svg">
<path d="M68.3378 26.7354C68.3378 32.2513 66.9205 37.2215 64.6554 40.797C62.3863 44.3787 59.3138 46.4999 56 46.4999C52.6863 46.4999 49.6137 44.3787 47.3447 40.797C45.0795 37.2215 43.6622 32.2513 43.6622 26.7354C43.6622 21.2195 45.0795 16.2494 47.3447 12.6739C49.6137 9.09217 52.6863 6.97095 56 6.97095C59.3138 6.97095 62.3863 9.09217 64.6554 12.6739C66.9205 16.2494 68.3378 21.2195 68.3378 26.7354Z" fill="white" stroke="black"/>
<path d="M80.5 13.4529C80.5 16.8956 77.8992 20.1261 73.4407 22.5252C69.0028 24.9134 62.8374 26.4058 56 26.4058C49.1626 26.4058 42.9972 24.9134 38.5593 22.5252C34.1009 20.1261 31.5 16.8956 31.5 13.4529C31.5 10.0102 34.1009 6.7797 38.5593 4.38056C42.9972 1.99242 49.1626 0.5 56 0.5C62.8374 0.5 69.0028 1.99242 73.4407 4.38056C77.8992 6.7797 80.5 10.0102 80.5 13.4529Z" fill="white" stroke="black"/>
<rect x="43.5" y="16.3478" width="25" height="10.8985" fill="white"/>
<path d="M65.8659 25.5434C65.8659 30.2653 64.7226 34.5159 62.9004 37.5693C61.072 40.6331 58.6165 42.413 56 42.413C53.3835 42.413 50.928 40.6331 49.0996 37.5693C47.2774 34.5159 46.1342 30.2653 46.1342 25.5434C46.1342 20.8215 47.2774 16.5709 49.0996 13.5175C50.928 10.4537 53.3835 8.67383 56 8.67383C58.6165 8.67383 61.072 10.4537 62.9004 13.5175C64.7226 16.5709 65.8659 20.8215 65.8659 25.5434Z" fill="#FF0000" stroke="black"/>
<path d="M76.0285 13.213C76.0285 15.659 73.9657 18.0174 70.2979 19.7941C66.6646 21.5539 61.6102 22.6564 56 22.6564C50.3899 22.6564 45.3354 21.5539 41.7022 19.7941C38.0343 18.0174 35.9716 15.659 35.9716 13.213C35.9716 10.767 38.0343 8.40852 41.7022 6.63189C45.3354 4.87203 50.3899 3.76953 56 3.76953C61.6102 3.76953 66.6646 4.87203 70.2979 6.63189C73.9657 8.40852 76.0285 10.767 76.0285 13.213Z" fill="#FF0000" stroke="black"/>
<rect x="45.2277" y="12.2609" width="21.5447" height="12.2609" rx="6.13043" fill="#FF0000"/>
<path d="M57.7759 19.6608C57.7759 21.6715 57.4439 23.4686 56.9255 24.7445C56.6659 25.3838 56.3692 25.8679 56.0654 26.1842C55.7629 26.4991 55.4864 26.6164 55.2471 26.6164C55.0078 26.6164 54.7313 26.4991 54.4288 26.1842C54.125 25.8679 53.8284 25.3838 53.5687 24.7445C53.0504 23.4686 52.7184 21.6715 52.7184 19.6608C52.7184 17.6501 53.0504 15.853 53.5687 14.5771C53.8284 13.9378 54.125 13.4537 54.4288 13.1374C54.7313 12.8225 55.0078 12.7052 55.2471 12.7052C55.4864 12.7052 55.7629 12.8225 56.0654 13.1374C56.3692 13.4537 56.6659 13.9378 56.9255 14.5771C57.4439 15.853 57.7759 17.6501 57.7759 19.6608Z" fill="white" stroke="black"/>
<path d="M64.0967 13.1371C64.0967 13.3888 63.9526 13.6991 63.5323 14.0479C63.115 14.3942 62.4813 14.7285 61.6541 15.0189C60.0043 15.598 57.6926 15.9655 55.1154 15.9655C52.5383 15.9655 50.2265 15.598 48.5768 15.0189C47.7496 14.7285 47.1158 14.3942 46.6986 14.0479C46.2783 13.6991 46.1342 13.3888 46.1342 13.1371C46.1342 12.8854 46.2783 12.5751 46.6986 12.2263C47.1158 11.88 47.7496 11.5457 48.5768 11.2554C50.2265 10.6762 52.5383 10.3087 55.1154 10.3087C57.6926 10.3087 60.0043 10.6762 61.6541 11.2554C62.4813 11.5457 63.115 11.88 63.5323 12.2263C63.9526 12.5751 64.0967 12.8854 64.0967 13.1371Z" fill="white" stroke="black"/>
<rect x="52.7451" y="15.933" width="5.00401" height="2.92899" fill="white"/>
<path d="M102.887 13.9375L108.465 27.8594L114.043 13.9375H116.961V31H114.711V24.3555L114.922 17.1836L109.32 31H107.598L102.008 17.2188L102.23 24.3555V31H99.9805V13.9375H102.887ZM125.855 31.2344C124.137 31.2344 122.738 30.6719 121.66 29.5469C120.582 28.4141 120.043 26.9023 120.043 25.0117V24.6133C120.043 23.3555 120.281 22.2344 120.758 21.25C121.242 20.2578 121.914 19.4844 122.773 18.9297C123.641 18.3672 124.578 18.0859 125.586 18.0859C127.234 18.0859 128.516 18.6289 129.43 19.7148C130.344 20.8008 130.801 22.3555 130.801 24.3789V25.2812H122.211C122.242 26.5312 122.605 27.543 123.301 28.3164C124.004 29.082 124.895 29.4648 125.973 29.4648C126.738 29.4648 127.387 29.3086 127.918 28.9961C128.449 28.6836 128.914 28.2695 129.312 27.7539L130.637 28.7852C129.574 30.418 127.98 31.2344 125.855 31.2344ZM125.586 19.8672C124.711 19.8672 123.977 20.1875 123.383 20.8281C122.789 21.4609 122.422 22.3516 122.281 23.5H128.633V23.3359C128.57 22.2344 128.273 21.3828 127.742 20.7812C127.211 20.1719 126.492 19.8672 125.586 19.8672ZM141.148 31C141.023 30.75 140.922 30.3047 140.844 29.6641C139.836 30.7109 138.633 31.2344 137.234 31.2344C135.984 31.2344 134.957 30.8828 134.152 30.1797C133.355 29.4688 132.957 28.5703 132.957 27.4844C132.957 26.1641 133.457 25.1406 134.457 24.4141C135.465 23.6797 136.879 23.3125 138.699 23.3125H140.809V22.3164C140.809 21.5586 140.582 20.957 140.129 20.5117C139.676 20.0586 139.008 19.832 138.125 19.832C137.352 19.832 136.703 20.0273 136.18 20.418C135.656 20.8086 135.395 21.2812 135.395 21.8359H133.215C133.215 21.2031 133.438 20.5938 133.883 20.0078C134.336 19.4141 134.945 18.9453 135.711 18.6016C136.484 18.2578 137.332 18.0859 138.254 18.0859C139.715 18.0859 140.859 18.4531 141.688 19.1875C142.516 19.9141 142.945 20.918 142.977 22.1992V28.0352C142.977 29.1992 143.125 30.125 143.422 30.8125V31H141.148ZM137.551 29.3477C138.23 29.3477 138.875 29.1719 139.484 28.8203C140.094 28.4688 140.535 28.0117 140.809 27.4492V24.8477H139.109C136.453 24.8477 135.125 25.625 135.125 27.1797C135.125 27.8594 135.352 28.3906 135.805 28.7734C136.258 29.1562 136.84 29.3477 137.551 29.3477ZM149.316 15.25V18.3203H151.684V19.9961H149.316V27.8594C149.316 28.3672 149.422 28.75 149.633 29.0078C149.844 29.2578 150.203 29.3828 150.711 29.3828C150.961 29.3828 151.305 29.3359 151.742 29.2422V31C151.172 31.1562 150.617 31.2344 150.078 31.2344C149.109 31.2344 148.379 30.9414 147.887 30.3555C147.395 29.7695 147.148 28.9375 147.148 27.8594V19.9961H144.84V18.3203H147.148V15.25H149.316ZM164.961 24.8008C164.961 26.7383 164.516 28.2969 163.625 29.4766C162.734 30.6484 161.539 31.2344 160.039 31.2344C158.438 31.2344 157.199 30.668 156.324 29.5352L156.219 31H154.227V13H156.395V19.7148C157.27 18.6289 158.477 18.0859 160.016 18.0859C161.555 18.0859 162.762 18.668 163.637 19.832C164.52 20.9961 164.961 22.5898 164.961 24.6133V24.8008ZM162.793 24.5547C162.793 23.0781 162.508 21.9375 161.938 21.1328C161.367 20.3281 160.547 19.9258 159.477 19.9258C158.047 19.9258 157.02 20.5898 156.395 21.918V27.4023C157.059 28.7305 158.094 29.3945 159.5 29.3945C160.539 29.3945 161.348 28.9922 161.926 28.1875C162.504 27.3828 162.793 26.1719 162.793 24.5547ZM175.531 31C175.406 30.75 175.305 30.3047 175.227 29.6641C174.219 30.7109 173.016 31.2344 171.617 31.2344C170.367 31.2344 169.34 30.8828 168.535 30.1797C167.738 29.4688 167.34 28.5703 167.34 27.4844C167.34 26.1641 167.84 25.1406 168.84 24.4141C169.848 23.6797 171.262 23.3125 173.082 23.3125H175.191V22.3164C175.191 21.5586 174.965 20.957 174.512 20.5117C174.059 20.0586 173.391 19.832 172.508 19.832C171.734 19.832 171.086 20.0273 170.562 20.418C170.039 20.8086 169.777 21.2812 169.777 21.8359H167.598C167.598 21.2031 167.82 20.5938 168.266 20.0078C168.719 19.4141 169.328 18.9453 170.094 18.6016C170.867 18.2578 171.715 18.0859 172.637 18.0859C174.098 18.0859 175.242 18.4531 176.07 19.1875C176.898 19.9141 177.328 20.918 177.359 22.1992V28.0352C177.359 29.1992 177.508 30.125 177.805 30.8125V31H175.531ZM171.934 29.3477C172.613 29.3477 173.258 29.1719 173.867 28.8203C174.477 28.4688 174.918 28.0117 175.191 27.4492V24.8477H173.492C170.836 24.8477 169.508 25.625 169.508 27.1797C169.508 27.8594 169.734 28.3906 170.188 28.7734C170.641 29.1562 171.223 29.3477 171.934 29.3477ZM183.113 31H180.945V13H183.113V31ZM188.949 31H186.781V13H188.949V31ZM192.477 29.8633C192.477 29.4883 192.586 29.1758 192.805 28.9258C193.031 28.6758 193.367 28.5508 193.812 28.5508C194.258 28.5508 194.594 28.6758 194.82 28.9258C195.055 29.1758 195.172 29.4883 195.172 29.8633C195.172 30.2227 195.055 30.5234 194.82 30.7656C194.594 31.0078 194.258 31.1289 193.812 31.1289C193.367 31.1289 193.031 31.0078 192.805 30.7656C192.586 30.5234 192.477 30.2227 192.477 29.8633ZM198.805 29.8633C198.805 29.4883 198.914 29.1758 199.133 28.9258C199.359 28.6758 199.695 28.5508 200.141 28.5508C200.586 28.5508 200.922 28.6758 201.148 28.9258C201.383 29.1758 201.5 29.4883 201.5 29.8633C201.5 30.2227 201.383 30.5234 201.148 30.7656C200.922 31.0078 200.586 31.1289 200.141 31.1289C199.695 31.1289 199.359 31.0078 199.133 30.7656C198.914 30.5234 198.805 30.2227 198.805 29.8633ZM205.133 29.8633C205.133 29.4883 205.242 29.1758 205.461 28.9258C205.688 28.6758 206.023 28.5508 206.469 28.5508C206.914 28.5508 207.25 28.6758 207.477 28.9258C207.711 29.1758 207.828 29.4883 207.828 29.8633C207.828 30.2227 207.711 30.5234 207.477 30.7656C207.25 31.0078 206.914 31.1289 206.469 31.1289C206.023 31.1289 205.688 31.0078 205.461 30.7656C205.242 30.5234 205.133 30.2227 205.133 29.8633Z" fill="black"/>
<path d="M228.719 24.085H223.173V28.6201H229.615V30H221.485V17.2031H229.527V18.5918H223.173V22.7051H228.719V24.085ZM234.651 23.9619L236.761 20.4902H238.659L235.548 25.1924L238.756 30H236.875L234.678 26.4404L232.48 30H230.591L233.799 25.1924L230.688 20.4902H232.568L234.651 23.9619ZM248.424 25.3506C248.424 26.7979 248.093 27.9639 247.431 28.8486C246.769 29.7334 245.872 30.1758 244.741 30.1758C243.587 30.1758 242.679 29.8096 242.017 29.0771V33.6562H240.391V20.4902H241.876L241.955 21.5449C242.617 20.7246 243.537 20.3145 244.715 20.3145C245.857 20.3145 246.76 20.7451 247.422 21.6064C248.09 22.4678 248.424 23.666 248.424 25.2012V25.3506ZM246.798 25.166C246.798 24.0938 246.569 23.2471 246.112 22.626C245.655 22.0049 245.028 21.6943 244.231 21.6943C243.247 21.6943 242.509 22.1309 242.017 23.0039V27.5479C242.503 28.415 243.247 28.8486 244.249 28.8486C245.028 28.8486 245.646 28.541 246.104 27.9258C246.566 27.3047 246.798 26.3848 246.798 25.166ZM252.265 30H250.639V20.4902H252.265V30ZM250.507 17.9678C250.507 17.7041 250.586 17.4814 250.744 17.2998C250.908 17.1182 251.148 17.0273 251.465 17.0273C251.781 17.0273 252.021 17.1182 252.186 17.2998C252.35 17.4814 252.432 17.7041 252.432 17.9678C252.432 18.2314 252.35 18.4512 252.186 18.627C252.021 18.8027 251.781 18.8906 251.465 18.8906C251.148 18.8906 250.908 18.8027 250.744 18.627C250.586 18.4512 250.507 18.2314 250.507 17.9678ZM259.472 21.9492C259.226 21.9082 258.959 21.8877 258.672 21.8877C257.605 21.8877 256.882 22.3418 256.501 23.25V30H254.875V20.4902H256.457L256.483 21.5889C257.017 20.7393 257.772 20.3145 258.751 20.3145C259.067 20.3145 259.308 20.3555 259.472 20.4375V21.9492ZM264.745 30.1758C263.456 30.1758 262.407 29.7539 261.599 28.9102C260.79 28.0605 260.386 26.9268 260.386 25.5088V25.21C260.386 24.2666 260.564 23.4258 260.922 22.6875C261.285 21.9434 261.789 21.3633 262.434 20.9473C263.084 20.5254 263.787 20.3145 264.543 20.3145C265.779 20.3145 266.74 20.7217 267.426 21.5361C268.111 22.3506 268.454 23.5166 268.454 25.0342V25.7109H262.012C262.035 26.6484 262.308 27.4072 262.829 27.9873C263.356 28.5615 264.024 28.8486 264.833 28.8486C265.407 28.8486 265.894 28.7314 266.292 28.4971C266.69 28.2627 267.039 27.9521 267.338 27.5654L268.331 28.3389C267.534 29.5635 266.339 30.1758 264.745 30.1758ZM264.543 21.6504C263.887 21.6504 263.336 21.8906 262.891 22.3711C262.445 22.8457 262.17 23.5137 262.064 24.375H266.828V24.252C266.781 23.4258 266.559 22.7871 266.16 22.3359C265.762 21.8789 265.223 21.6504 264.543 21.6504ZM275.881 27.4775C275.881 27.0381 275.714 26.6982 275.38 26.458C275.052 26.2119 274.475 26.001 273.648 25.8252C272.828 25.6494 272.175 25.4385 271.688 25.1924C271.208 24.9463 270.851 24.6533 270.616 24.3135C270.388 23.9736 270.273 23.5693 270.273 23.1006C270.273 22.3213 270.602 21.6621 271.258 21.123C271.92 20.584 272.764 20.3145 273.789 20.3145C274.867 20.3145 275.74 20.5928 276.408 21.1494C277.082 21.7061 277.419 22.418 277.419 23.2852H275.784C275.784 22.8398 275.594 22.4561 275.213 22.1338C274.838 21.8115 274.363 21.6504 273.789 21.6504C273.197 21.6504 272.734 21.7793 272.4 22.0371C272.066 22.2949 271.899 22.6318 271.899 23.0479C271.899 23.4404 272.055 23.7363 272.365 23.9355C272.676 24.1348 273.235 24.3252 274.044 24.5068C274.858 24.6885 275.518 24.9053 276.021 25.1572C276.525 25.4092 276.897 25.7139 277.138 26.0713C277.384 26.4229 277.507 26.8535 277.507 27.3633C277.507 28.2129 277.167 28.8955 276.487 29.4111C275.808 29.9209 274.926 30.1758 273.842 30.1758C273.08 30.1758 272.406 30.041 271.82 29.7715C271.234 29.502 270.774 29.127 270.44 28.6465C270.112 28.1602 269.948 27.6357 269.948 27.0732H271.574C271.604 27.6182 271.82 28.0518 272.225 28.374C272.635 28.6904 273.174 28.8486 273.842 28.8486C274.457 28.8486 274.949 28.7256 275.318 28.4795C275.693 28.2275 275.881 27.8936 275.881 27.4775ZM289.627 27.4775C289.627 27.0381 289.46 26.6982 289.126 26.458C288.798 26.2119 288.221 26.001 287.395 25.8252C286.574 25.6494 285.921 25.4385 285.435 25.1924C284.954 24.9463 284.597 24.6533 284.362 24.3135C284.134 23.9736 284.02 23.5693 284.02 23.1006C284.02 22.3213 284.348 21.6621 285.004 21.123C285.666 20.584 286.51 20.3145 287.535 20.3145C288.613 20.3145 289.486 20.5928 290.154 21.1494C290.828 21.7061 291.165 22.418 291.165 23.2852H289.53C289.53 22.8398 289.34 22.4561 288.959 22.1338C288.584 21.8115 288.109 21.6504 287.535 21.6504C286.943 21.6504 286.48 21.7793 286.146 22.0371C285.812 22.2949 285.646 22.6318 285.646 23.0479C285.646 23.4404 285.801 23.7363 286.111 23.9355C286.422 24.1348 286.981 24.3252 287.79 24.5068C288.604 24.6885 289.264 24.9053 289.768 25.1572C290.271 25.4092 290.644 25.7139 290.884 26.0713C291.13 26.4229 291.253 26.8535 291.253 27.3633C291.253 28.2129 290.913 28.8955 290.233 29.4111C289.554 29.9209 288.672 30.1758 287.588 30.1758C286.826 30.1758 286.152 30.041 285.566 29.7715C284.98 29.502 284.521 29.127 284.187 28.6465C283.858 28.1602 283.694 27.6357 283.694 27.0732H285.32C285.35 27.6182 285.566 28.0518 285.971 28.374C286.381 28.6904 286.92 28.8486 287.588 28.8486C288.203 28.8486 288.695 28.7256 289.064 28.4795C289.439 28.2275 289.627 27.8936 289.627 27.4775ZM292.94 25.1572C292.94 24.2256 293.122 23.3877 293.485 22.6436C293.854 21.8994 294.364 21.3252 295.015 20.9209C295.671 20.5166 296.418 20.3145 297.256 20.3145C298.551 20.3145 299.597 20.7627 300.394 21.6592C301.196 22.5557 301.598 23.748 301.598 25.2363V25.3506C301.598 26.2764 301.419 27.1084 301.062 27.8467C300.71 28.5791 300.203 29.1504 299.541 29.5605C298.885 29.9707 298.129 30.1758 297.273 30.1758C295.984 30.1758 294.938 29.7275 294.136 28.8311C293.339 27.9346 292.94 26.748 292.94 25.2715V25.1572ZM294.575 25.3506C294.575 26.4053 294.818 27.252 295.305 27.8906C295.797 28.5293 296.453 28.8486 297.273 28.8486C298.1 28.8486 298.756 28.5264 299.242 27.8818C299.729 27.2314 299.972 26.3232 299.972 25.1572C299.972 24.1143 299.723 23.2705 299.225 22.626C298.732 21.9756 298.076 21.6504 297.256 21.6504C296.453 21.6504 295.806 21.9697 295.313 22.6084C294.821 23.2471 294.575 24.1611 294.575 25.3506ZM303.206 25.1572C303.206 24.2256 303.388 23.3877 303.751 22.6436C304.12 21.8994 304.63 21.3252 305.28 20.9209C305.937 20.5166 306.684 20.3145 307.521 20.3145C308.816 20.3145 309.862 20.7627 310.659 21.6592C311.462 22.5557 311.863 23.748 311.863 25.2363V25.3506C311.863 26.2764 311.685 27.1084 311.327 27.8467C310.976 28.5791 310.469 29.1504 309.807 29.5605C309.15 29.9707 308.395 30.1758 307.539 30.1758C306.25 30.1758 305.204 29.7275 304.401 28.8311C303.604 27.9346 303.206 26.748 303.206 25.2715V25.1572ZM304.841 25.3506C304.841 26.4053 305.084 27.252 305.57 27.8906C306.062 28.5293 306.719 28.8486 307.539 28.8486C308.365 28.8486 309.021 28.5264 309.508 27.8818C309.994 27.2314 310.237 26.3232 310.237 25.1572C310.237 24.1143 309.988 23.2705 309.49 22.626C308.998 21.9756 308.342 21.6504 307.521 21.6504C306.719 21.6504 306.071 21.9697 305.579 22.6084C305.087 23.2471 304.841 24.1611 304.841 25.3506ZM315.44 20.4902L315.493 21.6855C316.22 20.7715 317.169 20.3145 318.341 20.3145C320.351 20.3145 321.364 21.4482 321.382 23.7158V30H319.756V23.707C319.75 23.0215 319.592 22.5146 319.281 22.1865C318.977 21.8584 318.499 21.6943 317.849 21.6943C317.321 21.6943 316.858 21.835 316.46 22.1162C316.062 22.3975 315.751 22.7666 315.528 23.2236V30H313.902V20.4902H315.44ZM325.653 26.3877H324.186L324.071 17.2031H325.776L325.653 26.3877ZM324.01 29.1826C324.01 28.9189 324.089 28.6992 324.247 28.5234C324.411 28.3418 324.651 28.251 324.968 28.251C325.284 28.251 325.524 28.3418 325.688 28.5234C325.853 28.6992 325.935 28.9189 325.935 29.1826C325.935 29.4463 325.853 29.666 325.688 29.8418C325.524 30.0117 325.284 30.0967 324.968 30.0967C324.651 30.0967 324.411 30.0117 324.247 29.8418C324.089 29.666 324.01 29.4463 324.01 29.1826Z" fill="#EF8F00"/>
<path d="M4 29H10V27H4V29ZM4 17V19H22V17H4ZM4 24H16V22H4V24Z" fill="black"/>
<rect y="66" width="351" height="8" rx="4" fill="#EAEAEA"/>
</svg>
