<svg width="353" height="74" viewBox="0 0 353 74" fill="none" xmlns="http://www.w3.org/2000/svg">
<path d="M68.3378 26.7354C68.3378 32.2513 66.9205 37.2215 64.6554 40.797C62.3863 44.3787 59.3138 46.4999 56 46.4999C52.6863 46.4999 49.6137 44.3787 47.3447 40.797C45.0795 37.2215 43.6622 32.2513 43.6622 26.7354C43.6622 21.2195 45.0795 16.2494 47.3447 12.6739C49.6137 9.09217 52.6863 6.97095 56 6.97095C59.3138 6.97095 62.3863 9.09217 64.6554 12.6739C66.9205 16.2494 68.3378 21.2195 68.3378 26.7354Z" fill="white" stroke="black"/>
<path d="M80.5 13.4529C80.5 16.8956 77.8992 20.1261 73.4407 22.5252C69.0028 24.9134 62.8374 26.4058 56 26.4058C49.1626 26.4058 42.9972 24.9134 38.5593 22.5252C34.1009 20.1261 31.5 16.8956 31.5 13.4529C31.5 10.0102 34.1009 6.7797 38.5593 4.38056C42.9972 1.99242 49.1626 0.5 56 0.5C62.8374 0.5 69.0028 1.99242 73.4407 4.38056C77.8992 6.7797 80.5 10.0102 80.5 13.4529Z" fill="white" stroke="black"/>
<rect x="43.5" y="16.3478" width="25" height="10.8985" fill="white"/>
<path d="M65.8659 25.5434C65.8659 30.2653 64.7226 34.5159 62.9004 37.5693C61.072 40.6331 58.6165 42.413 56 42.413C53.3835 42.413 50.928 40.6331 49.0996 37.5693C47.2774 34.5159 46.1342 30.2653 46.1342 25.5434C46.1342 20.8215 47.2774 16.5709 49.0996 13.5175C50.928 10.4537 53.3835 8.67383 56 8.67383C58.6165 8.67383 61.072 10.4537 62.9004 13.5175C64.7226 16.5709 65.8659 20.8215 65.8659 25.5434Z" fill="#FF0000" stroke="black"/>
<path d="M76.0285 13.213C76.0285 15.659 73.9657 18.0174 70.2979 19.7941C66.6646 21.5539 61.6102 22.6564 56 22.6564C50.3899 22.6564 45.3354 21.5539 41.7022 19.7941C38.0343 18.0174 35.9716 15.659 35.9716 13.213C35.9716 10.767 38.0343 8.40852 41.7022 6.63189C45.3354 4.87203 50.3899 3.76953 56 3.76953C61.6102 3.76953 66.6646 4.87203 70.2979 6.63189C73.9657 8.40852 76.0285 10.767 76.0285 13.213Z" fill="#FF0000" stroke="black"/>
<rect x="45.2277" y="12.2609" width="21.5447" height="12.2609" rx="6.13043" fill="#FF0000"/>
<path d="M57.7759 19.6608C57.7759 21.6715 57.4439 23.4686 56.9255 24.7445C56.6659 25.3838 56.3692 25.8679 56.0654 26.1842C55.7629 26.4991 55.4864 26.6164 55.2471 26.6164C55.0078 26.6164 54.7313 26.4991 54.4288 26.1842C54.125 25.8679 53.8284 25.3838 53.5687 24.7445C53.0504 23.4686 52.7184 21.6715 52.7184 19.6608C52.7184 17.6501 53.0504 15.853 53.5687 14.5771C53.8284 13.9378 54.125 13.4537 54.4288 13.1374C54.7313 12.8225 55.0078 12.7052 55.2471 12.7052C55.4864 12.7052 55.7629 12.8225 56.0654 13.1374C56.3692 13.4537 56.6659 13.9378 56.9255 14.5771C57.4439 15.853 57.7759 17.6501 57.7759 19.6608Z" fill="white" stroke="black"/>
<path d="M64.0967 13.1371C64.0967 13.3888 63.9526 13.6991 63.5323 14.0479C63.115 14.3942 62.4813 14.7285 61.6541 15.0189C60.0043 15.598 57.6926 15.9655 55.1154 15.9655C52.5383 15.9655 50.2265 15.598 48.5768 15.0189C47.7496 14.7285 47.1158 14.3942 46.6986 14.0479C46.2783 13.6991 46.1342 13.3888 46.1342 13.1371C46.1342 12.8854 46.2783 12.5751 46.6986 12.2263C47.1158 11.88 47.7496 11.5457 48.5768 11.2554C50.2265 10.6762 52.5383 10.3087 55.1154 10.3087C57.6926 10.3087 60.0043 10.6762 61.6541 11.2554C62.4813 11.5457 63.115 11.88 63.5323 12.2263C63.9526 12.5751 64.0967 12.8854 64.0967 13.1371Z" fill="white" stroke="black"/>
<rect x="52.7451" y="15.933" width="5.00401" height="2.92899" fill="white"/>
<path d="M99.9805 31V13.9375H105.559C107.41 13.9375 108.801 14.3203 109.73 15.0859C110.668 15.8516 111.137 16.9844 111.137 18.4844C111.137 19.2812 110.91 19.9883 110.457 20.6055C110.004 21.2148 109.387 21.6875 108.605 22.0234C109.527 22.2812 110.254 22.7734 110.785 23.5C111.324 24.2188 111.594 25.0781 111.594 26.0781C111.594 27.6094 111.098 28.8125 110.105 29.6875C109.113 30.5625 107.711 31 105.898 31H99.9805ZM102.23 23.0195V29.1602H105.945C106.992 29.1602 107.816 28.8906 108.418 28.3516C109.027 27.8047 109.332 27.0547 109.332 26.1016C109.332 24.0469 108.215 23.0195 105.98 23.0195H102.23ZM102.23 21.2148H105.629C106.613 21.2148 107.398 20.9688 107.984 20.4766C108.578 19.9844 108.875 19.3164 108.875 18.4727C108.875 17.5352 108.602 16.8555 108.055 16.4336C107.508 16.0039 106.676 15.7891 105.559 15.7891H102.23V21.2148ZM122.422 29.7461C121.578 30.7383 120.34 31.2344 118.707 31.2344C117.355 31.2344 116.324 30.8438 115.613 30.0625C114.91 29.2734 114.555 28.1094 114.547 26.5703V18.3203H116.715V26.5117C116.715 28.4336 117.496 29.3945 119.059 29.3945C120.715 29.3945 121.816 28.7773 122.363 27.543V18.3203H124.531V31H122.469L122.422 29.7461ZM133.965 20.2656C133.637 20.2109 133.281 20.1836 132.898 20.1836C131.477 20.1836 130.512 20.7891 130.004 22V31H127.836V18.3203H129.945L129.98 19.7852C130.691 18.6523 131.699 18.0859 133.004 18.0859C133.426 18.0859 133.746 18.1406 133.965 18.25V20.2656ZM135.219 24.5547C135.219 22.5781 135.676 21.0078 136.59 19.8438C137.504 18.6719 138.715 18.0859 140.223 18.0859C141.77 18.0859 142.977 18.6328 143.844 19.7266L143.949 18.3203H145.93V30.6953C145.93 32.3359 145.441 33.6289 144.465 34.5742C143.496 35.5195 142.191 35.9922 140.551 35.9922C139.637 35.9922 138.742 35.7969 137.867 35.4062C136.992 35.0156 136.324 34.4805 135.863 33.8008L136.988 32.5C137.918 33.6484 139.055 34.2227 140.398 34.2227C141.453 34.2227 142.273 33.9258 142.859 33.332C143.453 32.7383 143.75 31.9023 143.75 30.8242V29.7344C142.883 30.7344 141.699 31.2344 140.199 31.2344C138.715 31.2344 137.512 30.6367 136.59 29.4414C135.676 28.2461 135.219 26.6172 135.219 24.5547ZM137.398 24.8008C137.398 26.2305 137.691 27.3555 138.277 28.1758C138.863 28.9883 139.684 29.3945 140.738 29.3945C142.105 29.3945 143.109 28.7734 143.75 27.5312V21.7422C143.086 20.5312 142.09 19.9258 140.762 19.9258C139.707 19.9258 138.883 20.3359 138.289 21.1562C137.695 21.9766 137.398 23.1914 137.398 24.8008ZM154.473 31.2344C152.754 31.2344 151.355 30.6719 150.277 29.5469C149.199 28.4141 148.66 26.9023 148.66 25.0117V24.6133C148.66 23.3555 148.898 22.2344 149.375 21.25C149.859 20.2578 150.531 19.4844 151.391 18.9297C152.258 18.3672 153.195 18.0859 154.203 18.0859C155.852 18.0859 157.133 18.6289 158.047 19.7148C158.961 20.8008 159.418 22.3555 159.418 24.3789V25.2812H150.828C150.859 26.5312 151.223 27.543 151.918 28.3164C152.621 29.082 153.512 29.4648 154.59 29.4648C155.355 29.4648 156.004 29.3086 156.535 28.9961C157.066 28.6836 157.531 28.2695 157.93 27.7539L159.254 28.7852C158.191 30.418 156.598 31.2344 154.473 31.2344ZM154.203 19.8672C153.328 19.8672 152.594 20.1875 152 20.8281C151.406 21.4609 151.039 22.3516 150.898 23.5H157.25V23.3359C157.188 22.2344 156.891 21.3828 156.359 20.7812C155.828 20.1719 155.109 19.8672 154.203 19.8672ZM168.066 20.2656C167.738 20.2109 167.383 20.1836 167 20.1836C165.578 20.1836 164.613 20.7891 164.105 22V31H161.938V18.3203H164.047L164.082 19.7852C164.793 18.6523 165.801 18.0859 167.105 18.0859C167.527 18.0859 167.848 18.1406 168.066 18.25V20.2656ZM177.453 27.6367C177.453 27.0508 177.23 26.5977 176.785 26.2773C176.348 25.9492 175.578 25.668 174.477 25.4336C173.383 25.1992 172.512 24.918 171.863 24.5898C171.223 24.2617 170.746 23.8711 170.434 23.418C170.129 22.9648 169.977 22.4258 169.977 21.8008C169.977 20.7617 170.414 19.8828 171.289 19.1641C172.172 18.4453 173.297 18.0859 174.664 18.0859C176.102 18.0859 177.266 18.457 178.156 19.1992C179.055 19.9414 179.504 20.8906 179.504 22.0469H177.324C177.324 21.4531 177.07 20.9414 176.562 20.5117C176.062 20.082 175.43 19.8672 174.664 19.8672C173.875 19.8672 173.258 20.0391 172.812 20.3828C172.367 20.7266 172.145 21.1758 172.145 21.7305C172.145 22.2539 172.352 22.6484 172.766 22.9141C173.18 23.1797 173.926 23.4336 175.004 23.6758C176.09 23.918 176.969 24.207 177.641 24.543C178.312 24.8789 178.809 25.2852 179.129 25.7617C179.457 26.2305 179.621 26.8047 179.621 27.4844C179.621 28.6172 179.168 29.5273 178.262 30.2148C177.355 30.8945 176.18 31.2344 174.734 31.2344C173.719 31.2344 172.82 31.0547 172.039 30.6953C171.258 30.3359 170.645 29.8359 170.199 29.1953C169.762 28.5469 169.543 27.8477 169.543 27.0977H171.711C171.75 27.8242 172.039 28.4023 172.578 28.832C173.125 29.2539 173.844 29.4648 174.734 29.4648C175.555 29.4648 176.211 29.3008 176.703 28.9727C177.203 28.6367 177.453 28.1914 177.453 27.6367Z" fill="black"/>
<path d="M228.543 24.3486H223.173V30H221.485V17.2031H229.413V18.5918H223.173V22.9688H228.543V24.3486ZM235.548 21.9492C235.302 21.9082 235.035 21.8877 234.748 21.8877C233.682 21.8877 232.958 22.3418 232.577 23.25V30H230.951V20.4902H232.533L232.56 21.5889C233.093 20.7393 233.849 20.3145 234.827 20.3145C235.144 20.3145 235.384 20.3555 235.548 20.4375V21.9492ZM240.821 30.1758C239.532 30.1758 238.483 29.7539 237.675 28.9102C236.866 28.0605 236.462 26.9268 236.462 25.5088V25.21C236.462 24.2666 236.641 23.4258 236.998 22.6875C237.361 21.9434 237.865 21.3633 238.51 20.9473C239.16 20.5254 239.863 20.3145 240.619 20.3145C241.855 20.3145 242.816 20.7217 243.502 21.5361C244.188 22.3506 244.53 23.5166 244.53 25.0342V25.7109H238.088C238.111 26.6484 238.384 27.4072 238.905 27.9873C239.433 28.5615 240.101 28.8486 240.909 28.8486C241.483 28.8486 241.97 28.7314 242.368 28.4971C242.767 28.2627 243.115 27.9521 243.414 27.5654L244.407 28.3389C243.61 29.5635 242.415 30.1758 240.821 30.1758ZM240.619 21.6504C239.963 21.6504 239.412 21.8906 238.967 22.3711C238.521 22.8457 238.246 23.5137 238.141 24.375H242.904V24.252C242.857 23.4258 242.635 22.7871 242.236 22.3359C241.838 21.8789 241.299 21.6504 240.619 21.6504ZM251.957 27.4775C251.957 27.0381 251.79 26.6982 251.456 26.458C251.128 26.2119 250.551 26.001 249.725 25.8252C248.904 25.6494 248.251 25.4385 247.765 25.1924C247.284 24.9463 246.927 24.6533 246.692 24.3135C246.464 23.9736 246.35 23.5693 246.35 23.1006C246.35 22.3213 246.678 21.6621 247.334 21.123C247.996 20.584 248.84 20.3145 249.865 20.3145C250.943 20.3145 251.816 20.5928 252.484 21.1494C253.158 21.7061 253.495 22.418 253.495 23.2852H251.86C251.86 22.8398 251.67 22.4561 251.289 22.1338C250.914 21.8115 250.439 21.6504 249.865 21.6504C249.273 21.6504 248.811 21.7793 248.477 22.0371C248.143 22.2949 247.976 22.6318 247.976 23.0479C247.976 23.4404 248.131 23.7363 248.441 23.9355C248.752 24.1348 249.312 24.3252 250.12 24.5068C250.935 24.6885 251.594 24.9053 252.098 25.1572C252.602 25.4092 252.974 25.7139 253.214 26.0713C253.46 26.4229 253.583 26.8535 253.583 27.3633C253.583 28.2129 253.243 28.8955 252.563 29.4111C251.884 29.9209 251.002 30.1758 249.918 30.1758C249.156 30.1758 248.482 30.041 247.896 29.7715C247.311 29.502 246.851 29.127 246.517 28.6465C246.188 28.1602 246.024 27.6357 246.024 27.0732H247.65C247.68 27.6182 247.896 28.0518 248.301 28.374C248.711 28.6904 249.25 28.8486 249.918 28.8486C250.533 28.8486 251.025 28.7256 251.395 28.4795C251.77 28.2275 251.957 27.8936 251.957 27.4775ZM257.327 21.6416C258.048 20.7568 258.985 20.3145 260.14 20.3145C262.149 20.3145 263.163 21.4482 263.181 23.7158V30H261.555V23.707C261.549 23.0215 261.391 22.5146 261.08 22.1865C260.775 21.8584 260.298 21.6943 259.647 21.6943C259.12 21.6943 258.657 21.835 258.259 22.1162C257.86 22.3975 257.55 22.7666 257.327 23.2236V30H255.701V16.5H257.327V21.6416Z" fill="#04B300"/>
<path d="M4 29H10V27H4V29ZM4 17V19H22V17H4ZM4 24H16V22H4V24Z" fill="black"/>
<rect y="66" width="351" height="8" rx="4" fill="#EAEAEA"/>
</svg>
