<svg width="353" height="74" viewBox="0 0 353 74" fill="none" xmlns="http://www.w3.org/2000/svg">
<path d="M68.3378 26.7354C68.3378 32.2513 66.9205 37.2215 64.6554 40.797C62.3863 44.3787 59.3138 46.4999 56 46.4999C52.6863 46.4999 49.6137 44.3787 47.3447 40.797C45.0795 37.2215 43.6622 32.2513 43.6622 26.7354C43.6622 21.2195 45.0795 16.2494 47.3447 12.6739C49.6137 9.09217 52.6863 6.97095 56 6.97095C59.3138 6.97095 62.3863 9.09217 64.6554 12.6739C66.9205 16.2494 68.3378 21.2195 68.3378 26.7354Z" fill="white" stroke="black"/>
<path d="M80.5 13.4529C80.5 16.8956 77.8992 20.1261 73.4407 22.5252C69.0028 24.9134 62.8374 26.4058 56 26.4058C49.1626 26.4058 42.9972 24.9134 38.5593 22.5252C34.1009 20.1261 31.5 16.8956 31.5 13.4529C31.5 10.0102 34.1009 6.7797 38.5593 4.38056C42.9972 1.99242 49.1626 0.5 56 0.5C62.8374 0.5 69.0028 1.99242 73.4407 4.38056C77.8992 6.7797 80.5 10.0102 80.5 13.4529Z" fill="white" stroke="black"/>
<rect x="43.5" y="16.3478" width="25" height="10.8985" fill="white"/>
<path d="M65.8659 25.5434C65.8659 30.2653 64.7226 34.5159 62.9004 37.5693C61.072 40.6331 58.6165 42.413 56 42.413C53.3835 42.413 50.928 40.6331 49.0996 37.5693C47.2774 34.5159 46.1342 30.2653 46.1342 25.5434C46.1342 20.8215 47.2774 16.5709 49.0996 13.5175C50.928 10.4537 53.3835 8.67383 56 8.67383C58.6165 8.67383 61.072 10.4537 62.9004 13.5175C64.7226 16.5709 65.8659 20.8215 65.8659 25.5434Z" fill="#FF0000" stroke="black"/>
<path d="M76.0285 13.213C76.0285 15.659 73.9657 18.0174 70.2979 19.7941C66.6646 21.5539 61.6102 22.6564 56 22.6564C50.3899 22.6564 45.3354 21.5539 41.7022 19.7941C38.0343 18.0174 35.9716 15.659 35.9716 13.213C35.9716 10.767 38.0343 8.40852 41.7022 6.63189C45.3354 4.87203 50.3899 3.76953 56 3.76953C61.6102 3.76953 66.6646 4.87203 70.2979 6.63189C73.9657 8.40852 76.0285 10.767 76.0285 13.213Z" fill="#FF0000" stroke="black"/>
<rect x="45.2277" y="12.2609" width="21.5447" height="12.2609" rx="6.13043" fill="#FF0000"/>
<path d="M57.7759 19.6608C57.7759 21.6715 57.4439 23.4686 56.9255 24.7445C56.6659 25.3838 56.3692 25.8679 56.0654 26.1842C55.7629 26.4991 55.4864 26.6164 55.2471 26.6164C55.0078 26.6164 54.7313 26.4991 54.4288 26.1842C54.125 25.8679 53.8284 25.3838 53.5687 24.7445C53.0504 23.4686 52.7184 21.6715 52.7184 19.6608C52.7184 17.6501 53.0504 15.853 53.5687 14.5771C53.8284 13.9378 54.125 13.4537 54.4288 13.1374C54.7313 12.8225 55.0078 12.7052 55.2471 12.7052C55.4864 12.7052 55.7629 12.8225 56.0654 13.1374C56.3692 13.4537 56.6659 13.9378 56.9255 14.5771C57.4439 15.853 57.7759 17.6501 57.7759 19.6608Z" fill="white" stroke="black"/>
<path d="M64.0967 13.1371C64.0967 13.3888 63.9526 13.6991 63.5323 14.0479C63.115 14.3942 62.4813 14.7285 61.6541 15.0189C60.0043 15.598 57.6926 15.9655 55.1154 15.9655C52.5383 15.9655 50.2265 15.598 48.5768 15.0189C47.7496 14.7285 47.1158 14.3942 46.6986 14.0479C46.2783 13.6991 46.1342 13.3888 46.1342 13.1371C46.1342 12.8854 46.2783 12.5751 46.6986 12.2263C47.1158 11.88 47.7496 11.5457 48.5768 11.2554C50.2265 10.6762 52.5383 10.3087 55.1154 10.3087C57.6926 10.3087 60.0043 10.6762 61.6541 11.2554C62.4813 11.5457 63.115 11.88 63.5323 12.2263C63.9526 12.5751 64.0967 12.8854 64.0967 13.1371Z" fill="white" stroke="black"/>
<rect x="52.7451" y="15.933" width="5.00401" height="2.92899" fill="white"/>
<path d="M105.008 23.3945C103.078 22.8398 101.672 22.1602 100.789 21.3555C99.9141 20.543 99.4766 19.543 99.4766 18.3555C99.4766 17.0117 100.012 15.9023 101.082 15.0273C102.16 14.1445 103.559 13.7031 105.277 13.7031C106.449 13.7031 107.492 13.9297 108.406 14.3828C109.328 14.8359 110.039 15.4609 110.539 16.2578C111.047 17.0547 111.301 17.9258 111.301 18.8711H109.039C109.039 17.8398 108.711 17.0312 108.055 16.4453C107.398 15.8516 106.473 15.5547 105.277 15.5547C104.168 15.5547 103.301 15.8008 102.676 16.293C102.059 16.7773 101.75 17.4531 101.75 18.3203C101.75 19.0156 102.043 19.6055 102.629 20.0898C103.223 20.5664 104.227 21.0039 105.641 21.4023C107.062 21.8008 108.172 22.2422 108.969 22.7266C109.773 23.2031 110.367 23.7617 110.75 24.4023C111.141 25.043 111.336 25.7969 111.336 26.6641C111.336 28.0469 110.797 29.1562 109.719 29.9922C108.641 30.8203 107.199 31.2344 105.395 31.2344C104.223 31.2344 103.129 31.0117 102.113 30.5664C101.098 30.1133 100.312 29.4961 99.7578 28.7148C99.2109 27.9336 98.9375 27.0469 98.9375 26.0547H101.199C101.199 27.0859 101.578 27.9023 102.336 28.5039C103.102 29.0977 104.121 29.3945 105.395 29.3945C106.582 29.3945 107.492 29.1523 108.125 28.668C108.758 28.1836 109.074 27.5234 109.074 26.6875C109.074 25.8516 108.781 25.207 108.195 24.7539C107.609 24.293 106.547 23.8398 105.008 23.3945ZM121.719 31C121.594 30.75 121.492 30.3047 121.414 29.6641C120.406 30.7109 119.203 31.2344 117.805 31.2344C116.555 31.2344 115.527 30.8828 114.723 30.1797C113.926 29.4688 113.527 28.5703 113.527 27.4844C113.527 26.1641 114.027 25.1406 115.027 24.4141C116.035 23.6797 117.449 23.3125 119.27 23.3125H121.379V22.3164C121.379 21.5586 121.152 20.957 120.699 20.5117C120.246 20.0586 119.578 19.832 118.695 19.832C117.922 19.832 117.273 20.0273 116.75 20.418C116.227 20.8086 115.965 21.2812 115.965 21.8359H113.785C113.785 21.2031 114.008 20.5938 114.453 20.0078C114.906 19.4141 115.516 18.9453 116.281 18.6016C117.055 18.2578 117.902 18.0859 118.824 18.0859C120.285 18.0859 121.43 18.4531 122.258 19.1875C123.086 19.9141 123.516 20.918 123.547 22.1992V28.0352C123.547 29.1992 123.695 30.125 123.992 30.8125V31H121.719ZM118.121 29.3477C118.801 29.3477 119.445 29.1719 120.055 28.8203C120.664 28.4688 121.105 28.0117 121.379 27.4492V24.8477H119.68C117.023 24.8477 115.695 25.625 115.695 27.1797C115.695 27.8594 115.922 28.3906 116.375 28.7734C116.828 29.1562 117.41 29.3477 118.121 29.3477ZM134.773 29.7461C133.93 30.7383 132.691 31.2344 131.059 31.2344C129.707 31.2344 128.676 30.8438 127.965 30.0625C127.262 29.2734 126.906 28.1094 126.898 26.5703V18.3203H129.066V26.5117C129.066 28.4336 129.848 29.3945 131.41 29.3945C133.066 29.3945 134.168 28.7773 134.715 27.543V18.3203H136.883V31H134.82L134.773 29.7461ZM147.57 27.6367C147.57 27.0508 147.348 26.5977 146.902 26.2773C146.465 25.9492 145.695 25.668 144.594 25.4336C143.5 25.1992 142.629 24.918 141.98 24.5898C141.34 24.2617 140.863 23.8711 140.551 23.418C140.246 22.9648 140.094 22.4258 140.094 21.8008C140.094 20.7617 140.531 19.8828 141.406 19.1641C142.289 18.4453 143.414 18.0859 144.781 18.0859C146.219 18.0859 147.383 18.457 148.273 19.1992C149.172 19.9414 149.621 20.8906 149.621 22.0469H147.441C147.441 21.4531 147.188 20.9414 146.68 20.5117C146.18 20.082 145.547 19.8672 144.781 19.8672C143.992 19.8672 143.375 20.0391 142.93 20.3828C142.484 20.7266 142.262 21.1758 142.262 21.7305C142.262 22.2539 142.469 22.6484 142.883 22.9141C143.297 23.1797 144.043 23.4336 145.121 23.6758C146.207 23.918 147.086 24.207 147.758 24.543C148.43 24.8789 148.926 25.2852 149.246 25.7617C149.574 26.2305 149.738 26.8047 149.738 27.4844C149.738 28.6172 149.285 29.5273 148.379 30.2148C147.473 30.8945 146.297 31.2344 144.852 31.2344C143.836 31.2344 142.938 31.0547 142.156 30.6953C141.375 30.3359 140.762 29.8359 140.316 29.1953C139.879 28.5469 139.66 27.8477 139.66 27.0977H141.828C141.867 27.8242 142.156 28.4023 142.695 28.832C143.242 29.2539 143.961 29.4648 144.852 29.4648C145.672 29.4648 146.328 29.3008 146.82 28.9727C147.32 28.6367 147.57 28.1914 147.57 27.6367ZM160.391 31C160.266 30.75 160.164 30.3047 160.086 29.6641C159.078 30.7109 157.875 31.2344 156.477 31.2344C155.227 31.2344 154.199 30.8828 153.395 30.1797C152.598 29.4688 152.199 28.5703 152.199 27.4844C152.199 26.1641 152.699 25.1406 153.699 24.4141C154.707 23.6797 156.121 23.3125 157.941 23.3125H160.051V22.3164C160.051 21.5586 159.824 20.957 159.371 20.5117C158.918 20.0586 158.25 19.832 157.367 19.832C156.594 19.832 155.945 20.0273 155.422 20.418C154.898 20.8086 154.637 21.2812 154.637 21.8359H152.457C152.457 21.2031 152.68 20.5938 153.125 20.0078C153.578 19.4141 154.188 18.9453 154.953 18.6016C155.727 18.2578 156.574 18.0859 157.496 18.0859C158.957 18.0859 160.102 18.4531 160.93 19.1875C161.758 19.9141 162.188 20.918 162.219 22.1992V28.0352C162.219 29.1992 162.367 30.125 162.664 30.8125V31H160.391ZM156.793 29.3477C157.473 29.3477 158.117 29.1719 158.727 28.8203C159.336 28.4688 159.777 28.0117 160.051 27.4492V24.8477H158.352C155.695 24.8477 154.367 25.625 154.367 27.1797C154.367 27.8594 154.594 28.3906 155.047 28.7734C155.5 29.1562 156.082 29.3477 156.793 29.3477ZM165.102 24.5547C165.102 22.5781 165.559 21.0078 166.473 19.8438C167.387 18.6719 168.598 18.0859 170.105 18.0859C171.652 18.0859 172.859 18.6328 173.727 19.7266L173.832 18.3203H175.812V30.6953C175.812 32.3359 175.324 33.6289 174.348 34.5742C173.379 35.5195 172.074 35.9922 170.434 35.9922C169.52 35.9922 168.625 35.7969 167.75 35.4062C166.875 35.0156 166.207 34.4805 165.746 33.8008L166.871 32.5C167.801 33.6484 168.938 34.2227 170.281 34.2227C171.336 34.2227 172.156 33.9258 172.742 33.332C173.336 32.7383 173.633 31.9023 173.633 30.8242V29.7344C172.766 30.7344 171.582 31.2344 170.082 31.2344C168.598 31.2344 167.395 30.6367 166.473 29.4414C165.559 28.2461 165.102 26.6172 165.102 24.5547ZM167.281 24.8008C167.281 26.2305 167.574 27.3555 168.16 28.1758C168.746 28.9883 169.566 29.3945 170.621 29.3945C171.988 29.3945 172.992 28.7734 173.633 27.5312V21.7422C172.969 20.5312 171.973 19.9258 170.645 19.9258C169.59 19.9258 168.766 20.3359 168.172 21.1562C167.578 21.9766 167.281 23.1914 167.281 24.8008ZM184.355 31.2344C182.637 31.2344 181.238 30.6719 180.16 29.5469C179.082 28.4141 178.543 26.9023 178.543 25.0117V24.6133C178.543 23.3555 178.781 22.2344 179.258 21.25C179.742 20.2578 180.414 19.4844 181.273 18.9297C182.141 18.3672 183.078 18.0859 184.086 18.0859C185.734 18.0859 187.016 18.6289 187.93 19.7148C188.844 20.8008 189.301 22.3555 189.301 24.3789V25.2812H180.711C180.742 26.5312 181.105 27.543 181.801 28.3164C182.504 29.082 183.395 29.4648 184.473 29.4648C185.238 29.4648 185.887 29.3086 186.418 28.9961C186.949 28.6836 187.414 28.2695 187.812 27.7539L189.137 28.7852C188.074 30.418 186.48 31.2344 184.355 31.2344ZM184.086 19.8672C183.211 19.8672 182.477 20.1875 181.883 20.8281C181.289 21.4609 180.922 22.3516 180.781 23.5H187.133V23.3359C187.07 22.2344 186.773 21.3828 186.242 20.7812C185.711 20.1719 184.992 19.8672 184.086 19.8672Z" fill="black"/>
<path d="M222.9 21.3604L220.246 20.5693L220.65 19.2422L223.305 20.2266L223.226 17.2031H224.57L224.482 20.2705L227.093 19.3037L227.497 20.6396L224.799 21.4395L226.539 23.8213L225.449 24.6475L223.814 22.1162L222.232 24.5859L221.134 23.7861L222.9 21.3604ZM238.65 25.9395C238.492 27.293 237.991 28.3389 237.147 29.0771C236.31 29.8096 235.193 30.1758 233.799 30.1758C232.287 30.1758 231.074 29.6338 230.16 28.5498C229.252 27.4658 228.798 26.0156 228.798 24.1992V22.9688C228.798 21.7793 229.009 20.7334 229.431 19.8311C229.858 18.9287 230.462 18.2373 231.241 17.7568C232.021 17.2705 232.923 17.0273 233.948 17.0273C235.308 17.0273 236.397 17.4082 237.218 18.1699C238.038 18.9258 238.516 19.9746 238.65 21.3164H236.954C236.808 20.2969 236.488 19.5586 235.996 19.1016C235.51 18.6445 234.827 18.416 233.948 18.416C232.87 18.416 232.023 18.8145 231.408 19.6113C230.799 20.4082 230.494 21.542 230.494 23.0127V24.252C230.494 25.6406 230.784 26.7451 231.364 27.5654C231.944 28.3857 232.756 28.7959 233.799 28.7959C234.736 28.7959 235.454 28.585 235.952 28.1631C236.456 27.7354 236.79 26.9941 236.954 25.9395H238.65ZM246.578 30C246.484 29.8125 246.408 29.4785 246.35 28.998C245.594 29.7832 244.691 30.1758 243.643 30.1758C242.705 30.1758 241.935 29.9121 241.331 29.3848C240.733 28.8516 240.435 28.1777 240.435 27.3633C240.435 26.373 240.81 25.6055 241.56 25.0605C242.315 24.5098 243.376 24.2344 244.741 24.2344H246.323V23.4873C246.323 22.9189 246.153 22.4678 245.813 22.1338C245.474 21.7939 244.973 21.624 244.311 21.624C243.73 21.624 243.244 21.7705 242.852 22.0635C242.459 22.3564 242.263 22.7109 242.263 23.127H240.628C240.628 22.6523 240.795 22.1953 241.129 21.7559C241.469 21.3105 241.926 20.959 242.5 20.7012C243.08 20.4434 243.716 20.3145 244.407 20.3145C245.503 20.3145 246.361 20.5898 246.982 21.1406C247.604 21.6855 247.926 22.4385 247.949 23.3994V27.7764C247.949 28.6494 248.061 29.3438 248.283 29.8594V30H246.578ZM243.88 28.7607C244.39 28.7607 244.873 28.6289 245.33 28.3652C245.787 28.1016 246.118 27.7588 246.323 27.3369V25.3857H245.049C243.057 25.3857 242.061 25.9688 242.061 27.1348C242.061 27.6445 242.23 28.043 242.57 28.3301C242.91 28.6172 243.347 28.7607 243.88 28.7607ZM256.369 29.0596C255.736 29.8037 254.808 30.1758 253.583 30.1758C252.569 30.1758 251.796 29.8828 251.263 29.2969C250.735 28.7051 250.469 27.832 250.463 26.6777V20.4902H252.089V26.6338C252.089 28.0752 252.675 28.7959 253.847 28.7959C255.089 28.7959 255.915 28.333 256.325 27.4072V20.4902H257.951V30H256.404L256.369 29.0596ZM262.636 18.1875V20.4902H264.411V21.7471H262.636V27.6445C262.636 28.0254 262.715 28.3125 262.873 28.5059C263.031 28.6934 263.301 28.7871 263.682 28.7871C263.869 28.7871 264.127 28.752 264.455 28.6816V30C264.027 30.1172 263.611 30.1758 263.207 30.1758C262.48 30.1758 261.933 29.9561 261.563 29.5166C261.194 29.0771 261.01 28.4531 261.01 27.6445V21.7471H259.278V20.4902H261.01V18.1875H262.636ZM268.085 30H266.459V20.4902H268.085V30ZM266.327 17.9678C266.327 17.7041 266.406 17.4814 266.564 17.2998C266.729 17.1182 266.969 17.0273 267.285 17.0273C267.602 17.0273 267.842 17.1182 268.006 17.2998C268.17 17.4814 268.252 17.7041 268.252 17.9678C268.252 18.2314 268.17 18.4512 268.006 18.627C267.842 18.8027 267.602 18.8906 267.285 18.8906C266.969 18.8906 266.729 18.8027 266.564 18.627C266.406 18.4512 266.327 18.2314 266.327 17.9678ZM270.265 25.1572C270.265 24.2256 270.446 23.3877 270.81 22.6436C271.179 21.8994 271.688 21.3252 272.339 20.9209C272.995 20.5166 273.742 20.3145 274.58 20.3145C275.875 20.3145 276.921 20.7627 277.718 21.6592C278.521 22.5557 278.922 23.748 278.922 25.2363V25.3506C278.922 26.2764 278.743 27.1084 278.386 27.8467C278.034 28.5791 277.527 29.1504 276.865 29.5605C276.209 29.9707 275.453 30.1758 274.598 30.1758C273.309 30.1758 272.263 29.7275 271.46 28.8311C270.663 27.9346 270.265 26.748 270.265 25.2715V25.1572ZM271.899 25.3506C271.899 26.4053 272.143 27.252 272.629 27.8906C273.121 28.5293 273.777 28.8486 274.598 28.8486C275.424 28.8486 276.08 28.5264 276.566 27.8818C277.053 27.2314 277.296 26.3232 277.296 25.1572C277.296 24.1143 277.047 23.2705 276.549 22.626C276.057 21.9756 275.4 21.6504 274.58 21.6504C273.777 21.6504 273.13 21.9697 272.638 22.6084C272.146 23.2471 271.899 24.1611 271.899 25.3506ZM282.499 20.4902L282.552 21.6855C283.278 20.7715 284.228 20.3145 285.399 20.3145C287.409 20.3145 288.423 21.4482 288.44 23.7158V30H286.814V23.707C286.809 23.0215 286.65 22.5146 286.34 22.1865C286.035 21.8584 285.558 21.6943 284.907 21.6943C284.38 21.6943 283.917 21.835 283.519 22.1162C283.12 22.3975 282.81 22.7666 282.587 23.2236V30H280.961V20.4902H282.499ZM292.562 21.3604L289.908 20.5693L290.312 19.2422L292.967 20.2266L292.888 17.2031H294.232L294.145 20.2705L296.755 19.3037L297.159 20.6396L294.461 21.4395L296.201 23.8213L295.111 24.6475L293.477 22.1162L291.895 24.5859L290.796 23.7861L292.562 21.3604Z" fill="#6C0000"/>
<path d="M4 29H10V27H4V29ZM4 17V19H22V17H4ZM4 24H16V22H4V24Z" fill="black"/>
<rect y="66" width="351" height="8" rx="4" fill="#EAEAEA"/>
</svg>
