<svg width="353" height="74" viewBox="0 0 353 74" fill="none" xmlns="http://www.w3.org/2000/svg">
<path d="M68.3378 26.7354C68.3378 32.2513 66.9205 37.2215 64.6554 40.797C62.3863 44.3787 59.3138 46.4999 56 46.4999C52.6863 46.4999 49.6137 44.3787 47.3447 40.797C45.0795 37.2215 43.6622 32.2513 43.6622 26.7354C43.6622 21.2195 45.0795 16.2494 47.3447 12.6739C49.6137 9.09217 52.6863 6.97095 56 6.97095C59.3138 6.97095 62.3863 9.09217 64.6554 12.6739C66.9205 16.2494 68.3378 21.2195 68.3378 26.7354Z" fill="white" stroke="black"/>
<path d="M80.5 13.4529C80.5 16.8956 77.8992 20.1261 73.4407 22.5252C69.0028 24.9134 62.8374 26.4058 56 26.4058C49.1626 26.4058 42.9972 24.9134 38.5593 22.5252C34.1009 20.1261 31.5 16.8956 31.5 13.4529C31.5 10.0102 34.1009 6.7797 38.5593 4.38056C42.9972 1.99242 49.1626 0.5 56 0.5C62.8374 0.5 69.0028 1.99242 73.4407 4.38056C77.8992 6.7797 80.5 10.0102 80.5 13.4529Z" fill="white" stroke="black"/>
<rect x="43.5" y="16.3479" width="25" height="10.8985" fill="white"/>
<path d="M65.8659 25.5434C65.8659 30.2653 64.7226 34.5159 62.9004 37.5693C61.072 40.6331 58.6165 42.413 56 42.413C53.3835 42.413 50.928 40.6331 49.0996 37.5693C47.2774 34.5159 46.1342 30.2653 46.1342 25.5434C46.1342 20.8215 47.2774 16.5709 49.0996 13.5175C50.928 10.4537 53.3835 8.67383 56 8.67383C58.6165 8.67383 61.072 10.4537 62.9004 13.5175C64.7226 16.5709 65.8659 20.8215 65.8659 25.5434Z" fill="#FF0000" stroke="black"/>
<path d="M76.0285 13.213C76.0285 15.659 73.9657 18.0174 70.2979 19.7941C66.6646 21.5539 61.6102 22.6564 56 22.6564C50.3899 22.6564 45.3354 21.5539 41.7022 19.7941C38.0343 18.0174 35.9716 15.659 35.9716 13.213C35.9716 10.767 38.0343 8.40852 41.7022 6.63189C45.3354 4.87203 50.3899 3.76953 56 3.76953C61.6102 3.76953 66.6646 4.87203 70.2979 6.63189C73.9657 8.40852 76.0285 10.767 76.0285 13.213Z" fill="#FF0000" stroke="black"/>
<rect x="45.2277" y="12.2607" width="21.5447" height="12.2609" rx="6.13043" fill="#FF0000"/>
<path d="M57.7759 19.6607C57.7759 21.6713 57.4439 23.4685 56.9255 24.7444C56.6659 25.3836 56.3692 25.8677 56.0654 26.184C55.7629 26.499 55.4864 26.6163 55.2471 26.6163C55.0078 26.6163 54.7313 26.499 54.4288 26.184C54.125 25.8677 53.8284 25.3836 53.5687 24.7444C53.0504 23.4685 52.7184 21.6713 52.7184 19.6607C52.7184 17.65 53.0504 15.8529 53.5687 14.577C53.8284 13.9377 54.125 13.4536 54.4288 13.1373C54.7313 12.8224 55.0078 12.7051 55.2471 12.7051C55.4864 12.7051 55.7629 12.8224 56.0654 13.1373C56.3692 13.4536 56.6659 13.9377 56.9255 14.577C57.4439 15.8529 57.7759 17.65 57.7759 19.6607Z" fill="white" stroke="black"/>
<path d="M64.0967 13.137C64.0967 13.3887 63.9526 13.699 63.5323 14.0478C63.115 14.3941 62.4813 14.7284 61.6541 15.0187C60.0043 15.5979 57.6926 15.9654 55.1154 15.9654C52.5383 15.9654 50.2265 15.5979 48.5768 15.0187C47.7496 14.7284 47.1158 14.3941 46.6986 14.0478C46.2783 13.699 46.1342 13.3887 46.1342 13.137C46.1342 12.8853 46.2783 12.575 46.6986 12.2262C47.1158 11.8799 47.7496 11.5456 48.5768 11.2552C50.2265 10.6761 52.5383 10.3086 55.1154 10.3086C57.6926 10.3086 60.0043 10.6761 61.6541 11.2552C62.4813 11.5456 63.115 11.8799 63.5323 12.2262C63.9526 12.575 64.0967 12.8853 64.0967 13.137Z" fill="white" stroke="black"/>
<rect x="52.7451" y="15.9329" width="5.00401" height="2.92899" fill="white"/>
<path d="M112.578 28.7617C112 29.5898 111.191 30.2109 110.152 30.625C109.121 31.0312 107.918 31.2344 106.543 31.2344C105.152 31.2344 103.918 30.9102 102.84 30.2617C101.762 29.6055 100.926 28.6758 100.332 27.4727C99.7461 26.2695 99.4453 24.875 99.4297 23.2891V21.8008C99.4297 19.2305 100.027 17.2383 101.223 15.8242C102.426 14.4102 104.113 13.7031 106.285 13.7031C108.066 13.7031 109.5 14.1602 110.586 15.0742C111.672 15.9805 112.336 17.2695 112.578 18.9414H110.328C109.906 16.6836 108.562 15.5547 106.297 15.5547C104.789 15.5547 103.645 16.0859 102.863 17.1484C102.09 18.2031 101.699 19.7344 101.691 21.7422V23.1367C101.691 25.0508 102.129 26.5742 103.004 27.707C103.879 28.832 105.062 29.3945 106.555 29.3945C107.398 29.3945 108.137 29.3008 108.77 29.1133C109.402 28.9258 109.926 28.6094 110.34 28.1641V24.332H106.391V22.5039H112.578V28.7617ZM122.129 20.2656C121.801 20.2109 121.445 20.1836 121.062 20.1836C119.641 20.1836 118.676 20.7891 118.168 22V31H116V18.3203H118.109L118.145 19.7852C118.855 18.6523 119.863 18.0859 121.168 18.0859C121.59 18.0859 121.91 18.1406 122.129 18.25V20.2656ZM123.324 24.543C123.324 23.3008 123.566 22.1836 124.051 21.1914C124.543 20.1992 125.223 19.4336 126.09 18.8945C126.965 18.3555 127.961 18.0859 129.078 18.0859C130.805 18.0859 132.199 18.6836 133.262 19.8789C134.332 21.0742 134.867 22.6641 134.867 24.6484V24.8008C134.867 26.0352 134.629 27.1445 134.152 28.1289C133.684 29.1055 133.008 29.8672 132.125 30.4141C131.25 30.9609 130.242 31.2344 129.102 31.2344C127.383 31.2344 125.988 30.6367 124.918 29.4414C123.855 28.2461 123.324 26.6641 123.324 24.6953V24.543ZM125.504 24.8008C125.504 26.207 125.828 27.3359 126.477 28.1875C127.133 29.0391 128.008 29.4648 129.102 29.4648C130.203 29.4648 131.078 29.0352 131.727 28.1758C132.375 27.3086 132.699 26.0977 132.699 24.543C132.699 23.1523 132.367 22.0273 131.703 21.168C131.047 20.3008 130.172 19.8672 129.078 19.8672C128.008 19.8672 127.145 20.293 126.488 21.1445C125.832 21.9961 125.504 23.2148 125.504 24.8008ZM145.414 29.7461C144.57 30.7383 143.332 31.2344 141.699 31.2344C140.348 31.2344 139.316 30.8438 138.605 30.0625C137.902 29.2734 137.547 28.1094 137.539 26.5703V18.3203H139.707V26.5117C139.707 28.4336 140.488 29.3945 142.051 29.3945C143.707 29.3945 144.809 28.7773 145.355 27.543V18.3203H147.523V31H145.461L145.414 29.7461ZM152.879 18.3203L152.949 19.9141C153.918 18.6953 155.184 18.0859 156.746 18.0859C159.426 18.0859 160.777 19.5977 160.801 22.6211V31H158.633V22.6094C158.625 21.6953 158.414 21.0195 158 20.582C157.594 20.1445 156.957 19.9258 156.09 19.9258C155.387 19.9258 154.77 20.1133 154.238 20.4883C153.707 20.8633 153.293 21.3555 152.996 21.9648V31H150.828V18.3203H152.879ZM163.543 24.5547C163.543 22.6094 164.004 21.0469 164.926 19.8672C165.848 18.6797 167.055 18.0859 168.547 18.0859C170.031 18.0859 171.207 18.5938 172.074 19.6094V13H174.242V31H172.25L172.145 29.6406C171.277 30.7031 170.07 31.2344 168.523 31.2344C167.055 31.2344 165.855 30.6328 164.926 29.4297C164.004 28.2266 163.543 26.6562 163.543 24.7188V24.5547ZM165.711 24.8008C165.711 26.2383 166.008 27.3633 166.602 28.1758C167.195 28.9883 168.016 29.3945 169.062 29.3945C170.438 29.3945 171.441 28.7773 172.074 27.543V21.7188C171.426 20.5234 170.43 19.9258 169.086 19.9258C168.023 19.9258 167.195 20.3359 166.602 21.1562C166.008 21.9766 165.711 23.1914 165.711 24.8008ZM183.91 31V13.9375H189.488C191.34 13.9375 192.73 14.3203 193.66 15.0859C194.598 15.8516 195.066 16.9844 195.066 18.4844C195.066 19.2812 194.84 19.9883 194.387 20.6055C193.934 21.2148 193.316 21.6875 192.535 22.0234C193.457 22.2812 194.184 22.7734 194.715 23.5C195.254 24.2188 195.523 25.0781 195.523 26.0781C195.523 27.6094 195.027 28.8125 194.035 29.6875C193.043 30.5625 191.641 31 189.828 31H183.91ZM186.16 23.0195V29.1602H189.875C190.922 29.1602 191.746 28.8906 192.348 28.3516C192.957 27.8047 193.262 27.0547 193.262 26.1016C193.262 24.0469 192.145 23.0195 189.91 23.0195H186.16ZM186.16 21.2148H189.559C190.543 21.2148 191.328 20.9688 191.914 20.4766C192.508 19.9844 192.805 19.3164 192.805 18.4727C192.805 17.5352 192.531 16.8555 191.984 16.4336C191.438 16.0039 190.605 15.7891 189.488 15.7891H186.16V21.2148ZM198.57 29.8633C198.57 29.4883 198.68 29.1758 198.898 28.9258C199.125 28.6758 199.461 28.5508 199.906 28.5508C200.352 28.5508 200.688 28.6758 200.914 28.9258C201.148 29.1758 201.266 29.4883 201.266 29.8633C201.266 30.2227 201.148 30.5234 200.914 30.7656C200.688 31.0078 200.352 31.1289 199.906 31.1289C199.461 31.1289 199.125 31.0078 198.898 30.7656C198.68 30.5234 198.57 30.2227 198.57 29.8633ZM204.898 29.8633C204.898 29.4883 205.008 29.1758 205.227 28.9258C205.453 28.6758 205.789 28.5508 206.234 28.5508C206.68 28.5508 207.016 28.6758 207.242 28.9258C207.477 29.1758 207.594 29.4883 207.594 29.8633C207.594 30.2227 207.477 30.5234 207.242 30.7656C207.016 31.0078 206.68 31.1289 206.234 31.1289C205.789 31.1289 205.453 31.0078 205.227 30.7656C205.008 30.5234 204.898 30.2227 204.898 29.8633ZM211.227 29.8633C211.227 29.4883 211.336 29.1758 211.555 28.9258C211.781 28.6758 212.117 28.5508 212.562 28.5508C213.008 28.5508 213.344 28.6758 213.57 28.9258C213.805 29.1758 213.922 29.4883 213.922 29.8633C213.922 30.2227 213.805 30.5234 213.57 30.7656C213.344 31.0078 213.008 31.1289 212.562 31.1289C212.117 31.1289 211.781 31.0078 211.555 30.7656C211.336 30.5234 211.227 30.2227 211.227 29.8633Z" fill="black"/>
<path d="M228.719 24.085H223.173V28.6201H229.615V30H221.485V17.2031H229.527V18.5918H223.173V22.7051H228.719V24.085ZM234.651 23.9619L236.761 20.4902H238.659L235.548 25.1924L238.756 30H236.875L234.678 26.4404L232.48 30H230.591L233.799 25.1924L230.688 20.4902H232.568L234.651 23.9619ZM248.424 25.3506C248.424 26.7979 248.093 27.9639 247.431 28.8486C246.769 29.7334 245.872 30.1758 244.741 30.1758C243.587 30.1758 242.679 29.8096 242.017 29.0771V33.6562H240.391V20.4902H241.876L241.955 21.5449C242.617 20.7246 243.537 20.3145 244.715 20.3145C245.857 20.3145 246.76 20.7451 247.422 21.6064C248.09 22.4678 248.424 23.666 248.424 25.2012V25.3506ZM246.798 25.166C246.798 24.0938 246.569 23.2471 246.112 22.626C245.655 22.0049 245.028 21.6943 244.231 21.6943C243.247 21.6943 242.509 22.1309 242.017 23.0039V27.5479C242.503 28.415 243.247 28.8486 244.249 28.8486C245.028 28.8486 245.646 28.541 246.104 27.9258C246.566 27.3047 246.798 26.3848 246.798 25.166ZM252.265 30H250.639V20.4902H252.265V30ZM250.507 17.9678C250.507 17.7041 250.586 17.4814 250.744 17.2998C250.908 17.1182 251.148 17.0273 251.465 17.0273C251.781 17.0273 252.021 17.1182 252.186 17.2998C252.35 17.4814 252.432 17.7041 252.432 17.9678C252.432 18.2314 252.35 18.4512 252.186 18.627C252.021 18.8027 251.781 18.8906 251.465 18.8906C251.148 18.8906 250.908 18.8027 250.744 18.627C250.586 18.4512 250.507 18.2314 250.507 17.9678ZM259.472 21.9492C259.226 21.9082 258.959 21.8877 258.672 21.8877C257.605 21.8877 256.882 22.3418 256.501 23.25V30H254.875V20.4902H256.457L256.483 21.5889C257.017 20.7393 257.772 20.3145 258.751 20.3145C259.067 20.3145 259.308 20.3555 259.472 20.4375V21.9492ZM264.745 30.1758C263.456 30.1758 262.407 29.7539 261.599 28.9102C260.79 28.0605 260.386 26.9268 260.386 25.5088V25.21C260.386 24.2666 260.564 23.4258 260.922 22.6875C261.285 21.9434 261.789 21.3633 262.434 20.9473C263.084 20.5254 263.787 20.3145 264.543 20.3145C265.779 20.3145 266.74 20.7217 267.426 21.5361C268.111 22.3506 268.454 23.5166 268.454 25.0342V25.7109H262.012C262.035 26.6484 262.308 27.4072 262.829 27.9873C263.356 28.5615 264.024 28.8486 264.833 28.8486C265.407 28.8486 265.894 28.7314 266.292 28.4971C266.69 28.2627 267.039 27.9521 267.338 27.5654L268.331 28.3389C267.534 29.5635 266.339 30.1758 264.745 30.1758ZM264.543 21.6504C263.887 21.6504 263.336 21.8906 262.891 22.3711C262.445 22.8457 262.17 23.5137 262.064 24.375H266.828V24.252C266.781 23.4258 266.559 22.7871 266.16 22.3359C265.762 21.8789 265.223 21.6504 264.543 21.6504ZM275.881 27.4775C275.881 27.0381 275.714 26.6982 275.38 26.458C275.052 26.2119 274.475 26.001 273.648 25.8252C272.828 25.6494 272.175 25.4385 271.688 25.1924C271.208 24.9463 270.851 24.6533 270.616 24.3135C270.388 23.9736 270.273 23.5693 270.273 23.1006C270.273 22.3213 270.602 21.6621 271.258 21.123C271.92 20.584 272.764 20.3145 273.789 20.3145C274.867 20.3145 275.74 20.5928 276.408 21.1494C277.082 21.7061 277.419 22.418 277.419 23.2852H275.784C275.784 22.8398 275.594 22.4561 275.213 22.1338C274.838 21.8115 274.363 21.6504 273.789 21.6504C273.197 21.6504 272.734 21.7793 272.4 22.0371C272.066 22.2949 271.899 22.6318 271.899 23.0479C271.899 23.4404 272.055 23.7363 272.365 23.9355C272.676 24.1348 273.235 24.3252 274.044 24.5068C274.858 24.6885 275.518 24.9053 276.021 25.1572C276.525 25.4092 276.897 25.7139 277.138 26.0713C277.384 26.4229 277.507 26.8535 277.507 27.3633C277.507 28.2129 277.167 28.8955 276.487 29.4111C275.808 29.9209 274.926 30.1758 273.842 30.1758C273.08 30.1758 272.406 30.041 271.82 29.7715C271.234 29.502 270.774 29.127 270.44 28.6465C270.112 28.1602 269.948 27.6357 269.948 27.0732H271.574C271.604 27.6182 271.82 28.0518 272.225 28.374C272.635 28.6904 273.174 28.8486 273.842 28.8486C274.457 28.8486 274.949 28.7256 275.318 28.4795C275.693 28.2275 275.881 27.8936 275.881 27.4775ZM289.627 27.4775C289.627 27.0381 289.46 26.6982 289.126 26.458C288.798 26.2119 288.221 26.001 287.395 25.8252C286.574 25.6494 285.921 25.4385 285.435 25.1924C284.954 24.9463 284.597 24.6533 284.362 24.3135C284.134 23.9736 284.02 23.5693 284.02 23.1006C284.02 22.3213 284.348 21.6621 285.004 21.123C285.666 20.584 286.51 20.3145 287.535 20.3145C288.613 20.3145 289.486 20.5928 290.154 21.1494C290.828 21.7061 291.165 22.418 291.165 23.2852H289.53C289.53 22.8398 289.34 22.4561 288.959 22.1338C288.584 21.8115 288.109 21.6504 287.535 21.6504C286.943 21.6504 286.48 21.7793 286.146 22.0371C285.812 22.2949 285.646 22.6318 285.646 23.0479C285.646 23.4404 285.801 23.7363 286.111 23.9355C286.422 24.1348 286.981 24.3252 287.79 24.5068C288.604 24.6885 289.264 24.9053 289.768 25.1572C290.271 25.4092 290.644 25.7139 290.884 26.0713C291.13 26.4229 291.253 26.8535 291.253 27.3633C291.253 28.2129 290.913 28.8955 290.233 29.4111C289.554 29.9209 288.672 30.1758 287.588 30.1758C286.826 30.1758 286.152 30.041 285.566 29.7715C284.98 29.502 284.521 29.127 284.187 28.6465C283.858 28.1602 283.694 27.6357 283.694 27.0732H285.32C285.35 27.6182 285.566 28.0518 285.971 28.374C286.381 28.6904 286.92 28.8486 287.588 28.8486C288.203 28.8486 288.695 28.7256 289.064 28.4795C289.439 28.2275 289.627 27.8936 289.627 27.4775ZM292.94 25.1572C292.94 24.2256 293.122 23.3877 293.485 22.6436C293.854 21.8994 294.364 21.3252 295.015 20.9209C295.671 20.5166 296.418 20.3145 297.256 20.3145C298.551 20.3145 299.597 20.7627 300.394 21.6592C301.196 22.5557 301.598 23.748 301.598 25.2363V25.3506C301.598 26.2764 301.419 27.1084 301.062 27.8467C300.71 28.5791 300.203 29.1504 299.541 29.5605C298.885 29.9707 298.129 30.1758 297.273 30.1758C295.984 30.1758 294.938 29.7275 294.136 28.8311C293.339 27.9346 292.94 26.748 292.94 25.2715V25.1572ZM294.575 25.3506C294.575 26.4053 294.818 27.252 295.305 27.8906C295.797 28.5293 296.453 28.8486 297.273 28.8486C298.1 28.8486 298.756 28.5264 299.242 27.8818C299.729 27.2314 299.972 26.3232 299.972 25.1572C299.972 24.1143 299.723 23.2705 299.225 22.626C298.732 21.9756 298.076 21.6504 297.256 21.6504C296.453 21.6504 295.806 21.9697 295.313 22.6084C294.821 23.2471 294.575 24.1611 294.575 25.3506ZM303.206 25.1572C303.206 24.2256 303.388 23.3877 303.751 22.6436C304.12 21.8994 304.63 21.3252 305.28 20.9209C305.937 20.5166 306.684 20.3145 307.521 20.3145C308.816 20.3145 309.862 20.7627 310.659 21.6592C311.462 22.5557 311.863 23.748 311.863 25.2363V25.3506C311.863 26.2764 311.685 27.1084 311.327 27.8467C310.976 28.5791 310.469 29.1504 309.807 29.5605C309.15 29.9707 308.395 30.1758 307.539 30.1758C306.25 30.1758 305.204 29.7275 304.401 28.8311C303.604 27.9346 303.206 26.748 303.206 25.2715V25.1572ZM304.841 25.3506C304.841 26.4053 305.084 27.252 305.57 27.8906C306.062 28.5293 306.719 28.8486 307.539 28.8486C308.365 28.8486 309.021 28.5264 309.508 27.8818C309.994 27.2314 310.237 26.3232 310.237 25.1572C310.237 24.1143 309.988 23.2705 309.49 22.626C308.998 21.9756 308.342 21.6504 307.521 21.6504C306.719 21.6504 306.071 21.9697 305.579 22.6084C305.087 23.2471 304.841 24.1611 304.841 25.3506ZM315.44 20.4902L315.493 21.6855C316.22 20.7715 317.169 20.3145 318.341 20.3145C320.351 20.3145 321.364 21.4482 321.382 23.7158V30H319.756V23.707C319.75 23.0215 319.592 22.5146 319.281 22.1865C318.977 21.8584 318.499 21.6943 317.849 21.6943C317.321 21.6943 316.858 21.835 316.46 22.1162C316.062 22.3975 315.751 22.7666 315.528 23.2236V30H313.902V20.4902H315.44ZM325.653 26.3877H324.186L324.071 17.2031H325.776L325.653 26.3877ZM324.01 29.1826C324.01 28.9189 324.089 28.6992 324.247 28.5234C324.411 28.3418 324.651 28.251 324.968 28.251C325.284 28.251 325.524 28.3418 325.688 28.5234C325.853 28.6992 325.935 28.9189 325.935 29.1826C325.935 29.4463 325.853 29.666 325.688 29.8418C325.524 30.0117 325.284 30.0967 324.968 30.0967C324.651 30.0967 324.411 30.0117 324.247 29.8418C324.089 29.666 324.01 29.4463 324.01 29.1826Z" fill="#EF8F00"/>
<path d="M4 29H10V27H4V29ZM4 17V19H22V17H4ZM4 24H16V22H4V24Z" fill="black"/>
<rect y="66" width="351" height="8" rx="4" fill="#EAEAEA"/>
</svg>
