<svg width="136" height="136" viewBox="0 0 136 136" fill="none" xmlns="http://www.w3.org/2000/svg">
<circle cx="70" cy="66" r="66" fill="#3C9BDF"/>
<circle cx="69.5075" cy="65.5075" r="59.597" fill="#3474A2"/>
<g filter="url(#filter0_d)">
<rect x="84.3325" y="10.5" width="2.36945" height="5.77696" rx="1.18473" fill="white" stroke="black"/>
<rect x="65.2495" y="26.86" width="40.5355" height="52.1038" fill="white" stroke="black"/>
<path d="M84.8225 13.9035C85.2484 13.6878 85.7516 13.6878 86.1775 13.9035L105.945 23.9117C107.354 24.6249 106.847 26.75 105.268 26.75H65.7322C64.1534 26.75 63.6461 24.6249 65.0546 23.9117L84.8225 13.9035Z" fill="white" stroke="black"/>
<path d="M69.1707 24.5L85.5 16.556L101.829 24.5H69.1707Z" fill="white" stroke="black"/>
<path d="M79.1681 50.5712L76.4531 55.3712L75.1931 55.3112L73.1531 50.8712L71.8631 58.0862L70.4681 57.8312L72.1631 48.3962L73.4831 48.2312L75.9131 53.4662L78.9131 48.1712L80.2181 48.3962L81.9281 57.8312L80.5331 58.0862L79.1681 50.5712ZM83.7208 49.7312L85.0858 49.3562L85.5358 51.0362L84.1708 51.4112L83.7208 49.7312ZM83.3458 58.2362L84.0808 52.2812L85.4908 52.4462L84.7558 58.4012L83.3458 58.2362ZM86.8908 58.4612L88.1808 49.4012L89.5758 49.5812L88.3008 58.6562L86.8908 58.4612ZM90.4761 57.9362L92.6211 48.2312L94.0011 48.5312L91.8711 58.2362L90.4761 57.9362ZM93.5511 55.4012L93.5361 54.3812L96.5661 51.4862L97.5411 52.5062L95.0661 54.8612L98.1711 57.5612L97.2411 58.6262L93.5511 55.4012Z" fill="black"/>
<rect x="66.4236" y="28.0719" width="38.1872" height="10.1654" fill="#FF0000"/>
<rect x="66.4236" y="28.0719" width="38.1872" height="10.1654" fill="#FF0000"/>
<rect x="66.4236" y="28.0719" width="38.1872" height="10.1654" fill="#0047FF"/>
<rect x="66.4236" y="67.0394" width="38.1872" height="10.1654" fill="#FF0000"/>
<rect x="66.4236" y="67.0394" width="38.1872" height="10.1654" fill="#FF0000"/>
<rect x="66.4236" y="67.0394" width="38.1872" height="10.1654" fill="#0047FF"/>
<path d="M84.83 12L86.2 12.5V15.5H84.83V12Z" fill="white"/>
<rect x="66.9236" y="28.5719" width="37.1872" height="48.133" stroke="black"/>
<path d="M38.2439 48.2125C38.4391 44.7107 42.3737 42.7576 45.2636 44.7281L88.0637 73.9111C90.9062 75.8492 90.605 80.1437 87.5193 81.6754L41.828 104.356C38.7423 105.887 35.1608 103.52 35.3528 100.076L38.2439 48.2125Z" fill="#FFD645" stroke="black"/>
<path d="M51.9384 59.4773C53.3561 62.3564 52.1873 65.8354 49.3361 67.2507C46.4848 68.666 43.0219 67.4861 41.6042 64.6071C40.1865 61.728 41.3553 58.2491 44.2065 56.8338C47.0578 55.4185 50.5207 56.5983 51.9384 59.4773Z" fill="#DAAA00" stroke="black"/>
<path d="M53.5981 85.3561C55.0158 88.2352 53.847 91.7141 50.9957 93.1294C48.1445 94.5448 44.6816 93.3649 43.2639 90.4859C41.8462 87.6068 43.015 84.1278 45.8662 82.7125C48.7175 81.2972 52.1804 82.4771 53.5981 85.3561Z" fill="#DAAA00" stroke="black"/>
<path d="M74.1429 68.361C75.5606 71.24 74.3918 74.719 71.5406 76.1343C68.6893 77.5496 65.2264 76.3698 63.8087 73.4907C62.391 70.6117 63.5598 67.1327 66.4111 65.7174C69.2623 64.3021 72.7252 65.482 74.1429 68.361Z" fill="#DAAA00" stroke="black"/>
</g>
<defs>
<filter id="filter0_d" x="0" y="7" width="124" height="129" filterUnits="userSpaceOnUse" color-interpolation-filters="sRGB">
<feFlood flood-opacity="0" result="BackgroundImageFix"/>
<feColorMatrix in="SourceAlpha" type="matrix" values="0 0 0 0 0 0 0 0 0 0 0 0 0 0 0 0 0 0 127 0"/>
<feOffset dx="2" dy="2"/>
<feGaussianBlur stdDeviation="2.5"/>
<feColorMatrix type="matrix" values="0 0 0 0 0 0 0 0 0 0 0 0 0 0 0 0 0 0 0.25 0"/>
<feBlend mode="normal" in2="BackgroundImageFix" result="effect1_dropShadow"/>
<feBlend mode="normal" in="SourceGraphic" in2="effect1_dropShadow" result="shape"/>
</filter>
</defs>
</svg>
