<svg width="141" height="141" viewBox="0 0 141 141" fill="none" xmlns="http://www.w3.org/2000/svg">
<circle cx="70.5" cy="70.5" r="70.5" fill="#F1B04E"/>
<ellipse cx="70.5" cy="70.5" rx="63.3153" ry="63.3153" fill="#FF720C" fill-opacity="0.57"/>
<g filter="url(#filter0_d)">
<path d="M76.1351 101.924C76.1351 102.582 75.6608 103.322 74.5242 104.084C73.4058 104.834 71.7545 105.529 69.6691 106.121C65.5052 107.302 59.7239 108.04 53.3176 108.04C46.9112 108.04 41.1299 107.302 36.966 106.121C34.8807 105.529 33.2294 104.834 32.1109 104.084C30.9744 103.322 30.5 102.582 30.5 101.924C30.5 101.266 30.9744 100.526 32.1109 99.7641C33.2294 99.0138 34.8807 98.3186 36.966 97.727C41.1299 96.5456 46.9112 95.8082 53.3176 95.8082C59.7239 95.8082 65.5052 96.5456 69.6691 97.727C71.7545 98.3186 73.4058 99.0138 74.5242 99.7641C75.6608 100.526 76.1351 101.266 76.1351 101.924Z" fill="#FF5C00" stroke="black"/>
<rect x="30" y="92.158" width="46.6351" height="10.0812" fill="#FF5C00"/>
<path d="M76.1351 91.8428C76.1351 92.5009 75.6608 93.2404 74.5242 94.0028C73.4058 94.753 71.7545 95.4482 69.6691 96.0399C65.5052 97.2213 59.7239 97.9586 53.3176 97.9586C46.9112 97.9586 41.1299 97.2213 36.966 96.0399C34.8807 95.4482 33.2294 94.753 32.1109 94.0028C30.9744 93.2404 30.5 92.5009 30.5 91.8428C30.5 91.1848 30.9744 90.4453 32.1109 89.6829C33.2294 88.9327 34.8807 88.2375 36.966 87.6458C41.1299 86.4644 46.9112 85.7271 53.3176 85.7271C59.7239 85.7271 65.5052 86.4644 69.6691 87.6458C71.7545 88.2375 73.4058 88.9327 74.5242 89.6829C75.6608 90.4453 76.1351 91.1848 76.1351 91.8428Z" fill="white" stroke="black"/>
<rect x="30" y="32.3008" width="46.6351" height="59.8572" fill="white"/>
<path d="M76.1351 43.9571C76.1351 44.6152 75.6608 45.3546 74.5242 46.117C73.4058 46.8673 71.7545 47.5625 69.6691 48.1542C65.5052 49.3356 59.7239 50.0729 53.3176 50.0729C46.9112 50.0729 41.1299 49.3356 36.966 48.1542C34.8807 47.5625 33.2294 46.8673 32.1109 46.117C30.9744 45.3546 30.5 44.6152 30.5 43.9571C30.5 43.299 30.9744 42.5596 32.1109 41.7972C33.2294 41.0469 34.8807 40.3517 36.966 39.76C41.1299 38.5786 46.9112 37.8413 53.3176 37.8413C59.7239 37.8413 65.5052 38.5786 69.6691 39.76C71.7545 40.3517 73.4058 41.0469 74.5242 41.7972C75.6608 42.5596 76.1351 43.299 76.1351 43.9571Z" fill="#FF5C00" stroke="black"/>
<rect x="30" y="32.9308" width="46.6351" height="11.3414" fill="#FF5C00"/>
<path d="M76.1351 32.6158C76.1351 33.2738 75.6608 34.0133 74.5242 34.7757C73.4058 35.526 71.7545 36.2212 69.6691 36.8128C65.5052 37.9943 59.7239 38.7316 53.3176 38.7316C46.9112 38.7316 41.1299 37.9943 36.966 36.8128C34.8807 36.2212 33.2294 35.526 32.1109 34.7757C30.9744 34.0133 30.5 33.2738 30.5 32.6158C30.5 31.9577 30.9744 31.2183 32.1109 30.4559C33.2294 29.7056 34.8807 29.0104 36.966 28.4187C41.1299 27.2373 46.9112 26.5 53.3176 26.5C59.7239 26.5 65.5052 27.2373 69.6691 28.4187C71.7545 29.0104 73.4058 29.7056 74.5242 30.4559C75.6608 31.2183 76.1351 31.9577 76.1351 32.6158Z" fill="#919191" stroke="black"/>
<path d="M71.7237 32.6158C71.7237 33.0956 71.3696 33.6693 70.4382 34.2829C69.5268 34.8833 68.175 35.4432 66.4597 35.9211C63.0363 36.875 58.2782 37.4714 53.0025 37.4714C47.7267 37.4714 42.9687 36.875 39.5452 35.9211C37.83 35.4432 36.4782 34.8833 35.5668 34.2829C34.6354 33.6693 34.2812 33.0956 34.2812 32.6158C34.2812 32.136 34.6354 31.5622 35.5668 30.9487C36.4782 30.3483 37.83 29.7883 39.5452 29.3104C42.9687 28.3565 47.7267 27.7601 53.0025 27.7601C58.2782 27.7601 63.0363 28.3565 66.4597 29.3104C68.175 29.7883 69.5268 30.3483 70.4382 30.9487C71.3696 31.5622 71.7237 32.136 71.7237 32.6158Z" fill="#919191" stroke="black"/>
<path d="M66.0519 32.9308C66.0519 33.199 65.8576 33.5655 65.232 33.988C64.6239 34.3987 63.7111 34.7882 62.5383 35.1233C60.1994 35.7914 56.9392 36.2113 53.3176 36.2113C49.6959 36.2113 46.4357 35.7914 44.0968 35.1233C42.924 34.7882 42.0112 34.3987 41.4031 33.988C40.7776 33.5655 40.5833 33.199 40.5833 32.9308C40.5833 32.6627 40.7776 32.2962 41.4031 31.8737C42.0112 31.463 42.924 31.0735 44.0968 30.7384C46.4357 30.0703 49.6959 29.6504 53.3176 29.6504C56.9392 29.6504 60.1994 30.0703 62.5383 30.7384C63.7111 31.0735 64.6239 31.463 65.232 31.8737C65.8576 32.2962 66.0519 32.6627 66.0519 32.9308Z" fill="#919191" stroke="black"/>
<line x1="76.1351" y1="102.239" x2="76.1351" y2="32.3008" stroke="black"/>
<line x1="30.1302" y1="102.239" x2="30.1302" y2="32.3008" stroke="black"/>
<path d="M42.0567 69.9496C42.7707 70.1176 43.1277 70.5096 43.1277 71.1256C43.1277 71.5456 42.969 71.8699 42.6517 72.0986C42.3343 72.3226 41.8817 72.4346 41.2937 72.4346H38.4447V71.8536H39.3477V68.2136H38.4447V67.6326H41.1817C41.6903 67.6326 42.0823 67.7469 42.3577 67.9756C42.6377 68.2042 42.7777 68.5052 42.7777 68.8786C42.7777 69.1306 42.7123 69.3476 42.5817 69.5296C42.4557 69.7069 42.2807 69.8469 42.0567 69.9496ZM40.0617 68.2136V69.7466H41.0067C41.3333 69.7466 41.5877 69.6836 41.7697 69.5576C41.9563 69.4269 42.0497 69.2286 42.0497 68.9626C42.0497 68.7059 41.9633 68.5169 41.7907 68.3956C41.618 68.2742 41.3987 68.2136 41.1327 68.2136H40.0617ZM41.2237 71.8536C42.0077 71.8536 42.3997 71.5922 42.3997 71.0696C42.3997 70.7989 42.2947 70.6006 42.0847 70.4746C41.8793 70.3486 41.59 70.2832 41.2167 70.2786H40.0617V71.8536H41.2237ZM47.8377 69.1726V68.2136H45.3457V69.7466H46.4517V69.0956H47.0117V70.9296H46.4517V70.2786H45.3457V71.8536H47.8377V70.8946H48.4817V72.4346H43.7357V71.8536H44.6317V68.2136H43.7357V67.6326H48.4817V69.1726H47.8377ZM54.8404 71.8536V72.4346H52.5514V71.8536H53.3354L52.8874 70.7336H50.8154L50.3744 71.8536H51.2144V72.4346H48.9394V71.8536H49.6884L51.2494 68.2066H50.5284V67.6326H53.2304V68.2066H52.5164L54.0914 71.8536H54.8404ZM52.6774 70.2086L51.8794 68.2066H51.8234L51.0254 70.2086H52.6774ZM61.3055 68.2136H60.4305V72.4766L60.0735 72.4836L56.7065 68.6546V71.8536H57.5675V72.4346H55.1175V71.8536H56.0205V68.2136H55.1175V67.6326H56.7065L59.7585 71.1816V68.2136H58.8555V67.6326H61.3055V68.2136ZM64.0673 69.7186C64.6833 69.8912 65.1477 70.0942 65.4603 70.3276C65.773 70.5609 65.9293 70.8712 65.9293 71.2586C65.9293 71.5106 65.8593 71.7346 65.7193 71.9306C65.584 72.1219 65.395 72.2689 65.1523 72.3716C64.9097 72.4742 64.6367 72.5256 64.3333 72.5256C64.002 72.5256 63.687 72.4556 63.3883 72.3156C63.0897 72.1756 62.8143 71.9796 62.5623 71.7276V72.4276H61.9253V70.8106L62.3313 70.7896C62.5787 71.1489 62.8797 71.4312 63.2343 71.6366C63.589 71.8419 63.9413 71.9446 64.2913 71.9446C64.5527 71.9446 64.765 71.8886 64.9283 71.7766C65.0963 71.6646 65.1803 71.5129 65.1803 71.3216C65.1803 71.1116 65.0637 70.9319 64.8303 70.7826C64.597 70.6286 64.2003 70.4792 63.6403 70.3346C63.057 70.1806 62.63 69.9799 62.3593 69.7326C62.0887 69.4806 61.9533 69.1726 61.9533 68.8086C61.9533 68.5566 62.021 68.3349 62.1563 68.1436C62.2963 67.9476 62.483 67.7982 62.7163 67.6956C62.9497 67.5882 63.204 67.5346 63.4793 67.5346C64.128 67.5346 64.653 67.7726 65.0543 68.2486V67.6326H65.6913V69.2286L65.2993 69.2496C65.1033 68.8762 64.863 68.5939 64.5783 68.4026C64.2937 68.2112 63.981 68.1156 63.6403 68.1156C63.365 68.1156 63.1387 68.1762 62.9613 68.2976C62.7887 68.4142 62.7023 68.5729 62.7023 68.7736C62.7023 68.9789 62.8073 69.1562 63.0173 69.3056C63.232 69.4502 63.582 69.5879 64.0673 69.7186Z" fill="black"/>
<path d="M109.468 93.4607C104.791 101.471 98.3101 107.39 91.6356 110.496C84.959 113.603 78.1368 113.88 72.6972 110.711C67.2576 107.542 64.1394 101.475 63.5593 94.1405C62.9793 86.8083 64.9453 78.2599 69.6224 70.2494C74.2995 62.2388 80.7802 56.3203 87.4547 53.2142C94.1313 50.1071 100.953 49.8305 106.393 52.9992C111.833 56.168 114.951 62.2352 115.531 69.5696C116.111 76.9018 114.145 85.4502 109.468 93.4607Z" fill="white" stroke="black"/>
<path d="M98.5371 92.3263C96.1037 96.4941 92.626 99.5031 88.9903 101.011C85.355 102.519 81.5917 102.518 78.5239 100.731C75.4561 98.9443 73.6026 95.6728 73.1265 91.7699C72.6503 87.8666 73.5598 83.3615 75.9932 79.1937C78.4266 75.0259 81.9044 72.017 85.54 70.5089C89.1753 69.001 92.9386 69.0016 96.0064 70.7887C99.0742 72.5758 100.928 75.8472 101.404 79.7501C101.88 83.6535 100.971 88.1585 98.5371 92.3263Z" fill="#FFD600" stroke="black"/>
</g>
<defs>
<filter id="filter0_d" x="26.6302" y="23" width="107.37" height="107" filterUnits="userSpaceOnUse" color-interpolation-filters="sRGB">
<feFlood flood-opacity="0" result="BackgroundImageFix"/>
<feColorMatrix in="SourceAlpha" type="matrix" values="0 0 0 0 0 0 0 0 0 0 0 0 0 0 0 0 0 0 127 0"/>
<feOffset dx="2" dy="2"/>
<feGaussianBlur stdDeviation="2.5"/>
<feColorMatrix type="matrix" values="0 0 0 0 0 0 0 0 0 0 0 0 0 0 0 0 0 0 0.25 0"/>
<feBlend mode="normal" in2="BackgroundImageFix" result="effect1_dropShadow"/>
<feBlend mode="normal" in="SourceGraphic" in2="effect1_dropShadow" result="shape"/>
</filter>
</defs>
</svg>
