<svg width="353" height="74" viewBox="0 0 353 74" fill="none" xmlns="http://www.w3.org/2000/svg">
<path d="M68.3378 26.7354C68.3378 32.2513 66.9205 37.2215 64.6554 40.797C62.3863 44.3787 59.3138 46.4999 56 46.4999C52.6863 46.4999 49.6137 44.3787 47.3447 40.797C45.0795 37.2215 43.6622 32.2513 43.6622 26.7354C43.6622 21.2195 45.0795 16.2494 47.3447 12.6739C49.6137 9.09217 52.6863 6.97095 56 6.97095C59.3138 6.97095 62.3863 9.09217 64.6554 12.6739C66.9205 16.2494 68.3378 21.2195 68.3378 26.7354Z" fill="white" stroke="black"/>
<path d="M80.5 13.4529C80.5 16.8956 77.8992 20.1261 73.4407 22.5252C69.0028 24.9134 62.8374 26.4058 56 26.4058C49.1626 26.4058 42.9972 24.9134 38.5593 22.5252C34.1009 20.1261 31.5 16.8956 31.5 13.4529C31.5 10.0102 34.1009 6.7797 38.5593 4.38056C42.9972 1.99242 49.1626 0.5 56 0.5C62.8374 0.5 69.0028 1.99242 73.4407 4.38056C77.8992 6.7797 80.5 10.0102 80.5 13.4529Z" fill="white" stroke="black"/>
<rect x="43.5" y="16.3478" width="25" height="10.8985" fill="white"/>
<path d="M65.8659 25.5434C65.8659 30.2653 64.7226 34.5159 62.9004 37.5693C61.072 40.6331 58.6165 42.413 56 42.413C53.3835 42.413 50.928 40.6331 49.0996 37.5693C47.2774 34.5159 46.1342 30.2653 46.1342 25.5434C46.1342 20.8215 47.2774 16.5709 49.0996 13.5175C50.928 10.4537 53.3835 8.67383 56 8.67383C58.6165 8.67383 61.072 10.4537 62.9004 13.5175C64.7226 16.5709 65.8659 20.8215 65.8659 25.5434Z" fill="#FF0000" stroke="black"/>
<path d="M76.0285 13.213C76.0285 15.659 73.9657 18.0174 70.2979 19.7941C66.6646 21.5539 61.6102 22.6564 56 22.6564C50.3899 22.6564 45.3354 21.5539 41.7022 19.7941C38.0343 18.0174 35.9716 15.659 35.9716 13.213C35.9716 10.767 38.0343 8.40852 41.7022 6.63189C45.3354 4.87203 50.3899 3.76953 56 3.76953C61.6102 3.76953 66.6646 4.87203 70.2979 6.63189C73.9657 8.40852 76.0285 10.767 76.0285 13.213Z" fill="#FF0000" stroke="black"/>
<rect x="45.2277" y="12.2609" width="21.5447" height="12.2609" rx="6.13043" fill="#FF0000"/>
<path d="M57.7759 19.6608C57.7759 21.6715 57.4439 23.4686 56.9255 24.7445C56.6659 25.3838 56.3692 25.8679 56.0654 26.1842C55.7629 26.4991 55.4864 26.6164 55.2471 26.6164C55.0078 26.6164 54.7313 26.4991 54.4288 26.1842C54.125 25.8679 53.8284 25.3838 53.5687 24.7445C53.0504 23.4686 52.7184 21.6715 52.7184 19.6608C52.7184 17.6501 53.0504 15.853 53.5687 14.5771C53.8284 13.9378 54.125 13.4537 54.4288 13.1374C54.7313 12.8225 55.0078 12.7052 55.2471 12.7052C55.4864 12.7052 55.7629 12.8225 56.0654 13.1374C56.3692 13.4537 56.6659 13.9378 56.9255 14.5771C57.4439 15.853 57.7759 17.6501 57.7759 19.6608Z" fill="white" stroke="black"/>
<path d="M64.0967 13.1371C64.0967 13.3888 63.9526 13.6991 63.5323 14.0479C63.115 14.3942 62.4813 14.7285 61.6541 15.0189C60.0043 15.598 57.6926 15.9655 55.1154 15.9655C52.5383 15.9655 50.2265 15.598 48.5768 15.0189C47.7496 14.7285 47.1158 14.3942 46.6986 14.0479C46.2783 13.6991 46.1342 13.3888 46.1342 13.1371C46.1342 12.8854 46.2783 12.5751 46.6986 12.2263C47.1158 11.88 47.7496 11.5457 48.5768 11.2554C50.2265 10.6762 52.5383 10.3087 55.1154 10.3087C57.6926 10.3087 60.0043 10.6762 61.6541 11.2554C62.4813 11.5457 63.115 11.88 63.5323 12.2263C63.9526 12.5751 64.0967 12.8854 64.0967 13.1371Z" fill="white" stroke="black"/>
<rect x="52.7451" y="15.933" width="5.00401" height="2.92899" fill="white"/>
<path d="M112.531 25.5859C112.32 27.3906 111.652 28.7852 110.527 29.7695C109.41 30.7461 107.922 31.2344 106.062 31.2344C104.047 31.2344 102.43 30.5117 101.211 29.0664C100 27.6211 99.3945 25.6875 99.3945 23.2656V21.625C99.3945 20.0391 99.6758 18.6445 100.238 17.4414C100.809 16.2383 101.613 15.3164 102.652 14.6758C103.691 14.0273 104.895 13.7031 106.262 13.7031C108.074 13.7031 109.527 14.2109 110.621 15.2266C111.715 16.2344 112.352 17.6328 112.531 19.4219H110.27C110.074 18.0625 109.648 17.0781 108.992 16.4688C108.344 15.8594 107.434 15.5547 106.262 15.5547C104.824 15.5547 103.695 16.0859 102.875 17.1484C102.062 18.2109 101.656 19.7227 101.656 21.6836V23.3359C101.656 25.1875 102.043 26.6602 102.816 27.7539C103.59 28.8477 104.672 29.3945 106.062 29.3945C107.312 29.3945 108.27 29.1133 108.934 28.5508C109.605 27.9805 110.051 26.9922 110.27 25.5859H112.531ZM117.441 19.8555C118.402 18.6758 119.652 18.0859 121.191 18.0859C123.871 18.0859 125.223 19.5977 125.246 22.6211V31H123.078V22.6094C123.07 21.6953 122.859 21.0195 122.445 20.582C122.039 20.1445 121.402 19.9258 120.535 19.9258C119.832 19.9258 119.215 20.1133 118.684 20.4883C118.152 20.8633 117.738 21.3555 117.441 21.9648V31H115.273V13H117.441V19.8555ZM130.848 31H128.68V18.3203H130.848V31ZM128.504 14.957C128.504 14.6055 128.609 14.3086 128.82 14.0664C129.039 13.8242 129.359 13.7031 129.781 13.7031C130.203 13.7031 130.523 13.8242 130.742 14.0664C130.961 14.3086 131.07 14.6055 131.07 14.957C131.07 15.3086 130.961 15.6016 130.742 15.8359C130.523 16.0703 130.203 16.1875 129.781 16.1875C129.359 16.1875 129.039 16.0703 128.82 15.8359C128.609 15.6016 128.504 15.3086 128.504 14.957ZM139.414 29.4648C140.188 29.4648 140.863 29.2305 141.441 28.7617C142.02 28.293 142.34 27.707 142.402 27.0039H144.453C144.414 27.7305 144.164 28.4219 143.703 29.0781C143.242 29.7344 142.625 30.2578 141.852 30.6484C141.086 31.0391 140.273 31.2344 139.414 31.2344C137.688 31.2344 136.312 30.6602 135.289 29.5117C134.273 28.3555 133.766 26.7773 133.766 24.7773V24.4141C133.766 23.1797 133.992 22.082 134.445 21.1211C134.898 20.1602 135.547 19.4141 136.391 18.8828C137.242 18.3516 138.246 18.0859 139.402 18.0859C140.824 18.0859 142.004 18.5117 142.941 19.3633C143.887 20.2148 144.391 21.3203 144.453 22.6797H142.402C142.34 21.8594 142.027 21.1875 141.465 20.6641C140.91 20.1328 140.223 19.8672 139.402 19.8672C138.301 19.8672 137.445 20.2656 136.836 21.0625C136.234 21.8516 135.934 22.9961 135.934 24.4961V24.9062C135.934 26.3672 136.234 27.4922 136.836 28.2812C137.438 29.0703 138.297 29.4648 139.414 29.4648ZM150.43 25.1289L149.07 26.5469V31H146.902V13H149.07V23.8867L150.23 22.4922L154.18 18.3203H156.816L151.883 23.6172L157.391 31H154.848L150.43 25.1289ZM164.082 31.2344C162.363 31.2344 160.965 30.6719 159.887 29.5469C158.809 28.4141 158.27 26.9023 158.27 25.0117V24.6133C158.27 23.3555 158.508 22.2344 158.984 21.25C159.469 20.2578 160.141 19.4844 161 18.9297C161.867 18.3672 162.805 18.0859 163.812 18.0859C165.461 18.0859 166.742 18.6289 167.656 19.7148C168.57 20.8008 169.027 22.3555 169.027 24.3789V25.2812H160.438C160.469 26.5312 160.832 27.543 161.527 28.3164C162.23 29.082 163.121 29.4648 164.199 29.4648C164.965 29.4648 165.613 29.3086 166.145 28.9961C166.676 28.6836 167.141 28.2695 167.539 27.7539L168.863 28.7852C167.801 30.418 166.207 31.2344 164.082 31.2344ZM163.812 19.8672C162.938 19.8672 162.203 20.1875 161.609 20.8281C161.016 21.4609 160.648 22.3516 160.508 23.5H166.859V23.3359C166.797 22.2344 166.5 21.3828 165.969 20.7812C165.438 20.1719 164.719 19.8672 163.812 19.8672ZM173.598 18.3203L173.668 19.9141C174.637 18.6953 175.902 18.0859 177.465 18.0859C180.145 18.0859 181.496 19.5977 181.52 22.6211V31H179.352V22.6094C179.344 21.6953 179.133 21.0195 178.719 20.582C178.312 20.1445 177.676 19.9258 176.809 19.9258C176.105 19.9258 175.488 20.1133 174.957 20.4883C174.426 20.8633 174.012 21.3555 173.715 21.9648V31H171.547V18.3203H173.598Z" fill="black"/>
<path d="M228.719 24.085H223.173V28.6201H229.615V30H221.485V17.2031H229.527V18.5918H223.173V22.7051H228.719V24.085ZM234.651 23.9619L236.761 20.4902H238.659L235.548 25.1924L238.756 30H236.875L234.678 26.4404L232.48 30H230.591L233.799 25.1924L230.688 20.4902H232.568L234.651 23.9619ZM248.424 25.3506C248.424 26.7979 248.093 27.9639 247.431 28.8486C246.769 29.7334 245.872 30.1758 244.741 30.1758C243.587 30.1758 242.679 29.8096 242.017 29.0771V33.6562H240.391V20.4902H241.876L241.955 21.5449C242.617 20.7246 243.537 20.3145 244.715 20.3145C245.857 20.3145 246.76 20.7451 247.422 21.6064C248.09 22.4678 248.424 23.666 248.424 25.2012V25.3506ZM246.798 25.166C246.798 24.0938 246.569 23.2471 246.112 22.626C245.655 22.0049 245.028 21.6943 244.231 21.6943C243.247 21.6943 242.509 22.1309 242.017 23.0039V27.5479C242.503 28.415 243.247 28.8486 244.249 28.8486C245.028 28.8486 245.646 28.541 246.104 27.9258C246.566 27.3047 246.798 26.3848 246.798 25.166ZM252.265 30H250.639V20.4902H252.265V30ZM250.507 17.9678C250.507 17.7041 250.586 17.4814 250.744 17.2998C250.908 17.1182 251.148 17.0273 251.465 17.0273C251.781 17.0273 252.021 17.1182 252.186 17.2998C252.35 17.4814 252.432 17.7041 252.432 17.9678C252.432 18.2314 252.35 18.4512 252.186 18.627C252.021 18.8027 251.781 18.8906 251.465 18.8906C251.148 18.8906 250.908 18.8027 250.744 18.627C250.586 18.4512 250.507 18.2314 250.507 17.9678ZM259.472 21.9492C259.226 21.9082 258.959 21.8877 258.672 21.8877C257.605 21.8877 256.882 22.3418 256.501 23.25V30H254.875V20.4902H256.457L256.483 21.5889C257.017 20.7393 257.772 20.3145 258.751 20.3145C259.067 20.3145 259.308 20.3555 259.472 20.4375V21.9492ZM264.745 30.1758C263.456 30.1758 262.407 29.7539 261.599 28.9102C260.79 28.0605 260.386 26.9268 260.386 25.5088V25.21C260.386 24.2666 260.564 23.4258 260.922 22.6875C261.285 21.9434 261.789 21.3633 262.434 20.9473C263.084 20.5254 263.787 20.3145 264.543 20.3145C265.779 20.3145 266.74 20.7217 267.426 21.5361C268.111 22.3506 268.454 23.5166 268.454 25.0342V25.7109H262.012C262.035 26.6484 262.308 27.4072 262.829 27.9873C263.356 28.5615 264.024 28.8486 264.833 28.8486C265.407 28.8486 265.894 28.7314 266.292 28.4971C266.69 28.2627 267.039 27.9521 267.338 27.5654L268.331 28.3389C267.534 29.5635 266.339 30.1758 264.745 30.1758ZM264.543 21.6504C263.887 21.6504 263.336 21.8906 262.891 22.3711C262.445 22.8457 262.17 23.5137 262.064 24.375H266.828V24.252C266.781 23.4258 266.559 22.7871 266.16 22.3359C265.762 21.8789 265.223 21.6504 264.543 21.6504ZM275.881 27.4775C275.881 27.0381 275.714 26.6982 275.38 26.458C275.052 26.2119 274.475 26.001 273.648 25.8252C272.828 25.6494 272.175 25.4385 271.688 25.1924C271.208 24.9463 270.851 24.6533 270.616 24.3135C270.388 23.9736 270.273 23.5693 270.273 23.1006C270.273 22.3213 270.602 21.6621 271.258 21.123C271.92 20.584 272.764 20.3145 273.789 20.3145C274.867 20.3145 275.74 20.5928 276.408 21.1494C277.082 21.7061 277.419 22.418 277.419 23.2852H275.784C275.784 22.8398 275.594 22.4561 275.213 22.1338C274.838 21.8115 274.363 21.6504 273.789 21.6504C273.197 21.6504 272.734 21.7793 272.4 22.0371C272.066 22.2949 271.899 22.6318 271.899 23.0479C271.899 23.4404 272.055 23.7363 272.365 23.9355C272.676 24.1348 273.235 24.3252 274.044 24.5068C274.858 24.6885 275.518 24.9053 276.021 25.1572C276.525 25.4092 276.897 25.7139 277.138 26.0713C277.384 26.4229 277.507 26.8535 277.507 27.3633C277.507 28.2129 277.167 28.8955 276.487 29.4111C275.808 29.9209 274.926 30.1758 273.842 30.1758C273.08 30.1758 272.406 30.041 271.82 29.7715C271.234 29.502 270.774 29.127 270.44 28.6465C270.112 28.1602 269.948 27.6357 269.948 27.0732H271.574C271.604 27.6182 271.82 28.0518 272.225 28.374C272.635 28.6904 273.174 28.8486 273.842 28.8486C274.457 28.8486 274.949 28.7256 275.318 28.4795C275.693 28.2275 275.881 27.8936 275.881 27.4775ZM289.627 27.4775C289.627 27.0381 289.46 26.6982 289.126 26.458C288.798 26.2119 288.221 26.001 287.395 25.8252C286.574 25.6494 285.921 25.4385 285.435 25.1924C284.954 24.9463 284.597 24.6533 284.362 24.3135C284.134 23.9736 284.02 23.5693 284.02 23.1006C284.02 22.3213 284.348 21.6621 285.004 21.123C285.666 20.584 286.51 20.3145 287.535 20.3145C288.613 20.3145 289.486 20.5928 290.154 21.1494C290.828 21.7061 291.165 22.418 291.165 23.2852H289.53C289.53 22.8398 289.34 22.4561 288.959 22.1338C288.584 21.8115 288.109 21.6504 287.535 21.6504C286.943 21.6504 286.48 21.7793 286.146 22.0371C285.812 22.2949 285.646 22.6318 285.646 23.0479C285.646 23.4404 285.801 23.7363 286.111 23.9355C286.422 24.1348 286.981 24.3252 287.79 24.5068C288.604 24.6885 289.264 24.9053 289.768 25.1572C290.271 25.4092 290.644 25.7139 290.884 26.0713C291.13 26.4229 291.253 26.8535 291.253 27.3633C291.253 28.2129 290.913 28.8955 290.233 29.4111C289.554 29.9209 288.672 30.1758 287.588 30.1758C286.826 30.1758 286.152 30.041 285.566 29.7715C284.98 29.502 284.521 29.127 284.187 28.6465C283.858 28.1602 283.694 27.6357 283.694 27.0732H285.32C285.35 27.6182 285.566 28.0518 285.971 28.374C286.381 28.6904 286.92 28.8486 287.588 28.8486C288.203 28.8486 288.695 28.7256 289.064 28.4795C289.439 28.2275 289.627 27.8936 289.627 27.4775ZM292.94 25.1572C292.94 24.2256 293.122 23.3877 293.485 22.6436C293.854 21.8994 294.364 21.3252 295.015 20.9209C295.671 20.5166 296.418 20.3145 297.256 20.3145C298.551 20.3145 299.597 20.7627 300.394 21.6592C301.196 22.5557 301.598 23.748 301.598 25.2363V25.3506C301.598 26.2764 301.419 27.1084 301.062 27.8467C300.71 28.5791 300.203 29.1504 299.541 29.5605C298.885 29.9707 298.129 30.1758 297.273 30.1758C295.984 30.1758 294.938 29.7275 294.136 28.8311C293.339 27.9346 292.94 26.748 292.94 25.2715V25.1572ZM294.575 25.3506C294.575 26.4053 294.818 27.252 295.305 27.8906C295.797 28.5293 296.453 28.8486 297.273 28.8486C298.1 28.8486 298.756 28.5264 299.242 27.8818C299.729 27.2314 299.972 26.3232 299.972 25.1572C299.972 24.1143 299.723 23.2705 299.225 22.626C298.732 21.9756 298.076 21.6504 297.256 21.6504C296.453 21.6504 295.806 21.9697 295.313 22.6084C294.821 23.2471 294.575 24.1611 294.575 25.3506ZM303.206 25.1572C303.206 24.2256 303.388 23.3877 303.751 22.6436C304.12 21.8994 304.63 21.3252 305.28 20.9209C305.937 20.5166 306.684 20.3145 307.521 20.3145C308.816 20.3145 309.862 20.7627 310.659 21.6592C311.462 22.5557 311.863 23.748 311.863 25.2363V25.3506C311.863 26.2764 311.685 27.1084 311.327 27.8467C310.976 28.5791 310.469 29.1504 309.807 29.5605C309.15 29.9707 308.395 30.1758 307.539 30.1758C306.25 30.1758 305.204 29.7275 304.401 28.8311C303.604 27.9346 303.206 26.748 303.206 25.2715V25.1572ZM304.841 25.3506C304.841 26.4053 305.084 27.252 305.57 27.8906C306.062 28.5293 306.719 28.8486 307.539 28.8486C308.365 28.8486 309.021 28.5264 309.508 27.8818C309.994 27.2314 310.237 26.3232 310.237 25.1572C310.237 24.1143 309.988 23.2705 309.49 22.626C308.998 21.9756 308.342 21.6504 307.521 21.6504C306.719 21.6504 306.071 21.9697 305.579 22.6084C305.087 23.2471 304.841 24.1611 304.841 25.3506ZM315.44 20.4902L315.493 21.6855C316.22 20.7715 317.169 20.3145 318.341 20.3145C320.351 20.3145 321.364 21.4482 321.382 23.7158V30H319.756V23.707C319.75 23.0215 319.592 22.5146 319.281 22.1865C318.977 21.8584 318.499 21.6943 317.849 21.6943C317.321 21.6943 316.858 21.835 316.46 22.1162C316.062 22.3975 315.751 22.7666 315.528 23.2236V30H313.902V20.4902H315.44ZM325.653 26.3877H324.186L324.071 17.2031H325.776L325.653 26.3877ZM324.01 29.1826C324.01 28.9189 324.089 28.6992 324.247 28.5234C324.411 28.3418 324.651 28.251 324.968 28.251C325.284 28.251 325.524 28.3418 325.688 28.5234C325.853 28.6992 325.935 28.9189 325.935 29.1826C325.935 29.4463 325.853 29.666 325.688 29.8418C325.524 30.0117 325.284 30.0967 324.968 30.0967C324.651 30.0967 324.411 30.0117 324.247 29.8418C324.089 29.666 324.01 29.4463 324.01 29.1826Z" fill="#EF8F00"/>
<path d="M4 29H10V27H4V29ZM4 17V19H22V17H4ZM4 24H16V22H4V24Z" fill="black"/>
<rect y="66" width="351" height="8" rx="4" fill="#EAEAEA"/>
</svg>
