<?xml version="1.0" encoding="utf-8"?>
<!-- Generator: Adobe Illustrator 23.1.0, SVG Export Plug-In . SVG Version: 6.00 Build 0)  -->
<svg version="1.1" id="Layer_1" xmlns="http://www.w3.org/2000/svg" xmlns:xlink="http://www.w3.org/1999/xlink" x="0px" y="0px"
	 viewBox="0 0 136 136" style="enable-background:new 0 0 136 136;" xml:space="preserve">
<style type="text/css">
	.st0{fill:#3C9BDF;}
	.st1{fill:#3474A2;}
	.st2{fill:#FFFFFF;stroke:#000000;}
	.st3{fill:#FF0000;}
	.st4{fill:#0047FF;}
	.st5{fill:#FFFFFF;}
	.st6{fill:none;stroke:#000000;}
	.st7{fill:#FFD645;stroke:#000000;}
	.st8{fill:#DAAA00;stroke:#000000;}
	.st9{fill:none;}
	.st10{font-family:'ArialMT';}
	.st11{font-size:12px;}
</style>
<circle class="st0" cx="70" cy="66" r="66"/>
<circle class="st1" cx="69.5" cy="65.5" r="59.6"/>
<g>
	<path class="st2" d="M85.5,10.5L85.5,10.5c0.7,0,1.2,0.5,1.2,1.2v3.4c0,0.7-0.5,1.2-1.2,1.2l0,0c-0.7,0-1.2-0.5-1.2-1.2v-3.4
		C84.3,11,84.9,10.5,85.5,10.5z"/>
	<rect x="65.2" y="26.9" class="st2" width="40.5" height="52.1"/>
	<path class="st2" d="M84.8,13.9c0.4-0.2,0.9-0.2,1.4,0l19.8,10c1.4,0.7,0.9,2.8-0.7,2.8H65.7c-1.6,0-2.1-2.1-0.7-2.8L84.8,13.9z"/>
	<path class="st2" d="M69.2,24.5l16.3-7.9l16.3,7.9H69.2z"/>
	<path d="M79.2,50.6l-2.7,4.8l-1.3-0.1l-2-4.4l-1.3,7.2l-1.4-0.3l1.7-9.4l1.3-0.2l2.4,5.2l3-5.3l1.3,0.2l1.7,9.4L80.5,58L79.2,50.6z
		 M83.7,49.7l1.4-0.4l0.4,1.7l-1.4,0.4L83.7,49.7z M83.3,58.2l0.7-6l1.4,0.2l-0.7,6L83.3,58.2z M86.9,58.5l1.3-9.1l1.4,0.2l-1.3,9.1
		L86.9,58.5z M90.5,57.9l2.1-9.7l1.4,0.3l-2.1,9.7L90.5,57.9z M93.6,55.4v-1l3-2.9l1,1l-2.5,2.4l3.1,2.7l-0.9,1.1L93.6,55.4z"/>
	<rect x="66.4" y="28.1" class="st3" width="38.2" height="10.2"/>
	<rect x="66.4" y="28.1" class="st3" width="38.2" height="10.2"/>
	<rect x="66.4" y="28.1" class="st4" width="38.2" height="10.2"/>
	<rect x="66.4" y="67" class="st3" width="38.2" height="10.2"/>
	<rect x="66.4" y="67" class="st3" width="38.2" height="10.2"/>
	<rect x="66.4" y="67" class="st4" width="38.2" height="10.2"/>
	<path class="st5" d="M84.8,12l1.4,0.5v3h-1.4V12z"/>
	<rect x="66.9" y="28.6" class="st6" width="37.2" height="48.1"/>
	<path class="st7" d="M38.2,48.2c0.2-3.5,4.1-5.5,7-3.5L88,73.9c2.8,1.9,2.5,6.2-0.5,7.8l-45.7,22.7c-3.1,1.5-6.7-0.8-6.5-4.3
		L38.2,48.2z"/>
	<path class="st8" d="M51.9,59.5c1.4,2.9,0.2,6.4-2.6,7.8c-2.9,1.4-6.3,0.2-7.7-2.6c-1.4-2.9-0.2-6.4,2.6-7.8
		C47.1,55.4,50.5,56.6,51.9,59.5z"/>
	<path class="st8" d="M53.6,85.4c1.4,2.9,0.2,6.4-2.6,7.8c-2.9,1.4-6.3,0.2-7.7-2.6c-1.4-2.9-0.2-6.4,2.6-7.8
		C48.7,81.3,52.2,82.5,53.6,85.4z"/>
	<path class="st8" d="M74.1,68.4c1.4,2.9,0.2,6.4-2.6,7.8c-2.9,1.4-6.3,0.2-7.7-2.6c-1.4-2.9-0.2-6.4,2.6-7.8
		C69.3,64.3,72.7,65.5,74.1,68.4z"/>
</g>
<path id="SVGID_x5F_1_x5F_" class="st9" d="M90.9,6.6c30.6,12.1,45.6,46.8,33.4,77.4S77.6,129.6,47,117.4S1.4,70.7,13.6,40.1
	S60.3-5.5,90.9,6.6z"/>
<text transform="matrix(0.4644 -0.8856 0.8856 0.4644 16.5008 39.3759)" class="st10 st11"> </text>
<text transform="matrix(0.5516 -0.8341 0.8341 0.5516 17.9339 36.3525)" class="st10 st11">D</text>
<text transform="matrix(0.6552 -0.7555 0.7555 0.6552 22.7717 29.1548)" class="st10 st11">a</text>
<text transform="matrix(0.713 -0.7011 0.7011 0.713 27.2056 24.1633)" class="st10 st11">i</text>
<text transform="matrix(0.7515 -0.6597 0.6597 0.7515 29.0934 22.2802)" class="st10 st11">r</text>
<text transform="matrix(0.8045 -0.594 0.594 0.8045 32.0716 19.611)" class="st10 st11">y</text>
<text transform="matrix(0.8484 -0.5294 0.5294 0.8484 36.9305 16.0891)" class="st10 st11"> </text>
<text transform="matrix(0.8762 -0.4819 0.4819 0.8762 39.76 14.3225)" class="st10 st11"> </text>
<text class="st10 st11"> </text>
</svg>
