<?xml version="1.0" encoding="utf-8"?>
<!-- Generator: Adobe Illustrator 24.0.1, SVG Export Plug-In . SVG Version: 6.00 Build 0)  -->
<svg version="1.1" id="Layer_1" xmlns="http://www.w3.org/2000/svg" xmlns:xlink="http://www.w3.org/1999/xlink" x="0px" y="0px"
	 viewBox="0 0 132 132" style="enable-background:new 0 0 132 132;" xml:space="preserve">
<style type="text/css">
	.st0{fill:#A2E989;}
	.st1{fill:#7DCB61;fill-opacity:0.67;}
	.st2{fill:#FF5C00;stroke:#000000;}
	.st3{fill:#7FFF00;stroke:#000000;stroke-width:1;stroke-miterlimit:4;}
	.st4{fill:#80FF00;stroke:#000000;}
	.st5{fill:#56AC00;stroke:#000000;}
	.st6{fill:#56AC00;}
	.st7{fill:none;stroke:#000000;stroke-width:1;stroke-miterlimit:4;}
	.st8{fill:none;stroke:#000000;stroke-width:2;stroke-miterlimit:4;}
	.st9{fill:none;stroke:#000000;stroke-width:2;}
	.st10{fill:none;}
</style>
<path class="st0" d="M132,66c0,36.5-29.5,66-66,66c-36.5,0-66-29.5-66-66C0,29.5,29.5,0,66,0C102.5,0,132,29.5,132,66z"/>
<path class="st1" d="M125.6,66c0,32.6-26.5,59.1-59.1,59.1S7.4,98.6,7.4,66S33.8,6.9,66.5,6.9S125.6,33.4,125.6,66z"/>
<g>
	<path class="st2" d="M81.7,63.3c0,14.2-12.5,25.8-28.1,25.8c-15.6,0-28.1-11.6-28.1-25.8c0-14.2,12.5-25.8,28.1-25.8
		C69.1,37.6,81.7,49.1,81.7,63.3z"/>
	<path class="st3" d="M40.5,37.8L40.5,37.8c0.3-0.1,0.6,0,0.7,0.3l2.3,5.2c0.1,0.3,0,0.6-0.3,0.7l0,0c-0.3,0.1-0.6,0-0.7-0.3
		l-2.3-5.2C40.1,38.3,40.2,37.9,40.5,37.8z"/>
	<path class="st4" d="M64.6,26.4c1.1,0,2.4,0.1,3.9,0.1c-0.2,0.2-0.3,0.4-0.5,0.6c-2.1,2.3-3.3,3.7-4.8,4.8
		c-1.8,1.3-3.9,2.3-8.4,4.1c-4.4,1.8-8.6,2.9-11.8,3.4c-1.6,0.2-2.9,0.3-3.8,0.1c-1-0.1-1.4-0.4-1.5-0.7c-0.1-0.3,0-0.8,0.6-1.6
		c0.6-0.7,1.6-1.6,2.9-2.5c2.6-1.9,6.4-3.9,10.8-5.7c4.5-1.8,6.4-2.4,8.5-2.6c1-0.1,2.1-0.1,3.5,0C64.2,26.4,64.4,26.4,64.6,26.4z"
		/>
	<path class="st5" d="M101.1,56.6c-3.5,5.5-10.5,7.4-15.7,4.1c-5.2-3.2-6.7-10.3-3.2-15.9c3.5-5.5,10.5-7.4,15.7-4.1
		C103.1,43.9,104.5,51.1,101.1,56.6z"/>
	<path class="st5" d="M75.1,98.3c-3.5,5.5-10.5,7.4-15.7,4.1c-5.2-3.2-6.7-10.3-3.2-15.9c3.5-5.5,10.5-7.4,15.7-4.1
		C77.1,85.7,78.5,92.8,75.1,98.3z"/>
	
		<rect x="54.1" y="59.9" transform="matrix(0.5288 -0.8487 0.8487 0.5288 -23.6907 100.4549)" class="st6" width="49.1" height="23.3"/>
	<line class="st7" x1="75.1" y1="98.3" x2="101.1" y2="56.6"/>
	<line class="st7" x1="55.9" y1="86.3" x2="81.9" y2="44.6"/>
	<line class="st8" x1="59.2" y1="102.1" x2="97.5" y2="40.6"/>
	<line class="st8" x1="60.4" y1="89.2" x2="86.4" y2="47.4"/>
	<path class="st9" d="M97.8,40.8c-2.3,0-7.7,1.3-11.1,6.8"/>
	<path class="st9" d="M97.8,40.8c1,2,2.2,7.5-1.2,13"/>
	<path class="st9" d="M59.5,102.3c-1-2-2.2-7.5,1.2-13"/>
	<path class="st9" d="M59.5,102.3c2.3,0,7.7-1.3,11.1-6.8"/>
	<line class="st8" x1="70.3" y1="95.3" x2="96.3" y2="53.6"/>
</g>
<path id="SVGID_x5F_1_x5F_" class="st10" d="M110.8,105.1c-21.6,24.5-59,26.8-83.4,5.2s-26.8-59-5.2-83.4s59-26.8,83.4-5.2
	S132.4,80.7,110.8,105.1z"/>
<text><textPath  xlink:href="#SVGID_x5F_1_x5F_" startOffset="36.7188%">
<tspan  style="font-family:'KozGoPr6N-Regular-90ms-RKSJ-H'; font-size:12px;">Fruit &amp; Vegetables</tspan></textPath>
</text>
</svg>
