<?xml version="1.0" encoding="utf-8"?>
<!-- Generator: Adobe Illustrator 23.1.0, SVG Export Plug-In . SVG Version: 6.00 Build 0)  -->
<svg version="1.1" id="Layer_1" xmlns="http://www.w3.org/2000/svg" xmlns:xlink="http://www.w3.org/1999/xlink" x="0px" y="0px"
	 viewBox="0 0 136 133" style="enable-background:new 0 0 136 133;" xml:space="preserve">
<style type="text/css">
	.st0{fill:#DA4242;}
	.st1{fill:#A82B2B;fill-opacity:0.78;}
	.st2{fill:#FFFFFF;stroke:#000000;}
	.st3{fill:#FFFFFF;}
	.st4{fill:#FF0000;stroke:#000000;}
	.st5{fill:#FF0000;}
	.st6{fill:#7192A5;stroke:#000000;}
	.st7{fill:#61B0DC;stroke:#000000;}
	.st8{fill:#7092A5;stroke:#000000;}
	.st9{fill:#7092A5;}
	.st10{fill:none;}
	.st11{font-family:'ArialMT';}
	.st12{font-size:12px;}
</style>
<circle class="st0" cx="66.5" cy="66.5" r="66.5"/>
<ellipse class="st1" cx="67" cy="66" rx="59.6" ry="59.6"/>
<g>
	<path class="st2" d="M71.4,66.8c0,7.4-1.9,14.1-5,18.9s-7.2,7.7-11.8,7.7s-8.7-2.9-11.8-7.7c-3.1-4.8-5-11.5-5-18.9
		s1.9-14.1,5-18.9s7.2-7.7,11.8-7.7s8.7,2.9,11.8,7.7C69.4,52.7,71.4,59.4,71.4,66.8z"/>
	<path class="st2" d="M87.7,49c0,4.7-3.6,9.1-9.6,12.3s-14.3,5.2-23.5,5.2s-17.5-2-23.5-5.2s-9.6-7.6-9.6-12.3s3.6-9.1,9.6-12.3
		s14.3-5.2,23.5-5.2s17.5,2,23.5,5.2S87.7,44.3,87.7,49z"/>
	<rect x="37.8" y="52.9" class="st3" width="33.6" height="14.6"/>
	<path class="st4" d="M68,65.2c0,6.3-1.5,12.1-4,16.2S58.2,88,54.6,88s-6.9-2.4-9.4-6.6c-2.5-4.1-4-9.8-4-16.2
		c0-6.3,1.5-12.1,4-16.2s5.8-6.6,9.4-6.6s6.9,2.4,9.4,6.6C66.5,53.1,68,58.8,68,65.2z"/>
	<path class="st4" d="M81.7,48.7c0,3.4-2.9,6.6-7.8,9C69,60,62.2,61.5,54.6,61.5S40.2,60,35.3,57.6s-7.8-5.6-7.8-9s2.9-6.6,7.8-9
		s11.7-3.8,19.3-3.8s14.4,1.5,19.3,3.8C78.8,42.1,81.7,45.3,81.7,48.7z"/>
	<path class="st5" d="M48.3,47.4h12.6c4.5,0,8.2,3.7,8.2,8.2l0,0c0,4.5-3.7,8.2-8.2,8.2H48.3c-4.5,0-8.2-3.7-8.2-8.2l0,0
		C40.1,51.1,43.8,47.4,48.3,47.4z"/>
	<path class="st2" d="M57.2,57.3c0,2.7-0.4,5.1-1.2,6.9c-0.4,0.9-0.8,1.5-1.2,2c-0.4,0.4-0.8,0.6-1.2,0.6s-0.8-0.2-1.2-0.6
		s-0.8-1.1-1.2-2C50.5,62.4,50,60,50,57.3s0.4-5.1,1.2-6.9c0.4-0.9,0.8-1.5,1.2-2c0.4-0.4,0.8-0.6,1.2-0.6s0.8,0.2,1.2,0.6
		c0.4,0.4,0.8,1.1,1.2,2C56.7,52.2,57.2,54.6,57.2,57.3z"/>
	<path class="st2" d="M65.7,48.6c0,0.4-0.2,0.9-0.8,1.3c-0.6,0.5-1.5,0.9-2.6,1.3c-2.2,0.8-5.4,1.3-8.8,1.3s-6.6-0.5-8.8-1.3
		c-1.1-0.4-2-0.8-2.6-1.3s-0.8-0.9-0.8-1.3c0-0.4,0.2-0.9,0.8-1.3c0.6-0.5,1.5-0.9,2.6-1.3c2.2-0.8,5.4-1.3,8.8-1.3s6.6,0.5,8.8,1.3
		c1.1,0.4,2,0.8,2.6,1.3C65.4,47.7,65.7,48.2,65.7,48.6z"/>
	<rect x="50.2" y="52.3" class="st3" width="6.7" height="3.9"/>
	<path class="st6" d="M120.2,64.5L93,64.6l8.4-25.8L120.2,64.5z"/>
	<path class="st7" d="M81.1,85.4c-6.7,4.9-13.4,8.3-18.9,10c-2.7,0.8-5.1,1.2-7,1.1s-3.2-0.7-3.9-1.7s-0.9-2.4-0.4-4.2
		c0.5-1.8,1.6-4,3.2-6.3c3.3-4.7,8.6-10,15.3-14.9s13.4-8.3,18.9-10c2.7-0.8,5.1-1.2,7-1.1c1.9,0.1,3.2,0.7,3.9,1.7
		c0.7,1,0.9,2.4,0.4,4.2c-0.5,1.8-1.6,4-3.2,6.3C93.1,75.2,87.8,80.6,81.1,85.4z"/>
	<path class="st8" d="M72.4,84.1l8.3-3.4l-5.8,6.9L72.4,84.1z"/>
	<path class="st8" d="M74.4,88L74.4,88L74.4,88L74.4,88c-0.2,0-0.4-0.1-0.6-0.2c-0.4-0.2-0.9-0.7-1.3-1.2c-0.4-0.6-0.7-1.1-0.8-1.6
		c-0.1-0.2-0.1-0.4,0-0.5c0-0.1,0-0.1,0-0.1l0,0l0,0l0,0l0,0h0.1c0.1,0,0.3,0.1,0.5,0.2c0.4,0.2,0.9,0.7,1.3,1.2
		c0.4,0.6,0.7,1.1,0.8,1.6C74.5,87.6,74.5,87.8,74.4,88C74.5,87.9,74.4,88,74.4,88L74.4,88L74.4,88z"/>
	<path class="st9" d="M75.1,83l1.6,2.2l-2.2,2.7l-2.7-3.7L75.1,83z"/>
</g>
<path id="SVGID_x5F_1_x5F_" class="st10" d="M67,6.3c33,0,59.7,26.7,59.7,59.7S100,125.6,67,125.6S7.4,98.9,7.4,66S34.1,6.3,67,6.3z
	"/>
<text transform="matrix(0.5544 -0.8323 0.8323 0.5544 16.2695 34.5737)" class="st11 st12"> </text>
<text transform="matrix(0.6424 -0.7664 0.7664 0.6424 17.9756 31.6836)" class="st11 st12">M</text>
<text transform="matrix(0.7427 -0.6697 0.6697 0.7427 24.4877 24.0929)" class="st11 st12">e</text>
<text transform="matrix(0.8132 -0.582 0.582 0.8132 29.4497 19.62)" class="st11 st12">a</text>
<text transform="matrix(0.8593 -0.5114 0.5114 0.8593 34.9177 15.7934)" class="st11 st12">t</text>
<text transform="matrix(0.8968 -0.4425 0.4425 0.8968 37.7602 14.0408)" class="st11 st12">s</text>
<text class="st11 st12"> </text>
</svg>
