<?xml version="1.0" encoding="utf-8"?>
<!-- Generator: Adobe Illustrator 23.1.0, SVG Export Plug-In . SVG Version: 6.00 Build 0)  -->
<svg version="1.1" id="Layer_1" xmlns="http://www.w3.org/2000/svg" xmlns:xlink="http://www.w3.org/1999/xlink" x="0px" y="0px"
	 viewBox="0 0 133 133" style="enable-background:new 0 0 133 133;" xml:space="preserve">
<style type="text/css">
	.st0{fill:#824EF1;}
	.st1{fill:#6237BD;fill-opacity:0.57;}
	.st2{fill:#FFBA50;stroke:#000000;stroke-width:5;}
	.st3{fill:#FFBA50;stroke:#000000;stroke-width:3;}
	.st4{fill:#FFBA50;stroke:#AD6900;stroke-width:3;}
	.st5{fill:#FFBA50;stroke:#AD6900;stroke-width:5;}
	.st6{fill:#FFBA50;}
	.st7{fill:#845033;}
	.st8{fill:none;stroke:#000000;stroke-width:0.9208;}
	.st9{fill:none;stroke:#000000;stroke-width:0.9215;}
	.st10{fill:#FFFFFF;stroke:#000000;}
	.st11{fill:#CE7DFF;stroke:#000000;stroke-width:2;}
	.st12{fill:none;}
	.st13{font-family:'ArialMT';}
	.st14{font-size:12px;}
</style>
<circle class="st0" cx="66.5" cy="66.5" r="66.5"/>
<circle class="st1" cx="66.5" cy="66.5" r="59.7"/>
<g>
	<path class="st2" d="M101.3,47c0,2.7-2.1,5.7-6.9,8.2c-4.6,2.4-11.2,4-18.6,4s-14-1.6-18.6-4c-4.8-2.5-6.9-5.5-6.9-8.2
		s2.1-5.7,6.9-8.2c4.6-2.4,11.2-4,18.6-4s14,1.6,18.6,4C99.2,41.3,101.3,44.3,101.3,47z"/>
	<rect x="56.2" y="48.8" class="st3" width="39.2" height="39.4"/>
	<rect x="57.1" y="48.6" class="st4" width="37.3" height="38.9"/>
	<path class="st5" d="M100,47.1c0,2.5-2,5.4-6.5,7.8c-4.4,2.3-10.7,3.9-17.8,3.9S62.4,57.2,58,54.9c-4.5-2.4-6.5-5.3-6.5-7.8
		s2-5.4,6.5-7.8c4.4-2.3,10.7-3.9,17.8-3.9s13.4,1.5,17.8,3.9C98.1,41.7,100,44.6,100,47.1z"/>
	<path class="st6" d="M57.4,51.4h36.7l-0.3,30.1h-36L57.4,51.4z"/>
	<polygon class="st7" points="57.1,43.3 58,43.4 54.7,73.4 53.7,73.3 	"/>
	<polygon class="st7" points="57.1,43.3 58,43.4 54.7,73.4 53.7,73.3 	"/>
	<polygon class="st7" points="57.1,43.3 58,43.4 54.7,73.4 53.7,73.3 	"/>
	<polygon class="st8" points="57.1,43.3 58,43.4 54.7,73.4 53.7,73.3 	"/>
	<polygon class="st7" points="48.4,44.1 49.3,44 52.3,74.1 51.4,74.2 	"/>
	<polygon class="st7" points="48.4,44.1 49.3,44 52.3,74.1 51.4,74.2 	"/>
	<polygon class="st7" points="48.4,44.1 49.3,44 52.3,74.1 51.4,74.2 	"/>
	<polygon class="st9" points="48.4,44.1 49.3,44 52.3,74.1 51.4,74.2 	"/>
	<path class="st10" d="M39.2,68l0.5,0.3l0.2-0.6c0.7-2.3,1.9-3.8,3.2-4.6s2.9-1.1,4.4-0.8c3.2,0.5,6.4,3.1,7.8,6.7
		c3,7.2-0.6,15.5-7.9,18.4c-7.1,3-15.4-0.5-18.4-7.7c-1.5-3.6-1.3-7.8,0.5-10.4c0.9-1.3,2.1-2.2,3.7-2.5
		C34.7,66.5,36.8,66.8,39.2,68z"/>
	<path class="st10" d="M54.9,69l0.5,0.3l0.2-0.6c0.7-2.3,1.9-3.8,3.2-4.6c1.3-0.8,2.9-1.1,4.4-0.8c3.2,0.5,6.4,3.1,7.8,6.7
		c3,7.2-0.6,15.5-7.9,18.4s-15.6-0.5-18.6-7.8C43,77,43.2,72.8,45,70.2c0.9-1.3,2.1-2.2,3.7-2.5C50.4,67.4,52.4,67.7,54.9,69z"/>
	<path class="st10" d="M33.9,79.4l0.5,0.3l0.2-0.6c0.7-2.3,1.9-3.8,3.2-4.6c1.3-0.8,2.9-1.1,4.4-0.8c3.2,0.5,6.4,3.1,7.8,6.7
		c3,7.2-0.6,15.5-7.9,18.4S26.5,98.3,23.5,91c-1.5-3.6-1.3-7.8,0.5-10.4c0.9-1.3,2.1-2.2,3.7-2.5C29.4,77.8,31.4,78.1,33.9,79.4z"/>
	<path class="st11" d="M72.2,71.5c1.1,2.6,1.5,5.4,1.2,8.3c-0.2,2.9-1.2,5.8-2.7,8.6c-1.5,2.8-3.6,5.3-6.2,7.5s-5.5,4-8.8,5.3
		c-3.2,1.3-6.6,2.1-10,2.3c-3.4,0.2-6.7-0.2-9.7-1.1s-5.7-2.4-7.9-4.3s-3.9-4.2-5-6.8l24.5-9.9L72.2,71.5z"/>
</g>
<path id="SVGID_x5F_1_x5F_" class="st12" d="M67.2,6.8c33,0.4,59.4,27.5,59,60.5s-27.5,59.4-60.5,59S6.4,98.7,6.8,65.8
	S34.3,6.4,67.2,6.8z"/>
<text transform="matrix(0.4198 -0.9076 0.9076 0.4198 11.5796 43.0481)" class="st13 st14"> </text>
<text transform="matrix(0.5278 -0.8494 0.8494 0.5278 12.7679 39.8972)" class="st13 st14">W</text>
<text transform="matrix(0.6486 -0.7611 0.7611 0.6486 18.8975 30.3676)" class="st13 st14">h</text>
<text transform="matrix(0.7288 -0.6848 0.6848 0.7288 23.2328 25.2812)" class="st13 st14">e</text>
<text transform="matrix(0.8 -0.6 0.6 0.8 28.1028 20.7053)" class="st13 st14">a</text>
<text transform="matrix(0.8472 -0.5312 0.5312 0.8472 33.4837 16.757)" class="st13 st14">t</text>
<text transform="matrix(0.8755 -0.4832 0.4832 0.8755 36.3088 14.9856)" class="st13 st14"> </text>
<text class="st13 st14"> </text>
</svg>
