<?xml version="1.0" encoding="utf-8"?>
<!-- Generator: Adobe Illustrator 24.0.0, SVG Export Plug-In . SVG Version: 6.00 Build 0)  -->
<svg version="1.1" id="Layer_1" xmlns="http://www.w3.org/2000/svg" xmlns:xlink="http://www.w3.org/1999/xlink" x="0px" y="0px"
	 viewBox="0 0 612 792" style="enable-background:new 0 0 612 792;" xml:space="preserve">
<style type="text/css">
	.st0{opacity:0.76;fill:url(#SVGID_1_);}
	.st1{opacity:0.76;fill:url(#SVGID_2_);}
	.st2{opacity:0.76;fill:url(#SVGID_3_);}
	.st3{opacity:0.76;fill:url(#SVGID_4_);}
	.st4{opacity:0.76;fill:url(#SVGID_5_);}
	.st5{opacity:0.76;fill:url(#SVGID_6_);}
	.st6{opacity:0.76;fill:url(#SVGID_7_);}
	.st7{opacity:0.76;fill:url(#SVGID_8_);}
	.st8{opacity:0.76;fill:url(#SVGID_9_);}
	.st9{opacity:0.76;fill:url(#SVGID_10_);}
	.st10{opacity:0.76;fill:url(#SVGID_11_);}
	.st11{opacity:0.76;fill:url(#SVGID_12_);}
</style>
<linearGradient id="SVGID_1_" gradientUnits="userSpaceOnUse" x1="259.1739" y1="291.4047" x2="366.1304" y2="291.4047">
	<stop  offset="0" style="stop-color:#FFFFFF;stop-opacity:0.1"/>
	<stop  offset="0" style="stop-color:#FFFFFF"/>
	<stop  offset="0" style="stop-color:#614897"/>
</linearGradient>
<path class="st0" d="M320.04,336.13l7.83-5.22c1.52-1.42,4.42-4.54,6.02-9.47c1.34-4.11,1.18-7.67,0.94-9.66
	c6.06-7.22,12.12-14.45,18.17-21.67c4.38-5.53,8.75-11.06,13.13-16.59c-0.77-3.52-3.3-12.85-11.8-20.74
	c-9.92-9.21-21.38-10.35-24.72-10.56c-2.55,1.54-5.57,3.13-9.05,4.56c-5.45,2.24-10.46,3.46-14.56,4.14
	c-2.57,2.03-5.13,4.06-7.7,6.09l-4.93,10.43c-1.98,3.86-3.95,7.71-5.93,11.57c-0.44,6-0.88,12-1.31,18v5.22
	c-4.32,1.75-10.8,5.02-17.13,11c-4.7,4.45-7.82,8.99-9.83,12.47c3.99,3.61,12.79,10.56,26.05,13.53
	C301.79,342.93,315.17,338.15,320.04,336.13z"/>
<linearGradient id="SVGID_2_" gradientUnits="userSpaceOnUse" x1="258.9612" y1="375.2361" x2="337.9704" y2="375.2361">
	<stop  offset="0" style="stop-color:#FFFFFF;stop-opacity:0.1"/>
	<stop  offset="0.5698" style="stop-color:#D64D27;stop-opacity:0.9"/>
</linearGradient>
<path class="st1" d="M267,334.48c5.32,2.63,17.59,7.78,33.48,6.22c11.03-1.08,19.38-4.95,24.22-7.68c0.71,0.69,1.59,1.58,2.56,2.69
	c2.9,3.31,6.56,8.51,8.78,15.66c3.4,10.95,1.49,20.22,0.47,24.05c-0.77,5.18-2.13,11.45-4.61,18.32
	c-2.01,5.55-4.31,10.31-6.52,14.22c-0.5,1.32-1.52,3.51-3.56,5.63c-2.1,2.18-4.31,3.3-5.63,3.85c-6.16-0.3-14.05-1.33-22.81-4.15
	c-14.42-4.64-24.7-12.05-30.81-17.3c-1.92-6.51-3.9-15.98-3.56-27.44C259.45,353.34,263.79,341.49,267,334.48z"/>
<linearGradient id="SVGID_3_" gradientUnits="userSpaceOnUse" x1="328.9259" y1="346.3659" x2="370.2505" y2="346.3659">
	<stop  offset="0" style="stop-color:#FFFFFF;stop-opacity:0.1"/>
	<stop  offset="0.5698" style="stop-color:#F4E52D;stop-opacity:0.9"/>
</linearGradient>
<path class="st2" d="M369.22,317.3c0.63,1.96,1.49,5.58,0.73,9.96c-0.42,2.41-1.2,4.36-1.92,5.77c-2.77,6.31-5.53,12.62-8.3,18.94
	v15.7c-1.61,1.64-4.53,4.19-8.89,5.93c-5.55,2.22-10.47,1.94-12.88,1.64c1.11-3.69,3.15-12.31,0.44-22.68
	c-2.3-8.79-6.92-14.65-9.48-17.48c4.07-3.41,9.78-7.49,17.19-10.96C355.12,319.88,363.33,318.1,369.22,317.3z"/>
<linearGradient id="SVGID_4_" gradientUnits="userSpaceOnUse" x1="244.9255" y1="308.3513" x2="280.6296" y2="308.3513">
	<stop  offset="0" style="stop-color:#FFFFFF;stop-opacity:0.1"/>
	<stop  offset="0.5698" style="stop-color:#F4E52D;stop-opacity:0.9"/>
</linearGradient>
<path class="st3" d="M263.14,344.44c0.83-0.34,2.42-1.15,3.56-2.85c2.53-3.77,0.43-8.29,0.3-8.56c-0.88-1.13-1.95-2.35-3.25-3.6
	c-1.61-1.55-3.18-2.78-4.58-3.73c7.15-7.64,14.3-15.28,21.46-22.92l-6.22-30.52c-4.97,6.1-9.94,12.2-14.9,18.3
	c-2.83,3.48-5.67,6.96-8.5,10.44c-1.84,2.64-5.18,8.21-5.93,16c-0.51,5.31,0.38,9.68,1.19,12.44c2.14,2.37,4.6,4.87,7.41,7.41
	C256.96,339.83,260.17,342.34,263.14,344.44z"/>
<linearGradient id="SVGID_5_" gradientUnits="userSpaceOnUse" x1="309.0669" y1="439.7452" x2="340.7888" y2="439.7452">
	<stop  offset="0" style="stop-color:#FFFFFF;stop-opacity:0.1"/>
	<stop  offset="0.5698" style="stop-color:#F4E52D;stop-opacity:0.9"/>
</linearGradient>
<path class="st4" d="M326.26,406.34c1.55,0.5,8.47,2.89,11.85,9.92c1.45,3.01,1.75,5.83,1.78,7.7c0.54,2.8,0.97,6.32,0.89,10.37
	c-0.07,3.16-0.43,5.95-0.89,8.3c-2.12,3.32-4.68,8.09-6.52,14.22c-1.95,6.51-2.38,12.23-2.37,16.3c-3.72-4.01-7.96-9.3-11.85-16
	c-5.71-9.81-8.56-19.01-10.07-25.78c0-4.53,0-9.05-0.01-13.58c1.61,0.32,4.22,0.58,7.12-0.35
	C323.58,415.08,326.01,407.2,326.26,406.34z"/>
<linearGradient id="SVGID_6_" gradientUnits="userSpaceOnUse" x1="206.5556" y1="418.3121" x2="280.4258" y2="418.3121">
	<stop  offset="0" style="stop-color:#FFFFFF;stop-opacity:0.1"/>
	<stop  offset="0.5698" style="stop-color:#F4E52D;stop-opacity:0.9"/>
</linearGradient>
<path class="st5" d="M280.43,407.96c-1.67,4.77-5.87,14.74-15.8,23.41c-8.71,7.6-17.7,10.61-22.52,11.85c-11.85,0-23.7,0-35.56,0
	l16-16c0.15-3.11,0.93-10.95,6.52-18.67c6.14-8.48,14.3-11.6,17.19-12.56c5.19-0.87,10.38-1.73,15.57-2.6L280.43,407.96z"/>
<linearGradient id="SVGID_7_" gradientUnits="userSpaceOnUse" x1="223.7407" y1="472.1096" x2="312.6522" y2="472.1096">
	<stop  offset="0" style="stop-color:#FFFFFF;stop-opacity:0.1"/>
	<stop  offset="0.5698" style="stop-color:#F4E52D;stop-opacity:0.9"/>
</linearGradient>
<path class="st6" d="M237.37,533.3c-1.86-0.66-4.45-1.8-7.11-3.85c-3.38-2.6-5.41-5.51-6.52-7.41c3.46-9.98,6.91-19.95,10.37-29.93
	l1.48-24l4.74-24.89c4.8-0.98,15.68-3.87,25.72-13.14c8.95-8.27,12.8-17.5,14.37-22.12c9.55,3.28,19.09,6.55,28.64,9.83l3.59,30.17
	c-1.63,5.32-4.39,12.37-9.21,19.85c-5.52,8.58-11.68,14.55-16.3,18.37c0.1,13.53,0.2,27.06,0.3,40.59
	c-1.25,4.61-4.91,8.16-9.48,9.19c-6.44,1.44-11.18-2.9-11.56-3.26c-1.3-7.74-2.26-16.7-2.36-26.67c-0.16-15.47,1.79-28.83,4.15-39.4
	c-8.48,8.27-12.92,16.14-15.42,21.93c-3.5,8.09-3.65,13.16-8,26.07C242.07,522.67,239.31,529.08,237.37,533.3z"/>
<linearGradient id="SVGID_8_" gradientUnits="userSpaceOnUse" x1="262.6192" y1="553" x2="318.476" y2="553">
	<stop  offset="0" style="stop-color:#FFFFFF;stop-opacity:0.1"/>
	<stop  offset="7.380247e-03" style="stop-color:#F6F6F6;stop-opacity:0.1066"/>
	<stop  offset="0.0477" style="stop-color:#C8C8C8;stop-opacity:0.1429"/>
	<stop  offset="0.0931" style="stop-color:#9D9D9D;stop-opacity:0.1838"/>
	<stop  offset="0.1419" style="stop-color:#777777;stop-opacity:0.2277"/>
	<stop  offset="0.195" style="stop-color:#575757;stop-opacity:0.2755"/>
	<stop  offset="0.2537" style="stop-color:#3B3B3B;stop-opacity:0.3284"/>
	<stop  offset="0.32" style="stop-color:#252525;stop-opacity:0.388"/>
	<stop  offset="0.3974" style="stop-color:#141414;stop-opacity:0.4577"/>
	<stop  offset="0.4931" style="stop-color:#090909;stop-opacity:0.5438"/>
	<stop  offset="0.6274" style="stop-color:#020202;stop-opacity:0.6646"/>
	<stop  offset="1" style="stop-color:#000000"/>
</linearGradient>
<path class="st7" d="M289.52,526.78l1.48,24.81c2.27,2.2,4.54,4.4,6.81,6.59c1.8,0.65,5.35,1.65,9.78,0.94
	c5.34-0.85,8.91-3.71,10.37-5.02c1.63,8.69-0.66,17.1-6.22,21.67c-2.79,2.29-5.82,3.13-8,3.45c-13.65-3.87-27.31-7.75-40.96-11.62
	c-0.19-1.27-0.26-2.9,0.07-4.71c1.09-5.91,5.65-9.12,6.81-9.89c-0.1-6.44-0.2-12.88-0.3-19.32c1.49,0.59,5.36,1.87,10.07,0.63
	C285.55,532.71,288.75,527.99,289.52,526.78z"/>
<linearGradient id="SVGID_9_" gradientUnits="userSpaceOnUse" x1="181.7273" y1="536.8608" x2="237.3704" y2="536.8608">
	<stop  offset="0" style="stop-color:#FFFFFF;stop-opacity:0.1"/>
	<stop  offset="7.380247e-03" style="stop-color:#F6F6F6;stop-opacity:0.1066"/>
	<stop  offset="0.0477" style="stop-color:#C8C8C8;stop-opacity:0.1429"/>
	<stop  offset="0.0931" style="stop-color:#9D9D9D;stop-opacity:0.1838"/>
	<stop  offset="0.1419" style="stop-color:#777777;stop-opacity:0.2277"/>
	<stop  offset="0.195" style="stop-color:#575757;stop-opacity:0.2755"/>
	<stop  offset="0.2537" style="stop-color:#3B3B3B;stop-opacity:0.3284"/>
	<stop  offset="0.32" style="stop-color:#252525;stop-opacity:0.388"/>
	<stop  offset="0.3974" style="stop-color:#141414;stop-opacity:0.4577"/>
	<stop  offset="0.4931" style="stop-color:#090909;stop-opacity:0.5438"/>
	<stop  offset="0.6274" style="stop-color:#020202;stop-opacity:0.6646"/>
	<stop  offset="1" style="stop-color:#000000"/>
</linearGradient>
<path class="st8" d="M237.37,533.3v8.59c-0.01,0.23-8.43,20.92-10.5,21.56c-0.9,0.27-1.93,0.43-3.13,0.37c0,0-5.19,0.29-10.37-1.48
	c-6.64-2.27-9.65-7.91-16.59-14.22c-3.14-2.86-7.93-6.63-14.81-10.07c-0.26-1.84-1.27-10.37,4.44-18.37
	c5.07-7.11,12.2-9.24,14.22-9.78c1.19,0.77,2.87,2.12,3.81,4.29c0.77,1.78,0.79,3.5,0.04,8.45c-0.38,2.53-0.94,5.75-1.78,9.48
	c2.56-2.42,6.57-5.55,12.15-7.7c2.24-0.86,4.35-1.42,6.22-1.78C226.51,526.19,231.94,529.74,237.37,533.3z"/>
<linearGradient id="SVGID_10_" gradientUnits="userSpaceOnUse" x1="176.1445" y1="273.8088" x2="250.1111" y2="273.8088">
	<stop  offset="0" style="stop-color:#FFFFFF;stop-opacity:0.1"/>
	<stop  offset="0.0386" style="stop-color:#E2DDEC;stop-opacity:0.1347"/>
	<stop  offset="0.0887" style="stop-color:#C3B9D7;stop-opacity:0.1798"/>
	<stop  offset="0.1451" style="stop-color:#A799C4;stop-opacity:0.2306"/>
	<stop  offset="0.2074" style="stop-color:#907DB5;stop-opacity:0.2867"/>
	<stop  offset="0.2778" style="stop-color:#7D67A8;stop-opacity:0.3501"/>
	<stop  offset="0.3601" style="stop-color:#6F569F;stop-opacity:0.424"/>
	<stop  offset="0.4617" style="stop-color:#644B98;stop-opacity:0.5155"/>
	<stop  offset="0.6043" style="stop-color:#5F4494;stop-opacity:0.6438"/>
	<stop  offset="1" style="stop-color:#5D4293"/>
</linearGradient>
<path class="st9" d="M250.11,302.34c-5.14,2.42-10.27,4.84-15.41,7.25c-1.93,0.55-3.86,1.1-5.79,1.65
	c-1.34,0.58-9.02,3.74-17.62,0.12c-9.46-3.99-12.36-12.97-12.74-14.22c-0.22-0.45-2.12-4.49,0-8.59c1.56-3.01,4.3-4.16,5.04-4.44
	c4.23-0.5,8.47-1,12.74-1.48c2.67-0.3,5.34-0.6,8-0.89c0.58,0.11,5.72,0.95,9.48-2.67c2.16-2.08,2.77-4.59,2.96-5.63
	c0.45-0.87,1.11-2.42,1.19-4.44c0.11-3.11-1.22-5.38-1.78-6.22c-1.21-2.23-3.25-5.55-6.52-8.89c-6.04-6.19-7.99-5.51-9.78-9.19
	c-0.2-0.42-3.13-6.63,0-10.67c2.53-3.26,8.24-4.14,13.63-1.48c-0.49-3.06-0.99-6.12-1.48-9.19c-1.08-0.37-8.4-2.75-15.41,1.48
	c-4.83,2.92-6.8,7.33-7.41,8.89c-1.14,2.01-2.51,5.19-2.07,8.89c0.52,4.41,3.37,7.68,7.11,11.85c5.02,5.6,8.01,6.76,7.9,9.5
	c-0.11,2.71-3.16,4.82-5.83,6.21c-19.28-4.01-35.04-0.26-39.11,8.59c-0.79,1.72-1.4,4.2-0.89,7.7c0.43,3.98,1.93,12.45,8.3,20.44
	c3.46,4.35,7.25,7.16,10.07,8.89c3.6,2.42,9.41,5.71,17.19,7.7c7.87,2.02,14.62,1.89,18.96,1.48c4.21-1.88,8.43-3.75,12.64-5.63
	L250.11,302.34z"/>
<linearGradient id="SVGID_11_" gradientUnits="userSpaceOnUse" x1="154.7632" y1="365.7104" x2="256.1537" y2="365.7104">
	<stop  offset="0" style="stop-color:#FFFFFF;stop-opacity:0.1"/>
	<stop  offset="0.0386" style="stop-color:#E2DDEC;stop-opacity:0.1347"/>
	<stop  offset="0.0887" style="stop-color:#C3B9D7;stop-opacity:0.1798"/>
	<stop  offset="0.1451" style="stop-color:#A799C4;stop-opacity:0.2306"/>
	<stop  offset="0.2074" style="stop-color:#907DB5;stop-opacity:0.2867"/>
	<stop  offset="0.2778" style="stop-color:#7D67A8;stop-opacity:0.3501"/>
	<stop  offset="0.3601" style="stop-color:#6F569F;stop-opacity:0.424"/>
	<stop  offset="0.4617" style="stop-color:#644B98;stop-opacity:0.5155"/>
	<stop  offset="0.6043" style="stop-color:#5F4494;stop-opacity:0.6438"/>
	<stop  offset="1" style="stop-color:#5D4293"/>
</linearGradient>
<path class="st10" d="M247.57,330.87l8.59,8.16c-2.21,2.04-5.29,4.5-9.3,6.71c-4.27,2.36-8.23,3.68-11.26,4.44
	c-3.9,0.8-8.82,1.48-14.52,1.48s-10.62-0.68-14.52-1.48c-2.54-1.52-6.46-3.44-11.56-4.44c-7.29-1.43-13.32-0.27-16.59,0.63
	c-2.46,1.86-5.38,4.62-7.7,8.56c-7.51,12.74-2.4,26.91-1.48,29.33c-1.38,3.46-2.77,6.91-4.15,10.37l-6.22,5.93
	c-2.86-9.11-5.73-23.09-2.96-39.41c0.74-4.34,1.78-8.3,2.96-11.85c1.4-2.77,4.16-7.37,9.19-11.56c4.9-4.09,9.8-5.98,12.74-6.87
	c5.2-0.03,12.1,0.5,19.85,2.73c4.75,1.36,8.81,3.07,12.15,4.74c2.78,1.06,11.85,4.12,22.26,0.54
	C241.27,336.73,245.4,333.1,247.57,330.87z"/>
<linearGradient id="SVGID_12_" gradientUnits="userSpaceOnUse" x1="346.1111" y1="345.2159" x2="400.7684" y2="345.2159">
	<stop  offset="0" style="stop-color:#FFFFFF;stop-opacity:0.1"/>
	<stop  offset="0.0386" style="stop-color:#E2DDEC;stop-opacity:0.1347"/>
	<stop  offset="0.0887" style="stop-color:#C3B9D7;stop-opacity:0.1798"/>
	<stop  offset="0.1451" style="stop-color:#A799C4;stop-opacity:0.2306"/>
	<stop  offset="0.2074" style="stop-color:#907DB5;stop-opacity:0.2867"/>
	<stop  offset="0.2778" style="stop-color:#7D67A8;stop-opacity:0.3501"/>
	<stop  offset="0.3601" style="stop-color:#6F569F;stop-opacity:0.424"/>
	<stop  offset="0.4617" style="stop-color:#644B98;stop-opacity:0.5155"/>
	<stop  offset="0.6043" style="stop-color:#5F4494;stop-opacity:0.6438"/>
	<stop  offset="1" style="stop-color:#5D4293"/>
</linearGradient>
<path class="st11" d="M359.74,351.96c2.1-3.27,4.46-6.65,7.11-10.07c7.39-9.55,15.16-17.03,22.22-22.81
	c-0.69-6.52-1.38-13.04-2.07-19.56l-12.74-27.26l6.52-23.11c-2.02-3.37-5.87-8.76-12.44-13.33c-9.03-6.28-18.07-7.44-22.22-7.7
	c0-1.91,0-3.83,0-5.74c3.65-0.52,8.29-0.86,13.63-0.48c5.3,0.37,9.81,1.35,13.33,2.37c6.27,3.4,9.82,7.64,11.56,10.07
	c7.62,10.67,6.31,22.57,5.93,26.07c-0.55,4.97-1.9,8.89-2.93,11.37c0.07,2.1,0.49,6.18,2.93,10.55c2.72,4.87,6.48,7.49,8.3,8.59
	c1.34,4.78,3.69,15.74-0.3,28.44c-6.34,20.21-23.71,28.95-26.96,30.52c4.14,1.93,10.58,5.57,16.59,12.15
	c4.47,4.89,7.22,9.78,8.89,13.4c1.06,2.1,3.19,7.05,2.67,13.56c-0.45,5.55-2.61,9.58-3.85,11.56c-2.93,2.93-8.87,9.69-11.26,20.15
	c-1.38,6.06-1.1,11.29-0.61,14.82c1.98,3.03,4.81,8.16,6.23,15.11c1.55,7.54,0.75,13.83,0,17.48c-5.33,0.2-10.67,0.4-16,0.59
	c0.78-1.23,1.88-3.26,2.37-5.93c1.98-10.73-8.87-15.41-10.96-25.78c-2.91-14.44,14.93-21.34,16.59-42.67
	c0.66-8.5-1.54-15.57-3.26-19.85c-6.42-2.27-12.84-4.54-19.26-6.81C359.74,362.43,359.74,357.2,359.74,351.96z"/>
</svg>
